<svg width="29" height="29" viewBox="0 0 29 29" fill="none" xmlns="http://www.w3.org/2000/svg">
<path d="M3.87147 10.6592C1.41978 14.9136 2.97836 21.37 5.68953 25.2847C7.04283 27.2418 8.41296 28.9987 10.2896 28.9987C10.325 28.9987 10.3604 28.998 10.3968 28.9966C11.2784 28.9614 11.9156 28.6899 12.5316 28.4276C13.2233 28.1329 13.9386 27.8281 15.0605 27.8281C16.1279 27.8281 16.8091 28.123 17.4678 28.408C18.117 28.6889 18.7857 28.9795 19.7738 28.9609C21.8877 28.9216 23.1856 27.0258 24.3306 25.3534C25.5255 23.6072 26.1249 21.9118 26.3272 21.2639L26.3353 21.2382C26.3738 21.123 26.3195 20.9973 26.2091 20.9467C26.206 20.9452 26.1948 20.9406 26.1917 20.9392C25.8194 20.787 22.5541 19.3384 22.5198 15.3903C22.4879 12.1826 24.9694 10.4839 25.4671 10.1761L25.4903 10.1616C25.5442 10.1269 25.5817 10.0718 25.5945 10.0089C25.6072 9.94605 25.5939 9.88064 25.5578 9.82777C23.845 7.32122 21.2197 6.94346 20.1628 6.89801C20.0094 6.8827 19.8511 6.875 19.6922 6.875C18.4508 6.875 17.2616 7.34385 16.3062 7.72056C15.6467 7.98061 15.0771 8.2052 14.6842 8.2052C14.2427 8.2052 13.6699 7.97786 13.0065 7.71467C12.1194 7.36258 11.1139 6.96362 10.0494 6.96362C10.024 6.96362 9.99902 6.9639 9.9744 6.96438C7.49941 7.00079 5.16078 8.41675 3.87147 10.6592Z" fill="black"/>
<path d="M20.1673 0.000182694C18.6685 0.0612253 16.8706 0.983806 15.796 2.2425C14.8827 3.30048 13.9906 5.06444 14.2256 6.84247C14.2404 6.95372 14.3309 7.03958 14.4428 7.04823C14.544 7.05612 14.6472 7.06011 14.7501 7.06021C16.2156 7.06021 17.7965 6.24944 18.8762 4.94397C20.0125 3.56547 20.5871 1.79638 20.4133 0.21174C20.3996 0.087563 20.2903 -0.00466649 20.1673 0.000182694Z" fill="black"/>
</svg>
