<svg width="237" height="127" viewBox="0 0 237 127" fill="none" xmlns="http://www.w3.org/2000/svg">
<g clip-path="url(#clip0)">
<path opacity="0.3" d="M226.291 126.817L15.7625 126.755C15.7625 126.755 8.87865 117.08 4.20998 102.259C4.05215 101.762 3.89751 101.257 3.74685 100.747C2.03386 94.9929 0.684357 88.5193 0.19812 81.5716C0.163047 81.0713 0.131163 80.5669 0.105655 80.0601C-0.175725 74.6096 0.0857274 68.8841 1.12197 63.0003C1.13791 62.9092 1.15465 62.8173 1.17139 62.727C1.26226 62.2186 1.35792 61.7134 1.45676 61.2147C2.85728 54.1895 5.0573 48.1331 8.064 43.0222C8.34698 42.5411 8.63713 42.0695 8.93365 41.6051C18.4137 26.7993 35.1626 20.4967 59.3588 22.1138C77.6214 23.3343 94.0347 23.5086 114.249 11.2239C121.827 6.61823 139.19 0.132588 153.423 0.00309843C187.165 -0.303839 224.809 22.2121 219.647 59.3051C219.621 59.4929 219.594 59.6824 219.564 59.8718C219.458 60.5856 219.335 61.305 219.194 62.0308C218.884 63.6406 218.672 65.3295 218.014 66.945C204.387 100.391 243.636 97.422 226.291 126.817Z" fill="#D2F1FF"/>
<path opacity="0.5" d="M136.59 36.1523H99.8027V123.947H136.59V36.1523Z" fill="white"/>
<path d="M126.734 104.615L126.707 105.976L126.353 123.266L126.338 123.912H124.552L124.537 123.286L124.133 105.976L124.102 104.615H126.734Z" fill="#D0DCF9"/>
<path d="M131.247 105.974H119.588C118.913 105.974 118.367 105.427 118.367 104.751V104.617H132.467V104.751C132.467 105.426 131.921 105.974 131.247 105.974Z" fill="#D0DCF9"/>
<path d="M133.783 104.617H118.024C117.374 104.617 116.842 104.084 116.842 103.432V102.148C116.842 101.496 117.373 100.963 118.024 100.963H133.783C134.433 100.963 134.965 101.496 134.965 102.148V103.432C134.965 104.084 134.433 104.617 133.783 104.617Z" fill="#EBD6CB"/>
<path d="M133.883 103.727H123.541C122.891 103.727 122.359 103.194 122.359 102.542V77.5545C122.359 76.9023 122.891 76.3691 123.541 76.3691H133.883C134.534 76.3691 135.065 76.9023 135.065 77.5545V102.543C135.065 103.194 134.534 103.727 133.883 103.727Z" fill="#EBD6CB"/>
<path d="M117.256 87.4961C117.256 87.4961 110.586 94.2319 110.727 94.658C110.868 95.084 110.994 95.6108 111.81 95.8434C111.81 95.8434 114.429 95.7155 116.366 94.4605C118.302 93.2056 117.256 87.4961 117.256 87.4961Z" fill="#AEBBD2"/>
<path d="M127.182 98.2978C127.182 98.2978 127.182 103.536 123.931 104.122C123.858 104.134 123.785 104.146 123.7 104.158C123.506 104.183 123.299 104.207 123.067 104.219C123.067 104.219 123.067 104.219 123.055 104.219C119.987 104.365 114.131 103.279 112.086 103.608C111.574 103.694 111.306 103.865 111.355 104.158C111.987 107.308 107.799 121.507 107.069 123.912L102.584 123.921C102.609 123.275 103.562 101.618 104.731 99.4816C105.072 98.8469 106.423 98.1139 108.152 97.3938C109.175 96.9661 110.331 96.5513 111.488 96.1484C111.901 96.0141 112.328 95.8679 112.742 95.7336C113.436 95.5138 114.117 95.3059 114.763 95.0989C115.104 95.0014 115.445 94.9031 115.762 94.8056C117.649 94.2564 119.012 93.9023 119.012 93.9023L122.057 95.5385L122.349 95.6976L123.311 96.21L124.565 96.8934L124.979 97.1132L126.026 97.6751L127.182 98.2978Z" fill="#AEBBD2"/>
<path d="M128.562 103.686C127.218 103.931 125.384 104.017 123.699 104.15C123.697 104.15 123.695 104.15 123.694 104.151C123.481 104.167 123.271 104.184 123.066 104.204H123.058C120.948 104.397 119.22 104.711 119.238 105.594C119.348 110.582 117.2 120.686 116.481 123.915H111.051C111.133 120.802 111.462 109.584 112.08 103.599C112.271 101.746 112.49 100.393 112.737 99.9384C113.205 99.0791 115.425 98.2254 117.938 97.5076C118.038 97.4789 118.139 97.4501 118.24 97.4221C119.478 97.0768 120.772 96.7651 121.951 96.5029C122.1 96.4693 122.247 96.4366 122.39 96.4054C122.556 96.3702 122.719 96.3343 122.878 96.2999C123.023 96.2695 123.165 96.2399 123.303 96.2112C125.046 95.8475 126.296 95.6309 126.296 95.6309L127.044 95.6844L128.957 95.8211L130.433 95.9266C130.433 95.9266 130.532 96.439 130.614 97.2015C130.841 99.2885 130.943 103.252 128.562 103.686Z" fill="#B3C0DE"/>
<path d="M121.77 76.2265C122.765 76.559 123.663 76.4423 124.412 76.1497C125.097 75.8836 125.654 75.4695 126.042 75.1202C126.44 74.7613 126.661 74.4704 126.661 74.4704C126.661 74.4704 126.623 74.4304 126.556 74.3505C126.209 73.9308 125.115 72.3977 125.041 69.6561C125.04 69.6201 124.783 69.7137 124.398 69.8743C123.254 70.3531 120.972 71.4282 120.871 71.4761C120.869 71.4761 120.867 71.4769 120.867 71.4769C120.867 71.4769 120.93 72.0461 120.997 73.0732C121.003 73.1635 121.01 73.2586 121.016 73.3561C121.023 73.4768 121.032 73.6047 121.039 73.7358C121.099 74.8045 121.77 76.2265 121.77 76.2265Z" fill="#F7E2D8"/>
<path d="M120.997 73.0731C122.842 73.189 125.063 70.1204 125.063 70.1204C124.846 70.0077 124.623 69.927 124.398 69.875C123.254 70.3538 120.972 71.4289 120.871 71.4768C120.869 71.4768 120.867 71.4776 120.867 71.4776C120.867 71.4776 120.93 72.046 120.997 73.0731Z" fill="#E8D6D1"/>
<path d="M120.112 71.4535C120.112 71.4535 120.886 71.5957 121.839 71.5678C123.231 71.5278 125.006 71.1233 125.298 69.3776C125.789 66.4385 126.728 64.5705 123.751 63.8943C122.158 63.5322 121.197 63.6577 120.586 63.9966C120.055 64.29 119.788 64.7448 119.601 65.1828C119.199 66.1236 118.904 71.1521 120.112 71.4535Z" fill="#F7E2D8"/>
<path d="M120.676 61.9185C119.464 62.1183 118.189 63.3685 119.044 64.2517C119.63 64.8568 120.435 65.3396 122.04 65.3444C122.809 65.3468 123.1 66.6856 123.173 67.0541C123.247 67.4234 123.346 67.7279 124.253 67.3507C124.401 67.2891 124.514 67.2811 124.598 67.3147C125.027 67.4825 124.712 68.6927 124.601 68.9613C124.601 68.9613 124.517 69.8046 125.062 70.1187C125.128 70.1562 126.141 70.4144 127.846 66.5434C128.114 65.9359 128.253 64.6434 127.506 63.5443C126.759 62.4461 124.501 61.2887 120.676 61.9185Z" fill="#F0CBB7"/>
<path d="M130.768 94.8842C130.784 95.6963 130.804 96.4189 130.827 96.988C130.862 97.8297 121.991 97.7777 119.533 97.5723C118.734 97.5051 116.586 96.4109 114.773 95.0616C113.827 94.3582 116.599 82.9073 116.644 79.9754C116.676 77.8716 116.689 74.6048 120.974 73.8542C121.012 73.8486 121.032 73.8454 121.032 73.8454C121.464 74.0892 122.178 75.1603 122.39 75.2482L125.81 73.4434C125.873 73.4545 125.932 73.4689 125.994 73.4817C126.195 73.4386 130.077 73.9229 131.173 75.062C132.108 76.0347 130.604 81.8338 130.604 81.8338C130.638 82.6555 130.658 83.5611 130.671 84.5131C130.681 85.3092 130.687 86.1381 130.691 86.9774C130.701 89.225 130.72 92.4511 130.768 94.8842Z" fill="#B3C2E0"/>
<path d="M125.55 72.4982C125.534 72.5037 122.391 75.2478 122.391 75.2478C122.391 75.2478 126.32 74.3342 126.756 73.5461C126.755 73.5453 126.177 72.2887 125.55 72.4982Z" fill="#B3C2E0"/>
<path d="M122.391 75.2466L120.98 72.8223C120.98 72.8223 120.354 73.2571 120.273 74.034C120.273 74.0348 121.873 75.2466 122.391 75.2466Z" fill="#B3C2E0"/>
<path d="M121.223 96.1226C121.223 96.1226 119.992 96.2689 118.868 96.7565C118.342 96.9843 117.978 97.4623 117.71 97.7772C116.874 98.7652 118.761 98.4934 119.746 98.296C120.732 98.0985 120.879 98.3951 122.028 97.8683C122.389 97.7029 122.388 97.4623 122.586 97.3008C123.021 96.9459 123.391 96.7165 123.391 96.7165L122.258 95.7949L121.223 96.1226Z" fill="#F7E2D8"/>
<path d="M121.693 96.124C121.693 96.124 121.011 96.0585 120.47 96.0417C119.929 96.0249 119.156 95.9921 119.452 96.2064C119.748 96.4206 120.24 96.634 120.323 96.618C120.405 96.602 121.693 96.124 121.693 96.124Z" fill="#F7E2D8"/>
<path d="M130.769 94.883C129.287 95.7343 126.061 97.3913 122.588 97.3002L122.26 95.7943C122.26 95.7943 128.694 88.881 128.957 83.0859L130.672 84.5119C130.681 85.308 130.688 86.1369 130.692 86.9762C130.702 89.2239 130.721 92.4499 130.769 94.883Z" fill="#AEBBD2"/>
<path d="M131.417 75.6191C131.417 75.6191 134.03 87.9742 133.341 90.7398C132.651 93.5054 123.409 97.4069 123.409 97.4069C123.409 97.4069 121.472 97.2095 121.965 95.6292C121.965 95.6292 129.352 88.9134 129.254 88.0245C129.155 87.1357 126.693 78.2465 126.693 78.2465L131.417 75.6191Z" fill="#B3C2E0"/>
<path d="M110.8 94.8711C110.8 94.8711 108.765 96.353 108.47 96.7807C108.174 97.2083 107.78 98.229 108.109 98.3937C108.437 98.5583 109.356 97.357 109.898 97.11C110.44 96.863 109.849 97.7766 110.021 97.8757C110.193 97.9748 110.981 97.2339 111.104 96.9373C111.227 96.6408 111.67 95.8015 111.67 95.8015C111.67 95.8015 111.039 95.4474 110.8 94.8711Z" fill="#F7E2D8"/>
<path d="M139.433 126.779H96.9785V34.4238H139.433V126.779ZM99.8346 123.914H136.577V37.2878H99.8346V123.914Z" fill="#FF9843"/>
<path opacity="0.1" d="M99.8027 87.4758L136.59 60.0625V123.946H99.8027V87.4758Z" fill="#94B0ED"/>
<path d="M117.236 35.7115C117.236 35.2391 117.618 34.8555 118.09 34.8555C118.561 34.8555 118.944 35.2383 118.944 35.7115C118.944 36.1839 118.562 36.5676 118.09 36.5676C117.618 36.5676 117.236 36.1839 117.236 35.7115Z" fill="#F9DDBF"/>
<path d="M97.6855 35.86C97.6855 35.3876 98.0674 35.0039 98.5392 35.0039C99.0111 35.0039 99.393 35.3868 99.393 35.86C99.393 36.3324 99.0111 36.716 98.5392 36.716C98.0674 36.716 97.6855 36.3324 97.6855 35.86Z" fill="#F9DDBF"/>
<path d="M138.117 36.6672C138.589 36.6672 138.971 36.2839 138.971 35.8111C138.971 35.3384 138.589 34.9551 138.117 34.9551C137.646 34.9551 137.264 35.3384 137.264 35.8111C137.264 36.2839 137.646 36.6672 138.117 36.6672Z" fill="#F9DDBF"/>
<path d="M137.264 60.9635C137.264 60.4911 137.645 60.1074 138.117 60.1074C138.588 60.1074 138.971 60.4903 138.971 60.9635C138.971 61.4359 138.589 61.8196 138.117 61.8196C137.646 61.8196 137.264 61.4359 137.264 60.9635Z" fill="#F9DDBF"/>
<path d="M138.117 84.8567C138.589 84.8567 138.971 84.4734 138.971 84.0006C138.971 83.5278 138.589 83.1445 138.117 83.1445C137.646 83.1445 137.264 83.5278 137.264 84.0006C137.264 84.4734 137.646 84.8567 138.117 84.8567Z" fill="#F9DDBF"/>
<path d="M98.6726 62.1488C99.1082 61.9678 99.3151 61.467 99.1347 61.0302C98.9542 60.5934 98.4548 60.386 98.0192 60.5669C97.5836 60.7479 97.3767 61.2486 97.5572 61.6855C97.7376 62.1223 98.237 62.3297 98.6726 62.1488Z" fill="#F9DDBF"/>
<path d="M207.874 125.858L204.279 112.543H207.08L209.099 125.787C209.143 126.076 208.95 126.341 208.696 126.341H208.442C208.181 126.341 207.952 126.145 207.874 125.858Z" fill="#AEC3FF"/>
<path d="M167.679 125.858L171.274 112.543H168.473L166.454 125.787C166.41 126.076 166.603 126.341 166.857 126.341H167.111C167.371 126.341 167.601 126.145 167.679 125.858Z" fill="#AEC3FF"/>
<path d="M189.555 125.858L185.961 112.543H188.762L190.781 125.787C190.825 126.076 190.632 126.341 190.378 126.341H190.124C189.864 126.341 189.633 126.145 189.555 125.858Z" fill="#AEC3FF"/>
<path d="M210.163 80.8783C210.163 80.8783 202.726 79.2493 188.375 80.8783L186.729 97.6535L206.431 96.6767L210.163 80.8783Z" fill="#DB6A1D"/>
<path d="M165.791 106.162C165.791 106.162 164.38 91.1481 170.823 91.1481C177.266 91.1481 178.551 91.0754 177.972 85.1181C177.372 78.9449 188.022 81.0671 188.022 81.0671L184.283 106.162H165.791Z" fill="#F99746"/>
<path d="M169.477 106.162C169.477 106.162 168.065 91.1476 174.508 91.1476C180.951 91.1476 182.879 90.1293 183.775 84.2111C184.37 80.2841 191.045 80.5998 191.045 80.5998C191.045 80.5998 189.51 84.9225 188.517 92.0756C187.912 96.4422 187.969 106.162 187.969 106.162H169.477Z" fill="#ED7D2B"/>
<path d="M187.774 113.456H207.628C208.442 113.456 209.108 112.788 209.108 111.972V106.162H186.254V111.931C186.254 112.77 186.938 113.456 187.774 113.456Z" fill="#ED7D2B"/>
<path d="M167.362 113.456H188.593C189.432 113.456 190.119 112.767 190.119 111.925V106.162H165.793V111.883C165.793 112.748 166.499 113.456 167.362 113.456Z" fill="#F99746"/>
<path d="M169.472 106.162C169.472 106.162 169.279 104.695 170.205 104.024C172.534 102.338 183.416 99.9517 188.457 99.6631C197.001 99.1748 195.434 106.162 195.434 106.162H169.472Z" fill="#DB6A1D"/>
<path d="M186.388 106.162C186.388 106.162 184.939 91.1475 191.557 91.1475C198.175 91.1475 202.068 91.7534 200.693 84.251C199.876 79.7949 203.015 79.846 209.282 80.3624C210.054 80.4263 211.334 81.451 211.152 82.2064L205.384 106.162H186.388Z" fill="#F99746"/>
<path d="M190.119 106.161C190.119 106.161 188.687 90.6626 195.288 91.147C203.607 91.7577 205.27 92.0822 203.662 84.862C202.521 79.7424 205.95 79.9151 210.266 80.4762C210.861 80.5537 211.512 81.0045 211.377 81.879L209.115 106.161H190.119V106.161Z" fill="#ED7D2B"/>
<path d="M188.974 113.922C188.974 113.922 187.08 113.879 186.726 115.371L186.221 113.455H188.923L188.974 113.922Z" fill="#8FADEF"/>
<path d="M207.294 113.932C207.294 113.932 205.396 113.868 205.042 115.361L204.523 113.451H207.226L207.294 113.932Z" fill="#8FADEF"/>
<path d="M168.291 113.719C168.291 113.719 170.51 113.652 170.601 115.026L171.025 113.455H168.331L168.291 113.719Z" fill="#8FADEF"/>
<path d="M160.443 28.3828H147.913C147.337 28.3828 146.867 27.9112 146.867 27.3341V15.2069C146.867 14.6298 147.337 14.1582 147.913 14.1582H160.443C161.018 14.1582 161.489 14.6298 161.489 15.2069V27.3341C161.489 27.9104 161.018 28.3828 160.443 28.3828Z" fill="#C0D8FB"/>
<path d="M159.901 27.7674H148.457C147.932 27.7674 147.502 27.3366 147.502 26.8099V15.733C147.502 15.2062 147.932 14.7754 148.457 14.7754H159.901C160.426 14.7754 160.856 15.2062 160.856 15.733V26.8091C160.857 27.3358 160.426 27.7674 159.901 27.7674Z" fill="#DFEBFD"/>
<path d="M153.875 16.0733C153.875 15.9054 154.01 15.7695 154.178 15.7695C154.345 15.7695 154.481 15.9054 154.481 16.0733C154.481 16.2411 154.345 16.377 154.178 16.377C154.01 16.377 153.875 16.2411 153.875 16.0733Z" fill="#B7D3F3"/>
<path d="M156.319 16.5022C156.401 16.3559 156.585 16.3023 156.732 16.3839C156.877 16.4654 156.931 16.65 156.85 16.7971C156.768 16.9434 156.584 16.9969 156.437 16.9154C156.291 16.8339 156.238 16.6484 156.319 16.5022Z" fill="#B7D3F3"/>
<path d="M158.412 18.1697C158.552 18.0786 158.74 18.1194 158.83 18.26C158.921 18.4007 158.881 18.5894 158.74 18.6797C158.6 18.7708 158.412 18.73 158.322 18.5894C158.231 18.4487 158.272 18.26 158.412 18.1697Z" fill="#B7D3F3"/>
<path d="M159.449 21.3594C159.617 21.3594 159.752 21.2234 159.752 21.0557C159.752 20.8879 159.617 20.752 159.449 20.752C159.282 20.752 159.146 20.8879 159.146 21.0557C159.146 21.2234 159.282 21.3594 159.449 21.3594Z" fill="#B7D3F3"/>
<path d="M158.921 23.7489C159.039 23.8672 159.039 24.0598 158.921 24.1781C158.803 24.2964 158.611 24.2964 158.493 24.1781C158.375 24.0598 158.375 23.8672 158.493 23.7489C158.611 23.6306 158.803 23.6306 158.921 23.7489Z" fill="#B7D3F3"/>
<path d="M157.018 25.6616C157.136 25.7799 157.136 25.9725 157.018 26.0908C156.901 26.2091 156.708 26.2091 156.59 26.0908C156.472 25.9725 156.472 25.7799 156.59 25.6616C156.708 25.5425 156.901 25.5425 157.018 25.6616Z" fill="#B7D3F3"/>
<path d="M153.875 26.6475C153.875 26.4796 154.01 26.3438 154.178 26.3438C154.345 26.3438 154.481 26.4796 154.481 26.6475C154.481 26.8153 154.345 26.9512 154.178 26.9512C154.01 26.9512 153.875 26.8145 153.875 26.6475Z" fill="#B7D3F3"/>
<path d="M152.025 16.5022C151.944 16.3559 151.76 16.3023 151.613 16.3839C151.467 16.4654 151.414 16.65 151.495 16.7971C151.576 16.9434 151.761 16.9969 151.907 16.9154C152.054 16.8339 152.106 16.6484 152.025 16.5022Z" fill="#B7D3F3"/>
<path d="M149.932 18.1697C149.792 18.0786 149.603 18.1194 149.513 18.26C149.422 18.4007 149.463 18.5894 149.603 18.6797C149.744 18.7708 149.932 18.73 150.022 18.5894C150.114 18.4487 150.073 18.26 149.932 18.1697Z" fill="#B7D3F3"/>
<path d="M148.895 20.752C148.727 20.752 148.592 20.8878 148.592 21.0557C148.592 21.2235 148.727 21.3594 148.895 21.3594C149.062 21.3594 149.198 21.2235 149.198 21.0557C149.198 20.8878 149.062 20.752 148.895 20.752Z" fill="#B7D3F3"/>
<path d="M149.424 23.7489C149.306 23.8672 149.306 24.0598 149.424 24.1781C149.542 24.2964 149.735 24.2964 149.852 24.1781C149.97 24.0598 149.97 23.8672 149.852 23.7489C149.735 23.6306 149.542 23.6306 149.424 23.7489Z" fill="#B7D3F3"/>
<path d="M151.541 26.1778C151.709 26.1778 151.844 26.0418 151.844 25.8741C151.844 25.7063 151.709 25.5703 151.541 25.5703C151.374 25.5703 151.238 25.7063 151.238 25.8741C151.238 26.0418 151.374 26.1778 151.541 26.1778Z" fill="#B7D3F3"/>
<path d="M154.096 21.0557C154.096 20.8878 154.231 20.752 154.399 20.752C154.566 20.752 154.701 20.8878 154.701 21.0557C154.701 21.2235 154.566 21.3594 154.399 21.3594C154.231 21.3594 154.096 21.2235 154.096 21.0557Z" fill="#B7D3F3"/>
<path d="M154.44 17.2617H154.357V21.0561H154.44V17.2617Z" fill="#B7D3F3"/>
<path d="M156.291 19.3683L154.285 20.9473L154.438 21.1428L156.444 19.5639L156.291 19.3683Z" fill="#B7D3F3"/>
<path d="M111.557 12.7988V13.5102V13.6485V14.2424C111.557 14.2584 111.557 14.28 111.557 14.2959C111.557 14.5965 111.557 14.8818 111.557 15.1752C111.556 16.6164 111.549 17.98 111.54 19.2125C111.54 19.2365 111.54 19.2581 111.539 19.2829C111.539 19.4036 111.538 19.5243 111.537 19.6426C111.526 20.8887 111.512 21.9886 111.496 22.8798C111.496 22.8886 111.495 22.8974 111.496 22.9054C111.494 22.9605 111.493 23.0149 111.492 23.0684C111.463 24.4976 111.428 25.3481 111.39 25.3481H111.366C111.328 25.3481 111.294 24.536 111.265 23.1651C111.265 23.0796 111.262 22.9901 111.261 22.8998C111.261 22.8926 111.261 22.8862 111.261 22.879C111.245 22.0685 111.232 21.0853 111.222 19.9783C111.221 19.7449 111.218 19.5091 111.217 19.2653C111.217 19.2477 111.217 19.2309 111.217 19.2133C111.21 18.3405 111.204 17.4021 111.201 16.4173C111.201 15.9913 111.2 15.5573 111.2 15.1096C111.2 15.0913 111.2 15.0641 111.2 15.0393C111.2 15.0281 111.2 15.0241 111.2 15.0137C111.199 14.7635 111.199 14.5054 111.199 14.2432V13.6141V13.511V13.0011L111.557 12.7988Z" fill="#9FC1F4"/>
<path d="M111.379 22.877C108.003 22.877 105.266 25.7793 105.266 29.3594H117.493C117.493 25.7793 114.756 22.877 111.379 22.877Z" fill="#FF9843"/>
<path d="M111.866 22.9568C111.691 22.9184 111.511 22.8984 111.329 22.8984C109.129 22.8984 107.346 25.792 107.346 29.3609H108.419C108.419 26.0869 109.92 23.382 111.866 22.9568Z" fill="#FFC48A"/>
<g opacity="0.7">
<g opacity="0.7">
<g opacity="0.7">
<path opacity="0.7" d="M170.824 51.5974C170.824 51.5974 168.632 49.0332 170.689 47.405C170.689 47.405 172.191 46.4929 173.416 46.5673C173.416 46.5673 171.68 49.4856 172.242 49.7757C172.803 50.0659 173.942 46.3842 173.942 46.3842C173.942 46.3842 177.36 46.0517 178.46 46.5817C178.46 46.5817 175.538 48.9796 176.153 49.1227C176.768 49.2658 179.925 46.9118 179.925 46.9118C179.925 46.9118 183.106 47.4545 182.937 49.4008C182.767 51.3472 181.671 51.9483 181.189 51.8963C180.708 51.8444 177.889 50.7653 177.828 51.1617C177.766 51.5574 179.463 52.8515 180.651 52.9122C180.651 52.9122 178.408 55.3925 176.917 54.6771C175.427 53.9609 175.299 52.8267 174.37 52.4007C173.44 51.9754 172.647 51.9762 173.031 52.4103C173.414 52.8443 175.096 53.2663 175.628 54.2087C176.159 55.1511 176.636 55.7874 175.094 55.554C173.551 55.3214 171.044 54.1895 170.934 52.8939C170.824 51.5974 170.824 51.5974 170.824 51.5974Z" fill="#77A4E5"/>
<g opacity="0.7">
<path opacity="0.7" d="M181.376 49.4526C181.376 49.4526 172.734 49.1184 170.826 51.5971C170.826 51.5971 170.404 52.8648 169.105 54.0191L168.902 54.5722C168.902 54.5722 170.4 52.9887 170.936 52.8928C170.936 52.8928 170.098 49.8226 181.376 49.4526Z" fill="#77A4E5"/>
<path opacity="0.7" d="M169.104 54.019C169.104 54.019 167.249 55.3946 167.121 57.8525L167.457 57.8829C167.457 57.8829 168.05 55.3419 169.121 54.3475C170.191 53.3532 169.104 54.019 169.104 54.019Z" fill="#77A4E5"/>
</g>
</g>
<g opacity="0.7">
<path opacity="0.7" d="M163.163 48.3741C163.163 48.3741 166.65 46.4166 165.023 43.7597C165.023 43.7597 163.721 42.1283 162.327 41.7086C162.327 41.7086 163.071 45.6708 162.327 45.7643C161.583 45.8579 161.815 41.2898 161.815 41.2898C161.815 41.2898 158.143 39.5185 156.702 39.6584C156.702 39.6584 158.98 43.5271 158.236 43.4343C157.492 43.3408 154.935 39.4258 154.935 39.4258C154.935 39.4258 151.17 38.7264 150.566 40.9637C149.961 43.2009 150.938 44.32 151.495 44.4599C152.053 44.5997 155.632 44.5534 155.54 45.0194C155.446 45.4854 153.029 46.2311 151.682 45.8115C151.682 45.8115 153.169 49.4939 155.121 49.3077C157.073 49.1215 157.678 47.9089 158.887 47.8162C160.095 47.7227 160.978 48.0496 160.374 48.3757C159.77 48.7018 157.724 48.4828 156.748 49.3149C155.772 50.147 154.982 50.6601 156.794 51.0326C158.607 51.4051 161.861 51.1725 162.512 49.7737C163.163 48.3741 163.163 48.3741 163.163 48.3741Z" fill="#77A4E5"/>
<g opacity="0.7">
<path opacity="0.7" d="M152.285 41.6621C152.285 41.6621 162.047 44.8322 163.163 48.3748C163.163 48.3748 163.116 49.9598 164.092 51.7775V52.4769C164.092 52.4769 163.069 50.0997 162.511 49.7736C162.511 49.7736 164.696 46.697 152.285 41.6621Z" fill="#77A4E5"/>
<path opacity="0.7" d="M164.091 51.7768C164.091 51.7768 165.597 54.0693 164.738 56.8597L164.351 56.755C164.351 56.755 164.727 53.6816 163.94 52.1357C163.152 50.5906 164.091 51.7768 164.091 51.7768Z" fill="#77A4E5"/>
</g>
</g>
<g opacity="0.7">
<path opacity="0.7" d="M168.709 45.6736C168.709 45.6736 164.113 43.0927 166.258 39.5909C166.258 39.5909 167.973 37.4399 169.811 36.8876C169.811 36.8876 168.831 42.1103 169.811 42.2334C170.792 42.3565 170.485 36.3344 170.485 36.3344C170.485 36.3344 175.326 33.9996 177.226 34.1835C177.226 34.1835 174.223 39.2831 175.204 39.1608C176.184 39.0377 179.554 33.8765 179.554 33.8765C179.554 33.8765 184.518 32.9549 185.314 35.9044C186.11 38.8539 184.824 40.3286 184.089 40.5125C183.354 40.6971 178.635 40.6356 178.758 41.2494C178.881 41.8641 182.067 42.8473 183.843 42.2941C183.843 42.2941 181.883 47.1484 179.309 46.9022C176.735 46.6568 175.938 45.059 174.345 44.9359C172.752 44.8128 171.588 45.2428 172.384 45.6728C173.18 46.1029 175.877 45.8135 177.164 46.911C178.45 48.0077 179.492 48.6839 177.102 49.1754C174.713 49.667 170.423 49.3601 169.566 47.5161C168.709 45.6736 168.709 45.6736 168.709 45.6736Z" fill="#9FC1F4"/>
<g opacity="0.7">
<path opacity="0.7" d="M183.047 36.8262C183.047 36.8262 170.179 41.0042 168.708 45.6746C168.708 45.6746 168.77 47.764 167.482 50.1603V51.082C167.482 51.082 168.83 47.9478 169.566 47.5178C169.566 47.517 166.686 43.4621 183.047 36.8262Z" fill="#9FC1F4"/>
<path opacity="0.7" d="M167.483 50.1596C167.483 50.1596 165.498 53.181 166.63 56.8595L167.141 56.722C167.141 56.722 166.645 52.6703 167.684 50.6328C168.722 48.5954 167.483 50.1596 167.483 50.1596Z" fill="#9FC1F4"/>
</g>
</g>
<path opacity="0.7" d="M168.554 64.836C173.526 64.836 177.557 60.7947 177.557 55.8086H159.553C159.552 60.7939 163.582 64.836 168.554 64.836Z" fill="#9FC1F4"/>
<path opacity="0.7" d="M170.77 64.7665C170.405 64.8121 170.031 64.836 169.652 64.836C164.681 64.836 160.65 60.7939 160.65 55.8086H162.887C162.886 60.4142 166.327 64.2142 170.77 64.7665Z" fill="#AFCDFB"/>
<path opacity="0.7" d="M177.761 55.8086H159.256V56.0852H177.761V55.8086Z" fill="#9FC1F4"/>
</g>
<path opacity="0.7" d="M171.172 64.3945H165.453V65.2977H171.172V64.3945Z" fill="#9FC1F4"/>
</g>
<path d="M8.93215 41.6055C8.63562 42.0699 8.34547 42.5415 8.0625 43.0227H37.6345V125.884H38.9968V41.6055H8.93215Z" fill="#94B0ED"/>
<path d="M38.6094 61.2168V62.7291H1.16992C1.26079 62.2207 1.35645 61.7156 1.45529 61.2168H38.6094Z" fill="#94B0ED"/>
<path d="M38.6107 80.0605V81.572H0.197934C0.162861 81.0717 0.130976 80.5673 0.105469 80.0605H38.6107Z" fill="#94B0ED"/>
<path d="M38.6101 100.748V102.26H4.20922C4.05139 101.762 3.89675 101.258 3.74609 100.748H38.6101Z" fill="#94B0ED"/>
<path d="M33.3176 61.2342H30V51.568C30 50.7456 30.6648 50.0781 31.4858 50.0781H31.8325C32.6528 50.0781 33.3184 50.7448 33.3184 51.568V61.2342H33.3176Z" fill="#2B478B"/>
<path d="M32.687 55.5313H30.707V49.7619C30.707 49.2711 31.104 48.873 31.5934 48.873H31.7999C32.2893 48.873 32.6862 49.2711 32.6862 49.7619V55.5313H32.687Z" fill="#2B478B"/>
<path d="M28.4818 61.2336H26.2148V54.6289C26.2148 54.0669 26.6692 53.6113 27.2296 53.6113H27.4663C28.0267 53.6113 28.481 54.0669 28.481 54.6289V61.2336H28.4818Z" fill="#F99746"/>
<path d="M28.0519 57.338H26.6992V53.3965C26.6992 53.0608 26.9702 52.7891 27.305 52.7891H27.4461C27.7809 52.7891 28.0519 53.0608 28.0519 53.3965V57.338Z" fill="#F99746"/>
<path d="M25.0549 60.0242V60.9234C25.0549 61.0945 24.917 61.2327 24.7464 61.2327H21.3085C21.1379 61.2327 21 61.0945 21 60.9234V60.0242C21 59.8531 21.1379 59.7148 21.3085 59.7148H24.7464C24.9178 59.7148 25.0549 59.8531 25.0549 60.0242Z" fill="#ED7D2B"/>
<path d="M25.0549 60.0242V60.4742H21V60.0242C21 59.8531 21.1379 59.7148 21.3085 59.7148H24.7464C24.9178 59.7148 25.0549 59.8531 25.0549 60.0242Z" fill="#F99746"/>
<path d="M17.1535 61.2342H13.8359V51.568C13.8359 50.7456 14.5007 50.0781 15.3217 50.0781H15.6685C16.4887 50.0781 17.1543 50.7448 17.1543 51.568V61.2342H17.1535Z" fill="#2B478B"/>
<path d="M16.523 55.5313H14.543V49.7619C14.543 49.2711 14.9399 48.873 15.4294 48.873H15.6358C16.1252 48.873 16.5222 49.2711 16.5222 49.7619V55.5313H16.523Z" fill="#2B478B"/>
<path d="M12.3178 61.2336H10.0508V54.6289C10.0508 54.0669 10.5051 53.6113 11.0655 53.6113H11.3022C11.8626 53.6113 12.317 54.0669 12.317 54.6289V61.2336H12.3178Z" fill="#F99746"/>
<path d="M11.8879 57.338H10.5352V53.3965C10.5352 53.0608 10.8062 52.7891 11.141 52.7891H11.282C11.6168 52.7891 11.8879 53.0608 11.8879 53.3965V57.338Z" fill="#F99746"/>
<path d="M8.89164 60.0242V60.9234C8.89164 61.0945 8.75374 61.2327 8.58315 61.2327H5.14442C4.97384 61.2327 4.83594 61.0945 4.83594 60.9234V60.0242C4.83594 59.8531 4.97384 59.7148 5.14442 59.7148H8.58236C8.75374 59.7148 8.89164 59.8531 8.89164 60.0242Z" fill="#ED7D2B"/>
<path d="M8.89164 60.0242V60.4742H4.83594V60.0242C4.83594 59.8531 4.97384 59.7148 5.14442 59.7148H8.58236C8.75374 59.7148 8.89164 59.8531 8.89164 60.0242Z" fill="#F99746"/>
<path d="M33.6943 78.334H32.0977V80.0717H33.6943V78.334Z" fill="#CC6A27"/>
<path d="M32.0966 78.3349L31.5195 71.8965H34.2369L33.6932 78.3349H32.0966Z" fill="#F99746"/>
<path d="M31.4863 71.4758L31.523 71.8986L34.238 71.8954L34.2435 71.4414C34.2435 71.4414 31.5031 71.4758 31.4863 71.4758Z" fill="#CC6A27"/>
<path d="M30.6454 70.2949H24.7324V80.049H30.6454V70.2949Z" fill="#AEC3FF"/>
<path d="M28.9601 71.5625H24.7402V73.2834H28.9601V71.5625Z" fill="#F99746"/>
<path d="M19.6318 78.334H18.0352V80.0717H19.6318V78.334Z" fill="#CC6A27"/>
<path d="M18.0341 78.3349L17.457 71.8965H20.1744L19.6308 78.3349H18.0341Z" fill="#2B478B"/>
<path d="M17.4238 71.4758L17.4605 71.8986L20.1755 71.8954L20.181 71.4414C20.181 71.4414 17.4406 71.4758 17.4238 71.4758Z" fill="#CC6A27"/>
<path d="M16.5829 70.2949H10.6699V80.049H16.5829V70.2949Z" fill="#AEC3FF"/>
<path d="M14.8976 71.5625H10.6777V73.2834H14.8976V71.5625Z" fill="#2B478B"/>
<path d="M21.5517 98.9902H19.9551V100.728H21.5517V98.9902Z" fill="#CC6A27"/>
<path d="M19.9541 98.99L19.377 92.5508H22.0943L21.5507 98.99H19.9541Z" fill="#F99746"/>
<path d="M19.3438 92.132L19.3804 92.5549L22.0954 92.5517L22.101 92.0977C22.101 92.0977 19.3605 92.132 19.3438 92.132Z" fill="#CC6A27"/>
<path d="M18.5009 90.9492H12.5879V100.703H18.5009V90.9492Z" fill="#AEC3FF"/>
<path d="M16.8156 92.2168H12.5957V93.9377H16.8156V92.2168Z" fill="#F99746"/>
<path d="M33.6943 98.9902H32.0977V100.728H33.6943V98.9902Z" fill="#CC6A27"/>
<path d="M32.0966 98.99L31.5195 92.5508H34.2369L33.6932 98.99H32.0966Z" fill="#F99746"/>
<path d="M31.4863 92.132L31.523 92.5549L34.238 92.5517L34.2435 92.0977C34.2435 92.0977 31.5031 92.132 31.4863 92.132Z" fill="#CC6A27"/>
<path d="M30.6454 90.9492H24.7324V100.703H30.6454V90.9492Z" fill="#AEC3FF"/>
<path d="M28.9601 92.2168H24.7402V93.9377H28.9601V92.2168Z" fill="#F99746"/>
<path d="M183.437 65.0117H155.104V66.7598H183.437V65.0117Z" fill="#C0D4FF"/>
<path d="M98.0508 122.282C98.0508 122.282 98.2939 126.076 99.0256 126.129C99.1229 126.137 102.739 126.129 102.739 126.129L107.354 126.092C107.354 126.092 107.321 124.977 105.972 124.744C104.622 124.512 102.362 123.565 101.541 121.78C100.677 119.899 98.0508 122.282 98.0508 122.282Z" fill="#0E2C4F"/>
<path d="M84.8398 91.0762C84.6637 91.2248 79.9623 96.3325 80.3465 100.256C80.4589 101.407 81.4489 102.274 82.604 102.274L92.6818 96.856C92.6818 96.856 94.1732 103.321 94.3127 104.587C94.4522 105.853 95.6479 112.678 98.0169 122.377C98.0169 122.377 99.7625 122.98 100.822 122.55C102.222 121.981 102.426 121.377 102.426 121.377C102.426 121.377 101.013 99.6584 99.8988 98.1301C98.7837 96.6018 87.2973 92.0577 83.578 91.6053C79.8579 91.1521 84.8398 91.0762 84.8398 91.0762Z" fill="#163560"/>
<path d="M106.141 122.282C106.141 122.282 106.384 126.076 107.115 126.129C107.213 126.137 110.828 126.129 110.828 126.129L115.444 126.092C115.444 126.092 115.411 124.977 114.061 124.744C112.712 124.512 110.451 123.565 109.63 121.78C108.767 119.899 106.141 122.282 106.141 122.282Z" fill="#163560"/>
<path d="M80.4974 91.0762C80.3635 91.1889 79.3463 93.9345 78.6672 97.0519C78.0821 99.7352 80.118 102.274 82.8568 102.274H96.1773C96.1773 102.274 102.02 103.321 102.16 104.587C102.299 105.853 103.495 112.678 105.864 122.377C105.864 122.377 107.616 122.839 108.984 122.252C109.711 121.94 110.285 121.192 110.285 121.192C110.285 121.192 108.86 99.6576 107.746 98.1293C106.631 96.601 95.1443 92.0569 91.425 91.6045C87.7056 91.1521 80.4974 91.0762 80.4974 91.0762Z" fill="#2B478B"/>
<path d="M85.8398 71.9094L88.1395 73.6071L91.6197 73.1507C91.587 72.8694 91.4228 71.7008 91.2722 70.6417C91.2626 70.5793 91.2538 70.517 91.245 70.4562C91.2116 70.2212 91.1789 69.9942 91.1494 69.788C91.0665 69.2045 91.0051 68.7817 91.0051 68.7817L90.0302 68.2853L87.8645 67.1814L86.6935 66.5859C86.6951 66.6043 86.7326 67.5795 86.7374 67.7218C86.8243 70.25 85.8398 71.9094 85.8398 71.9094Z" fill="#FFB27D"/>
<path d="M76.0451 84.3458C76.183 79.8153 78.7784 76.0969 79.9119 74.6821C80.6109 73.2545 85.5817 71.5 85.5817 71.5C85.5817 71.5 89.9427 71.9037 92.4089 72.1323C92.4089 72.1323 97.1231 73.0419 98.1434 77.0321C100.616 86.6982 103.253 90.9002 102.601 93.1926C99.8372 102.911 90.2312 102.664 88.4226 100.69C87.4964 99.6807 78.3535 94.2869 78.7202 87.7789C77.1411 87.2665 75.9869 86.245 76.0451 84.3458Z" fill="#2A4E96"/>
<path d="M87.498 68.4122L87.6901 68.4994C87.6901 68.4994 89.482 69.4673 91.1496 69.7879C91.0667 69.2044 91.0053 68.7815 91.0053 68.7815L90.0305 68.2852L87.498 68.4122Z" fill="#EAA16E"/>
<path d="M92.2291 68.6528C92.2291 68.6528 86.957 69.9916 86.1766 66.6865C85.3963 63.3813 84.1894 61.3287 87.523 60.3343C90.8557 59.34 91.8106 60.4454 92.3383 61.4845C92.866 62.5236 93.5802 68.2196 92.2291 68.6528Z" fill="#FFB27D"/>
<path d="M92.1513 61.1601C92.1513 61.1601 91.6148 64.9273 90.8432 64.7203C90.0716 64.5133 89.3702 64.3526 89.4228 65.5004C89.4754 66.6474 90.2215 68.2021 87.8046 68.2724C85.3878 68.3428 82.5326 61.7548 83.2571 60.6126C85.3488 57.3178 95.1325 57.1643 92.1513 61.1601Z" fill="#EA680F"/>
<path d="M91.1124 70.9883C91.0342 70.9691 86.5688 69.7637 86.0945 69.9763C85.6203 70.1889 85.1914 71.6549 85.1914 71.6549L92.8477 72.256C92.8485 72.2552 92.1135 71.2352 91.1124 70.9883Z" fill="#163560"/>
<path d="M99.3544 103H72.6401C71.6254 103 70.8027 102.175 70.8027 101.157V99.959H99.3544V103Z" fill="#77A4E5"/>
<path d="M102.555 102.999H82.3446C81.5945 102.999 80.9863 102.389 80.9863 101.637V101.321C80.9863 100.569 81.5945 99.959 82.3446 99.959H102.555C103.305 99.959 103.914 100.569 103.914 101.321V101.637C103.914 102.389 103.305 102.999 102.555 102.999Z" fill="#F99746"/>
<path d="M85.7306 124.988H84.0073L83.5234 103H86.1563L85.7306 124.988Z" fill="#94B0ED"/>
<path d="M93.2193 124.987H76.4609V123.469L85.002 122.697L93.2193 123.469V124.987Z" fill="#94B0ED"/>
<path d="M76.8307 125.982C77.5119 125.641 77.7887 124.811 77.449 124.128C77.1093 123.445 76.2817 123.168 75.6005 123.508C74.9194 123.849 74.6426 124.679 74.9823 125.362C75.322 126.045 76.1496 126.322 76.8307 125.982Z" fill="#94B0ED"/>
<path d="M94.3078 125.077C94.4827 124.334 94.024 123.59 93.2833 123.415C92.5425 123.239 91.8002 123.699 91.6253 124.442C91.4504 125.185 91.9091 125.929 92.6499 126.105C93.3906 126.28 94.1329 125.82 94.3078 125.077Z" fill="#94B0ED"/>
<path d="M90.6293 104.442H79.045C78.3499 104.442 77.7871 103.877 77.7871 103.181V103H91.8872V103.181C91.8872 103.877 91.3236 104.442 90.6293 104.442Z" fill="#94B0ED"/>
<path d="M73.441 103C72.7164 103 72.1289 102.411 72.1289 101.684V81.4365C72.1289 77.6422 74.6023 74.5664 77.6545 74.5664H90.1492C93.2005 74.5664 95.6747 77.6422 95.6747 81.4365V86.6417V102.999H73.441V103Z" fill="#F99746"/>
<path d="M73.1949 102.999C71.8733 102.999 70.8027 101.925 70.8027 100.6V81.4365C70.8027 77.6422 73.2762 74.5664 76.3283 74.5664H88.823C91.8743 74.5664 94.3485 77.6422 94.3485 81.4365V102.999H73.1949Z" fill="#CC6A27"/>
<path d="M96.3535 90.8457C96.3535 90.8457 96.9553 94.8423 101.419 96.1252L102.424 94.7999L96.3535 90.8457Z" fill="#163560"/>
<path d="M100.049 83.5352L104.416 96.1228C104.416 96.1228 97.8487 94.1125 96.9153 92.374C95.9819 90.6355 95.6758 86.6405 95.6758 86.6405L100.049 83.5352Z" fill="#2A4E96"/>
<path d="M78.8968 61.8343C78.8968 61.8343 80.546 61.1245 81.3679 61.3763C82.1905 61.6281 81.8318 62.3179 81.8605 62.4474C81.8892 62.5769 83.4651 63.0748 83.5599 63.1516C83.6548 63.2283 83.2427 64.4736 82.6337 64.5879C82.0247 64.7022 81.0841 64.2003 80.4368 63.9525C79.7904 63.7047 78.8004 63.3226 78.8004 63.3226L78.7812 61.8535L78.8968 61.8343Z" fill="#FFB27D"/>
<path d="M79.3809 62.6844C79.3809 62.6756 79.3809 62.6668 79.3809 62.6572C79.3889 62.0945 78.9975 61.6053 78.4475 61.4894C76.2817 61.0306 70.6709 59.8388 70.0372 59.675C69.3684 59.5023 62.1099 55.2851 59.937 54.0174C59.5608 53.7976 59.0945 53.8048 58.7246 54.0358L54.2488 56.8278C53.4206 57.3442 53.5426 58.5887 54.4545 58.9332C58.6353 60.5135 67.3748 63.7891 68.8901 64.1479C71.5605 64.7802 76.5185 64.2351 78.3399 64.0001C78.8548 63.9337 79.2677 63.5373 79.3498 63.0233C79.3682 62.917 79.3793 62.8035 79.3809 62.6844Z" fill="#E58638"/>
<path d="M58.1113 122.636C58.1113 122.636 58.2867 125.466 58.8104 126.132H66.8756C66.8245 125.85 66.5966 125.153 65.5882 124.976C64.3136 124.754 62.1806 123.856 61.409 122.166C60.5967 120.39 58.1113 122.636 58.1113 122.636Z" fill="#163560"/>
<path d="M43.7986 122.241C43.7986 122.241 43.1035 125.987 43.7938 126.051C43.8855 126.06 47.1752 126.092 48.0536 126.224C49.4876 126.439 52.0958 126.051 52.0958 126.051C52.3955 126.064 52.4808 125.678 52.3277 125.419C52.1603 125.135 51.8407 124.831 51.2317 124.714C49.9619 124.468 47.8448 123.533 47.1027 121.831C46.3231 120.04 43.7986 122.241 43.7986 122.241Z" fill="#163560"/>
<path d="M61.9044 84.9677C61.9044 84.9677 59.8765 92.084 54.064 104.441C48.2515 116.799 47.8027 122.43 47.8027 122.43L43.7988 122.241C43.7988 122.241 44.1751 107.533 46.9211 101.297C49.6664 95.0607 50.2259 77.9961 50.2259 77.9961L61.9044 84.9677Z" fill="#94B0ED"/>
<path d="M65.1599 78.8457C65.1599 78.8457 65.3217 89.8643 63.4198 103.393C61.5187 116.923 62.1627 122.666 62.1627 122.666L57.6089 122.818C57.6089 122.818 54.8875 109.284 55.6679 102.512C56.4483 95.74 51.9414 79.2749 51.9414 79.2749L65.1599 78.8457Z" fill="#AEC3FF"/>
<path d="M56.1738 53.0595L58.3212 54.6549L61.4252 53.9995C61.3821 53.7157 61.1773 52.5391 60.9908 51.4736C60.9796 51.4105 60.9684 51.3481 60.9573 51.2866C60.7971 50.3802 60.6592 49.6008 60.6592 49.6008L57.7601 48.1517L56.6792 47.6113C56.6824 47.6305 56.7629 48.6177 56.774 48.7615C56.9781 51.3217 56.1738 53.0595 56.1738 53.0595Z" fill="#FFB27D"/>
<path d="M50.0235 80.2049C49.9717 77.3034 50.9346 73.3012 51.6265 67.467C51.9262 64.9428 51.6942 61.3363 52.2275 59.0518C53.1729 55.0089 54.021 52.7013 55.8177 52.1705C56.4817 51.9763 58.9272 52.6126 60.696 53.1273C60.8187 53.1625 60.9407 53.2048 61.0603 53.2544C61.4971 53.4287 61.8933 53.6836 62.2304 54.0026C62.7063 54.4502 63.0642 55.0209 63.2563 55.6675C63.5297 56.5875 63.843 57.7665 64.0973 59.0662C64.3755 60.4754 64.5835 62.0245 64.5971 63.5408C64.613 65.1146 64.825 67.4398 65.065 69.8849C65.0921 70.1567 65.1192 70.4293 65.1463 70.7034C65.1654 70.8929 65.4667 77.1307 65.5544 78.8029C65.5552 78.8261 65.556 78.8485 65.5576 78.8692C65.5576 78.8716 65.5576 78.874 65.5584 78.8764C65.5592 78.9004 65.56 78.9244 65.5624 78.9468C65.5703 79.0963 65.5751 79.1874 65.5775 79.2082C65.7736 81.1745 50.0841 83.5013 50.0235 80.2049Z" fill="#F99746"/>
<path d="M56.9951 48.8082C57.632 50.0295 60.0042 51.0862 60.9935 51.4747C60.9823 51.4116 60.9711 51.3492 60.96 51.2877C60.7998 50.3812 60.6619 49.6019 60.6619 49.6019L57.7628 48.1527C57.1227 48.1431 56.7321 48.3054 56.9951 48.8082Z" fill="#FCA56B"/>
<path d="M62.0713 49.4306C62.0713 49.4306 56.8415 51.0668 55.8754 47.7848C54.9093 44.5028 53.5837 42.5037 56.8821 41.3207C60.1806 40.1378 61.2009 41.1969 61.7891 42.2136C62.3774 43.2303 63.4065 48.9206 62.0713 49.4306Z" fill="#FFB27D"/>
<path d="M61.5826 41.898C61.5826 41.898 61.2494 45.7171 60.4619 45.5509C59.6743 45.3854 58.9601 45.2623 59.0749 46.4133C59.1905 47.5644 59.6663 49.0887 57.2391 49.2925C54.8119 49.4963 51.9392 43.0243 52.6055 41.8357C54.5298 38.4074 64.3637 37.7152 61.5826 41.898Z" fill="#163560"/>
<path d="M65.5632 78.948C53.9166 78.3405 56.2984 65.3828 56.2984 65.3828L65.0666 69.887C65.0937 70.1587 65.1208 70.4313 65.1479 70.7055C65.167 70.8949 65.4683 77.1328 65.556 78.8049C65.5544 78.8289 65.5552 78.8505 65.5592 78.8713C65.5592 78.8737 65.5592 78.8761 65.56 78.8785C65.56 78.9016 65.5608 78.9256 65.5632 78.948Z" fill="#E58638"/>
<path d="M83.1748 64.1634C82.9763 64.5526 82.4989 64.7069 82.1115 64.5071C81.7241 64.3081 81.5694 63.8293 81.7687 63.4408C81.9672 63.0523 82.4447 62.8973 82.832 63.0971C83.2194 63.2961 83.3733 63.7741 83.1748 64.1634ZM82.9014 64.0227C83.0226 63.7853 82.9285 63.4927 82.6918 63.3712C82.455 63.2498 82.1633 63.3441 82.0421 63.5815C81.921 63.8189 82.015 64.1114 82.2518 64.2329C82.4885 64.3544 82.7802 64.2601 82.9014 64.0227Z" fill="#2A4E96"/>
<path d="M83.0884 63.7814C83.086 63.7551 87.0978 62.8039 87.0978 62.8039C87.0978 62.8039 86.7343 62.5017 86.1237 62.4961C85.5132 62.4905 82.9863 63.2323 82.9863 63.2323L83.0884 63.7814Z" fill="#2A4E96"/>
<path d="M82.8909 62.6115C82.47 62.7234 82.0364 62.47 81.9248 62.048C81.8132 61.6259 82.0659 61.1911 82.4868 61.0792C82.9077 60.9673 83.3413 61.2207 83.4529 61.6427C83.5645 62.0655 83.3118 62.4996 82.8909 62.6115ZM82.5657 61.3773C82.3082 61.4453 82.1544 61.7107 82.2221 61.9688C82.2899 62.227 82.5545 62.3813 82.812 62.3133C83.0695 62.2454 83.2233 61.98 83.1556 61.7218C83.0878 61.4637 82.8232 61.3086 82.5657 61.3773Z" fill="#2A4E96"/>
<path d="M83.2863 61.998C83.2784 62.0228 86.9961 63.8109 86.9961 63.8109C86.9961 63.8109 86.5768 64.0283 85.979 63.9036C85.3811 63.7789 83.0703 62.5136 83.0703 62.5136L83.2863 61.998Z" fill="#2A4E96"/>
<path d="M84.6873 62.9355C84.6387 62.9363 84.5996 62.9763 84.5996 63.0251C84.6004 63.0738 84.6403 63.113 84.6889 63.113C84.7375 63.1122 84.7766 63.0722 84.7766 63.0235C84.7758 62.9747 84.7359 62.9355 84.6873 62.9355Z" fill="#2A4E96"/>
<path d="M81.3691 61.375C81.3818 61.3774 82.0036 61.4134 82.6094 61.4533C83.0549 61.4829 83.5173 61.3638 83.699 61.3862C84.1262 61.4397 83.7102 62.0624 82.7345 62.2359C81.9087 62.3829 81.098 62.6515 80.344 62.6467C79.4313 62.6411 81.3691 61.375 81.3691 61.375Z" fill="#FFB27D"/>
<path d="M75.6314 67.5411C75.6179 67.5411 75.6043 67.5403 75.5908 67.5387L74.8494 67.4492C74.8096 67.4444 74.7809 67.4084 74.7857 67.3684C74.7905 67.3285 74.8271 67.3005 74.8662 67.3045L75.6075 67.394C75.7159 67.4068 75.8131 67.3293 75.8259 67.2214L76.3345 62.9658C76.3472 62.8579 76.2699 62.7604 76.1623 62.7476L75.421 62.6589C75.3811 62.6541 75.3524 62.6181 75.3572 62.5781C75.362 62.5382 75.3979 62.5094 75.4377 62.5142L76.179 62.6029C76.3663 62.6253 76.5003 62.7964 76.4779 62.9834L75.9694 67.2389C75.9495 67.4132 75.8012 67.5411 75.6314 67.5411Z" fill="#163560"/>
<path d="M76.4096 62.977C76.4088 62.977 76.4072 62.977 76.4064 62.977L75.3973 62.8555C75.3821 62.8539 75.371 62.8403 75.3734 62.8251C75.375 62.8099 75.3893 62.7987 75.4037 62.8011L76.4128 62.9226C76.4279 62.9242 76.4391 62.9378 76.4367 62.953C76.4351 62.9666 76.4232 62.977 76.4096 62.977Z" fill="#163560"/>
<path d="M76.3745 63.2738C76.3737 63.2738 76.3721 63.2738 76.3713 63.2738L75.3621 63.1523C75.347 63.1507 75.3358 63.1371 75.3382 63.122C75.3398 63.1068 75.3542 63.0956 75.3685 63.098L76.3777 63.2195C76.3928 63.2211 76.404 63.2347 76.4016 63.2498C76.4 63.2634 76.388 63.2738 76.3745 63.2738Z" fill="#163560"/>
<path d="M76.3374 63.5823C76.3366 63.5823 76.335 63.5823 76.3342 63.5823L75.325 63.4608C75.3099 63.4592 75.2987 63.4448 75.3011 63.4304C75.3027 63.4152 75.317 63.4048 75.3314 63.4064L76.3405 63.5279C76.3557 63.5295 76.3668 63.5439 76.3645 63.5583C76.3629 63.5719 76.3509 63.5823 76.3374 63.5823Z" fill="#163560"/>
<path d="M76.3041 63.8653C76.3033 63.8653 76.3017 63.8653 76.301 63.8653L75.2918 63.7438C75.2767 63.7422 75.2655 63.7279 75.2679 63.7135C75.2695 63.6983 75.2838 63.6887 75.2982 63.6895L76.3073 63.811C76.3225 63.8126 76.3336 63.827 76.3312 63.8413C76.3296 63.8557 76.3177 63.8653 76.3041 63.8653Z" fill="#163560"/>
<path d="M76.269 64.1623C76.2682 64.1623 76.2666 64.1623 76.2658 64.1623L75.2567 64.0408C75.2415 64.0392 75.2304 64.0249 75.2327 64.0105C75.2343 63.9953 75.2487 63.9849 75.263 63.9865L76.2722 64.108C76.2873 64.1096 76.2985 64.124 76.2961 64.1383C76.2945 64.1519 76.2825 64.1623 76.269 64.1623Z" fill="#163560"/>
<path d="M76.2319 64.4709C76.2311 64.4709 76.2295 64.4709 76.2287 64.4709L75.2195 64.3494C75.2044 64.3478 75.1932 64.3334 75.1956 64.3191C75.1972 64.3039 75.2116 64.2935 75.2259 64.2951L76.2351 64.4166C76.2502 64.4182 76.2614 64.4325 76.259 64.4469C76.2582 64.4605 76.2462 64.4709 76.2319 64.4709Z" fill="#163560"/>
<path d="M76.1889 64.8048C76.1881 64.8048 76.1865 64.8048 76.1857 64.8048L75.1766 64.6833C75.1614 64.6817 75.1503 64.6673 75.1527 64.6529C75.1543 64.6377 75.1686 64.6282 75.183 64.629L76.1921 64.7504C76.2072 64.752 76.2184 64.7664 76.216 64.7808C76.2152 64.7944 76.2033 64.8048 76.1889 64.8048Z" fill="#163560"/>
<path d="M76.1557 65.1018C76.1549 65.1018 76.1533 65.1018 76.1525 65.1018L75.1434 64.9803C75.1282 64.9787 75.1171 64.9643 75.1195 64.9499C75.1211 64.9347 75.1354 64.9243 75.1498 64.9259L76.1588 65.0474C76.174 65.049 76.1852 65.0634 76.1828 65.0778C76.1812 65.0914 76.1692 65.1018 76.1557 65.1018Z" fill="#163560"/>
<path d="M76.1185 65.4103C76.1178 65.4103 76.1162 65.4103 76.1154 65.4103L75.1063 65.2888C75.0911 65.2872 75.08 65.2728 75.0824 65.2584C75.0839 65.2432 75.0983 65.2336 75.1126 65.2344L76.1217 65.3559C76.1369 65.3575 76.148 65.3719 76.1456 65.3863C76.1441 65.3999 76.1321 65.4103 76.1185 65.4103Z" fill="#163560"/>
<path d="M76.0815 65.7306C76.0807 65.7306 76.0791 65.7306 76.0783 65.7306L75.0692 65.6091C75.054 65.6075 75.0429 65.5931 75.0452 65.5787C75.0468 65.5635 75.0612 65.5539 75.0755 65.5547L76.0847 65.6762C76.0998 65.6778 76.111 65.6922 76.1086 65.7066C76.107 65.7202 76.095 65.7306 76.0815 65.7306Z" fill="#163560"/>
<path d="M76.0464 66.0276C76.0456 66.0276 76.044 66.0276 76.0432 66.0276L75.034 65.9061C75.0189 65.9045 75.0077 65.8901 75.0101 65.8757C75.0117 65.8605 75.026 65.8501 75.0404 65.8517L76.0496 65.9732C76.0647 65.9748 76.0759 65.9892 76.0735 66.0036C76.0719 66.0172 76.0599 66.0276 76.0464 66.0276Z" fill="#163560"/>
<path d="M76.0093 66.336C76.0085 66.336 76.0069 66.336 76.0061 66.336L74.9969 66.2146C74.9817 66.213 74.9706 66.1986 74.973 66.1842C74.9746 66.169 74.9889 66.1594 75.0033 66.1602L76.0124 66.2817C76.0276 66.2833 76.0388 66.2977 76.0364 66.3121C76.0348 66.3256 76.0228 66.336 76.0093 66.336Z" fill="#163560"/>
<path d="M75.976 66.5978C75.9752 66.5978 75.9736 66.5978 75.9728 66.5978L74.9637 66.4763C74.9485 66.4747 74.9374 66.4603 74.9398 66.4459C74.9414 66.4307 74.9557 66.4211 74.9701 66.4219L75.9792 66.5434C75.9944 66.545 76.0055 66.5594 76.0031 66.5738C76.0015 66.5874 75.9896 66.5978 75.976 66.5978Z" fill="#163560"/>
<path d="M75.9409 66.8947C75.9401 66.8947 75.9385 66.8947 75.9377 66.8947L74.9285 66.7733C74.9134 66.7717 74.9022 66.7573 74.9046 66.7429C74.9062 66.7277 74.9206 66.7173 74.9349 66.7189L75.9441 66.8404C75.9592 66.842 75.9704 66.8564 75.968 66.8708C75.9664 66.8843 75.9544 66.8947 75.9409 66.8947Z" fill="#163560"/>
<path d="M75.9038 67.2032C75.903 67.2032 75.9014 67.2032 75.9006 67.2032L74.8914 67.0817C74.8763 67.0801 74.8651 67.0658 74.8675 67.0514C74.8691 67.0362 74.8835 67.0266 74.8978 67.0274L75.9069 67.1489C75.9221 67.1505 75.9333 67.1649 75.9309 67.1792C75.9293 67.1928 75.9173 67.2032 75.9038 67.2032Z" fill="#163560"/>
<path d="M72.5148 66.7049C72.5148 66.7049 74.3194 65.4811 74.6614 65.374C75.0033 65.2677 76.1257 65.1518 76.1775 65.2405C76.2293 65.3292 76.3831 65.6002 76.1871 65.6921C75.991 65.784 75.747 65.7521 75.8204 65.816C75.8937 65.88 76.631 65.5283 76.8016 65.9055C76.9714 66.2828 77.1213 67.5753 76.2556 67.967C75.3899 68.3586 73.2537 68.0045 73.0998 68.0493C71.7942 68.4306 72.5148 66.7049 72.5148 66.7049Z" fill="#FFB27D"/>
<path d="M51.4564 68.8224C51.4564 68.8224 54.9581 69.1997 58.9516 68.3477L58.801 69.2421C58.801 69.2421 56.3881 70.4195 51.332 69.7497L51.4564 68.8224Z" fill="#2A4E96"/>
<path d="M60.8299 57.5969L58.9512 68.3477L59.891 95.518C59.891 95.518 62.9813 96.3317 65.5799 95.518C65.5799 95.518 66.318 62.1458 63.6469 57.0781L60.8299 57.5969Z" fill="#2A4E96"/>
<path d="M72.5314 66.374C72.5314 66.374 63.7249 67.8751 62.9445 67.4946C61.6987 66.8864 62.5436 57.3289 62.5436 57.3289C62.5436 57.3289 63.5017 55.8958 61.1367 55.417C59.0809 55.0005 57.0977 56.5448 57.0977 56.5448C57.0977 56.5448 55.2939 58.1634 55.5242 59.9579C56.0352 63.9369 56.8299 72.0292 59.4835 73.2697C62.9063 74.8699 72.812 68.8327 72.812 68.8327C72.812 68.8327 73.142 68.4274 73.0949 67.6753C73.0535 67.0126 72.5314 66.374 72.5314 66.374Z" fill="#F99746"/>
<path d="M62.5451 57.3305C62.5451 57.3305 62.2781 53.461 58.0781 52.1365L58.7509 51.748C58.7509 51.748 62.8122 53.0517 63.1788 57.3305H62.5451Z" fill="#2A4E96"/>
<path d="M61.21 52.256C61.1423 52.2272 56.9877 50.9979 56.5366 51.1474C56.0854 51.2968 55.8184 52.1721 55.8184 52.1721L62.2319 54.0041C62.2319 54.0041 62.0781 52.6221 61.21 52.256Z" fill="#E58638"/>
<path d="M83.4478 61.6467C83.3505 61.2926 83.058 61.0608 82.7168 61.0488V61.3662C82.924 61.3781 83.0946 61.5124 83.1552 61.7202C83.2158 61.9768 83.0699 62.2454 82.8141 62.3181C82.7774 62.3301 82.7535 62.3301 82.7168 62.3301V62.6355C82.7654 62.6355 82.8388 62.6235 82.8874 62.6107C83.3138 62.502 83.5578 62.0624 83.4478 61.6467Z" fill="#2A4E96"/>
<path d="M81.9121 64.515C81.9121 64.515 82.121 63.8412 82.2915 63.7061C82.9794 63.1602 83.4577 62.8069 83.6857 63.0355C83.9902 63.3408 83.6745 64.1977 83.3589 64.4862C83.1429 64.6845 82.6351 64.9163 81.9121 64.515Z" fill="#F4A773"/>
<path d="M132.395 98.3461V99.0495C132.395 99.2956 132.474 99.4971 132.571 99.4971H158.18C158.277 99.4971 158.357 99.2956 158.357 99.0495V98.3461C158.357 98.0999 158.277 97.8984 158.18 97.8984H132.571C132.474 97.8984 132.395 98.0999 132.395 98.3461Z" fill="#7298DB"/>
<path d="M132.395 98.3461V99.0495C132.395 99.2956 132.468 99.4971 132.556 99.4971H152.887C152.977 99.4971 153.049 99.2956 153.049 99.0495V98.3461C153.049 98.0999 152.976 97.8984 152.887 97.8984H132.556C132.468 97.8984 132.395 98.0999 132.395 98.3461Z" fill="#C2D5FF"/>
<path d="M138.875 126.07H157.057V99.4971H138.875V126.07Z" fill="#94B0ED"/>
<path d="M133.782 126.07H151.963V99.4971H133.782V126.07Z" fill="#C0D4FF"/>
<path d="M134.758 100.248H150.985V124.603H134.758V100.248ZM150.81 100.424H134.933V124.428H150.81V100.424Z" fill="#94B0ED"/>
<path d="M150.898 108.305H134.846V108.481H150.898V108.305Z" fill="#94B0ED"/>
<path d="M150.898 116.52H134.846V116.695H150.898V116.52Z" fill="#94B0ED"/>
<path d="M141.226 101.819H144.205C144.349 101.819 144.468 101.7 144.468 101.555C144.468 101.41 144.35 101.291 144.205 101.291H141.226C141.082 101.291 140.963 101.409 140.963 101.555C140.964 101.7 141.082 101.819 141.226 101.819Z" fill="#94B0ED"/>
<path d="M141.226 109.852H144.205C144.349 109.852 144.468 109.733 144.468 109.588C144.468 109.443 144.35 109.324 144.205 109.324H141.226C141.082 109.324 140.963 109.443 140.963 109.588C140.964 109.733 141.082 109.852 141.226 109.852Z" fill="#94B0ED"/>
<path d="M141.226 118.225H144.205C144.349 118.225 144.468 118.107 144.468 117.961C144.468 117.816 144.35 117.697 144.205 117.697H141.226C141.082 117.697 140.963 117.816 140.963 117.961C140.964 118.107 141.082 118.225 141.226 118.225Z" fill="#94B0ED"/>
<path d="M154.275 97.8986H151.574V90.0309C151.574 89.3611 152.115 88.8184 152.783 88.8184H153.066C153.734 88.8184 154.275 89.3611 154.275 90.0309V97.8986Z" fill="#2B478B"/>
<path d="M153.76 93.2573H152.148V88.5613C152.148 88.1616 152.471 87.8379 152.87 87.8379H153.038C153.437 87.8379 153.759 88.1616 153.759 88.5613V93.2573H153.76Z" fill="#2B478B"/>
<path d="M150.336 97.8988H148.49V92.5234C148.49 92.0662 148.86 91.6953 149.316 91.6953H149.509C149.965 91.6953 150.335 92.0662 150.335 92.5234V97.8988H150.336Z" fill="#F99746"/>
<path d="M149.986 94.7286H148.885V91.5202C148.885 91.2468 149.106 91.0254 149.378 91.0254H149.493C149.766 91.0254 149.986 91.2468 149.986 91.5202V94.7286H149.986Z" fill="#F99746"/>
<path d="M147.549 96.9158V97.648C147.549 97.7871 147.436 97.8998 147.298 97.8998H144.499C144.36 97.8998 144.248 97.7871 144.248 97.648V96.9158C144.248 96.7768 144.36 96.6641 144.499 96.6641H147.298C147.436 96.6641 147.549 96.776 147.549 96.9158Z" fill="#ED7D2B"/>
<path d="M147.55 96.9158V97.2819H144.25V96.9158C144.25 96.7768 144.362 96.6641 144.501 96.6641H147.3C147.438 96.6641 147.55 96.776 147.55 96.9158Z" fill="#F99746"/>
<path opacity="0.1" d="M99.8396 37.291L99.8301 58.8685L124.333 37.291H99.8396Z" fill="#94B0ED"/>
<path opacity="0.3" d="M99.7045 66.6928L134.21 37.2852H136.582V40.6271L99.8273 74.6564C99.8281 74.6556 99.3108 66.2971 99.7045 66.6928Z" fill="#94B0ED"/>
<path d="M236.669 127H0.547239C0.3647 127 0.214844 126.85 0.214844 126.667V126.367C0.214844 126.183 0.3647 126.033 0.547239 126.033H236.669C236.851 126.033 237.001 126.183 237.001 126.367V126.667C237.001 126.851 236.851 127 236.669 127Z" fill="#2E3552"/>
</g>
<defs>
<clipPath id="clip0">
<rect width="237" height="127" fill="white"/>
</clipPath>
</defs>
</svg>
