<svg width="96" height="96" viewBox="0 0 96 96" fill="none" xmlns="http://www.w3.org/2000/svg">
<g clip-path="url(#clip0)">
<path d="M75.7141 5.71875C67.0181 5.72912 59.2923 11.2719 56.4957 19.506H23.6106C23.2707 19.3695 22.8925 19.3695 22.5527 19.506H9.6C4.30053 19.5116 0.00558511 23.8065 0 29.106V80.4762C0.00558511 85.7757 4.30053 90.0706 9.6 90.0762H83.1319C88.4314 90.0706 92.7263 85.7757 92.7319 80.4762V37.0336C96.7795 30.7975 97.0891 22.8459 93.5393 16.3137C89.9896 9.78072 83.1486 5.71556 75.7141 5.71875ZM75.7141 8.57833C85.3388 8.57833 93.1404 16.3807 93.1404 26.0047C93.1404 35.6294 85.338 43.431 75.7141 43.431C66.0893 43.431 58.2877 35.6294 58.2877 26.0047C58.2981 16.3847 66.0941 8.5887 75.7141 8.57833ZM75.7141 46.2906C81.0072 46.2938 86.0904 44.2209 89.8723 40.5172V65.3613H34.879C36.8944 64.0137 38.1072 61.7517 38.1143 59.3278C38.1143 55.3009 34.7944 52.0249 30.7141 52.0249C28.2191 52.0225 25.8902 53.2703 24.5106 55.3488V22.3656H55.7553C54.679 28.285 56.2843 34.3767 60.138 38.9972C63.9925 43.6169 69.6973 46.289 75.7141 46.2906ZM10.9069 59.3278C10.9372 56.848 12.9686 54.8605 15.4476 54.8844C16.2558 54.8836 17.0497 55.0951 17.7511 55.4972C18.8713 56.1379 19.6588 57.2326 19.9085 58.4988L21.1548 64.9217L14.5931 63.6906C12.4755 63.3116 10.9277 61.4789 10.9069 59.3278ZM25.0077 64.9225L26.2532 58.4996C26.7287 56.2384 28.8223 54.6922 31.1234 54.9044C33.4237 55.1158 35.2005 57.018 35.2548 59.3278C35.2348 61.4789 33.687 63.3116 31.5694 63.6914L25.0077 64.9225ZM9.6 22.3656H21.6511V55.3496C21.0199 54.3914 20.1734 53.5943 19.1792 53.0214C18.0447 52.368 16.7577 52.0241 15.4484 52.0249C11.3673 52.0249 8.04814 55.3009 8.04814 59.3278C8.05452 61.7517 9.26728 64.0137 11.2827 65.3613H2.85957V29.106C2.86356 25.3855 5.87952 22.3695 9.6 22.3656ZM2.85957 80.4762V68.2209H19.6292L12.8785 74.9717C12.3199 75.5302 12.3199 76.435 12.8785 76.9935C13.437 77.552 14.3418 77.552 14.9003 76.9935L21.6511 70.2427V87.2166H9.6C5.87952 87.2126 2.86356 84.1967 2.85957 80.4762ZM83.1319 87.2166H24.5106V70.2427L33.6104 79.3424C34.1689 79.9009 35.0737 79.9009 35.6322 79.3424C36.1907 78.7839 36.1907 77.8791 35.6322 77.3206L26.5324 68.2209H89.8723V80.4762C89.8683 84.1967 86.8524 87.2126 83.1319 87.2166Z" fill="#19B5FE"/>
</g>
<path fill-rule="evenodd" clip-rule="evenodd" d="M79.2342 28.8333H79.9583L84.5325 33.4167L83.1667 34.7825L78.5833 30.2083V29.4842L78.3358 29.2275C77.2908 30.1258 75.9342 30.6667 74.4583 30.6667C71.1675 30.6667 68.5 27.9992 68.5 24.7083C68.5 21.4175 71.1675 18.75 74.4583 18.75C77.7492 18.75 80.4167 21.4175 80.4167 24.7083C80.4167 26.1842 79.8758 27.5408 78.9775 28.5858L79.2342 28.8333ZM70.3336 24.7083C70.3336 26.9908 72.1761 28.8333 74.4586 28.8333C76.7411 28.8333 78.5836 26.9908 78.5836 24.7083C78.5836 22.4258 76.7411 20.5833 74.4586 20.5833C72.1761 20.5833 70.3336 22.4258 70.3336 24.7083Z" fill="#FFCB4A"/>
<defs>
<clipPath id="clip0">
<rect width="96" height="96" fill="white"/>
</clipPath>
</defs>
</svg>
