<svg width="163" height="199" viewBox="0 0 163 199" fill="none" xmlns="http://www.w3.org/2000/svg">
<path d="M72.4736 94.4744C72.4736 94.4744 71.5107 96.295 69.8932 97.019C68.2757 97.7431 66.2456 97.404 65.8759 99.1079C65.5063 100.812 75.8906 99.3566 75.8906 99.3566C75.8906 99.3566 75.3848 95.1109 75.3737 94.4049C75.3626 93.6989 75.5988 91.1278 75.5988 91.1278L73.2532 90.9902L72.4736 94.4744Z" fill="#EFAC7F"/>
<path d="M86.6509 94.3353C86.6509 94.3353 86.6606 94.4451 86.6606 94.63C86.6606 95.1817 86.5731 96.3978 85.8644 97.2955C84.9209 98.4921 84.9153 99.9806 85.9116 100.236C86.9094 100.491 89.2869 100.154 89.2869 100.154C89.2869 100.154 89.8247 99.0161 89.4578 95.9739C89.091 92.9331 88.877 89.5976 88.877 89.5976L86.1673 89.082L86.6509 94.3353Z" fill="#EFAC7F"/>
<path d="M73.2632 53.9587C73.1089 55.9892 71.9555 71.2697 72.0056 74.3188C72.05 77.0775 71.9972 89.5604 71.9806 93.3767C71.9778 94.1466 76.0604 94.0855 76.1285 93.474C76.6301 88.9781 80.2416 54.7843 80.6405 54.8774C82.0495 55.204 85.2845 91.2226 85.2316 93.8145C85.2178 94.476 89.6311 94.7484 89.645 94.0257C89.7728 87.8857 92.8243 68.2191 90.2453 52.5203C89.8048 49.8423 88.1387 42.4112 87.5773 42.4251L75.4823 41.002C74.9515 41.0131 73.2757 53.81 73.2632 53.9587Z" fill="#45258F"/>
<path d="M86.1178 95.6269C86.1178 95.6269 85.1131 97.289 84.8769 97.9825C84.642 98.676 84.692 100.401 84.8769 100.579C86.5027 102.142 89.5834 100.736 89.5834 100.736C89.5834 100.736 89.7946 99.5891 89.9016 98.1813C90.0086 96.7734 89.9488 95.4629 89.5834 95.4629C89.2179 95.4629 89.154 96.2009 88.3202 95.9924C87.4865 95.7839 86.9737 95.4184 86.1178 95.6269Z" fill="#D1EAF2"/>
<path d="M75.6147 96.3587C75.6147 96.3587 75.7078 97.0342 75.9398 98.1835C76.1719 99.3342 75.9398 100.384 75.9398 100.384C75.9398 100.384 66.2892 100.233 65.9182 99.8332C65.5472 99.4329 65.814 98.096 65.9182 97.9834C66.0224 97.8708 67.2633 97.5581 67.9136 97.1329C68.5626 96.7076 70.7901 95.0829 71.5099 95.208C72.2297 95.3331 72.5312 96.0085 73.8999 96.1836C75.2673 96.3587 75.2909 96.0085 75.6147 96.3587Z" fill="#D1EAF2"/>
<path d="M76.0283 98.8224C72.5557 99.4061 68.7622 98.9503 65.9191 97.9844C71.1092 99.3324 75.371 98.8947 75.0764 98.9099C75.0903 98.9086 76.0922 98.8154 76.0283 98.8224Z" fill="#9CB9BD"/>
<path d="M75.7308 14.5806C75.7308 14.5806 72.9294 14.3847 73.5353 11.5356C74.1411 8.68661 75.6794 8.72552 75.3626 7.14675C75.0457 5.56936 73.8632 6.27953 74.9499 2.45907C76.0365 -1.3614 86.1443 -0.36494 86.6988 2.94965C87.2532 6.26425 89.1181 5.48042 90.1728 6.4199C92.0695 8.10986 90.3214 15.8161 87.4492 14.5709C84.5769 13.3257 84.5811 12.4028 84.1948 14.7474C83.8098 17.0919 80.5263 15.937 78.9102 16.2928C77.2913 16.65 75.5738 16.0802 75.7308 14.5806Z" fill="#282828"/>
<path d="M61.4413 46.9286C61.3232 46.8396 59.878 48.0307 59.6529 47.9945C59.4278 47.9584 59.4667 47.7583 59.5348 47.579C59.5348 47.579 61.319 46.0058 62.1972 45.7542C63.0755 45.5027 64.7568 46.2559 65.057 45.8585C65.3266 45.4999 71.9507 20.7773 71.9507 20.7773L75.8555 23.5902C75.8555 23.5902 72.7803 33.7744 72.3982 35.0544C71.7965 37.0696 67.7139 45.7876 67.6055 46.6409C67.4971 47.4942 67.3693 47.843 66.152 48.3962C64.9347 48.9493 63.4368 49.3134 63.1894 48.8145C62.9407 48.317 64.3455 48.3712 64.3066 48.0974C64.2677 47.8236 63.0338 47.5345 62.4807 47.9334C61.9277 48.3322 60.6048 49.8749 60.2435 49.476C59.8822 49.0785 61.9096 47.5762 61.8193 47.5095C61.729 47.4414 60.0948 48.9646 59.8113 48.9368C59.5278 48.909 59.4931 48.5421 59.8183 48.2669C60.1434 47.9931 61.5594 47.0175 61.4413 46.9286Z" fill="#EFAC7F"/>
<path opacity="0.65" d="M73.1586 24.7553C73.285 24.0604 73.1863 22.9417 73.4267 21.8438L75.8516 23.5907C75.8516 23.5907 72.7764 33.7749 72.3943 35.0549C71.7926 37.07 67.71 45.788 67.6016 46.6413C67.5849 46.7775 67.5669 46.8998 67.5446 47.0138H67.5432C67.5432 47.0138 67.0055 45.9895 67.6961 43.8938C68.1241 42.5943 70.7893 35.8568 72.1719 30.6729C73.021 27.4959 73.1586 24.7581 73.1586 24.7553Z" fill="#D19369"/>
<path d="M77.1951 15.1621C77.1951 15.1621 74.9385 15.5985 73.2682 17.1133C71.5965 18.6282 70.8072 23.6661 70.8072 23.6661C70.8072 23.6661 70.5404 24.418 75.0177 25.0962C79.4935 25.7744 77.1951 15.1621 77.1951 15.1621Z" fill="#62BDF3"/>
<path d="M77.1823 15.1619C72.712 17.5648 73.1345 22.561 72.9135 24.6985C73.461 24.8291 74.1503 24.9625 75.016 25.0946C79.4932 25.7742 77.4811 15.0021 77.1823 15.1619Z" fill="#62BDF3"/>
<path d="M74.5066 18.3577C74.5066 18.3577 73.7604 23.4401 73.6312 26.0862C73.5965 26.7867 74.5872 28.3988 74.6831 30.1513C74.9499 35.0127 74.6609 42.1227 75.0986 42.8107C76.352 44.7842 85.8429 44.2282 87.9342 43.3152C90.0394 42.3965 87.7744 38.8109 88.0676 34.1983C88.5122 27.2022 89.7129 18.4842 88.8263 17.0875C87.3533 14.7694 83.7446 14.793 83.7446 14.793L77.208 15.1404C77.2066 15.139 74.8304 15.9993 74.5066 18.3577Z" fill="#62BDF3"/>
<path d="M84.4422 17.5592C84.5422 16.3417 85.565 15.3731 86.7753 15.4259C87.1685 15.5968 87.5562 15.8136 87.9092 16.0888C87.9703 16.1791 88.0287 16.2764 88.0898 16.382C88.5414 17.1756 88.8902 18.0164 89.1362 18.8878C89.232 21.9898 88.4803 28.1742 88.1107 33.5359C87.6479 31.6584 86.5015 27.2625 85.5163 26.1521C84.7368 25.2724 84.3116 19.138 84.4422 17.5592Z" fill="#62BDF3"/>
<path d="M78.6881 10.1382C78.6881 10.1382 78.734 13.4847 78.4866 14.238C78.2393 14.9898 77.1804 15.1483 77.1804 15.1483C77.1804 15.1483 75.9645 18.5101 79.0202 19.7303C82.0759 20.9505 83.9102 14.7981 83.9102 14.7981C83.9102 14.7981 83.0556 14.8008 82.8777 14.7397C82.1106 14.4742 82.1357 8.33008 82.1357 8.33008L78.6881 10.1382Z" fill="#EFAC7F"/>
<path opacity="0.65" d="M82.1334 8.32812C82.1334 8.32812 82.132 8.77563 82.1445 9.43438C81.3052 12.1583 79.7169 13.6676 78.5525 13.9303C78.7234 12.8337 78.6859 10.1362 78.6859 10.1362L82.1334 8.32812Z" fill="#D19369"/>
<path d="M87.8379 24.8055L93.2642 23.4199C93.2642 23.4199 96.092 32.6646 96.0253 34.003C95.9892 34.7298 96.0976 47.4851 96.3005 47.8173C96.5589 48.2425 98.3056 47.6574 99.1561 47.9938C100.006 48.3301 101.628 50.0701 101.628 50.0701C101.678 50.2549 101.698 50.4578 101.47 50.4717C101.242 50.4856 99.9217 49.1598 99.7939 49.2362C99.6674 49.3127 100.981 50.4217 101.278 50.7274C101.575 51.0332 101.504 51.3945 101.22 51.3945C100.935 51.3945 99.4576 49.7199 99.3603 49.7782C99.2644 49.8366 101.135 51.5293 100.736 51.8893C100.337 52.2492 99.1727 50.5857 98.6614 50.134C98.15 49.6823 96.8924 49.8505 96.8271 50.1187C96.7618 50.3869 98.1653 50.4703 97.8693 50.9415C97.5733 51.4126 96.1184 50.9039 94.9609 50.2341C93.8034 49.5642 93.7103 49.2057 93.6853 48.3454C93.6617 47.4851 91.751 38.5295 91.3494 36.4657C91.0228 34.784 87.8379 24.8055 87.8379 24.8055Z" fill="#EFAC7F"/>
<path d="M87.2708 15.4581C86.0702 15.2705 85.2004 16.7006 85.2671 17.9138C85.3921 20.2236 86.3315 23.8162 86.6664 25.224C87.1736 27.3517 94.3076 24.5124 93.7852 22.6904C93.2641 20.8685 89.4233 15.7958 87.2708 15.4581Z" fill="#62BDF3"/>
<path d="M82.6262 6.6131C82.7179 6.00577 82.6429 5.38594 82.4025 4.8203C82.0954 4.09762 81.5284 3.16787 80.5557 2.75233C78.8521 2.02548 77.2638 2.49522 76.6051 4.72719C75.9479 6.95915 76.7177 10.5475 77.7349 11.6705C78.6951 12.7295 81.9092 11.4022 82.6262 6.6131Z" fill="#EFAC7F"/>
<path d="M82.1451 6.69405C82.1451 6.69405 83.0886 5.31401 83.6236 6.14092C84.1586 6.96783 83.6138 8.89266 82.5592 8.96632C81.5059 9.03998 82.1451 6.69405 82.1451 6.69405Z" fill="#EFAC7F"/>
<path d="M79.1405 27.9066C76.1697 27.9066 73.7614 26.7019 73.7614 25.216C73.7614 23.73 76.1697 22.5254 79.1405 22.5254C82.1112 22.5254 84.5195 23.73 84.5195 25.216C84.5195 26.7019 82.1112 27.9066 79.1405 27.9066Z" fill="#D1EAF2"/>
<path d="M124.273 44.0518C124.273 44.0518 126.567 40.6871 127.384 40.2785C128.199 39.87 125.365 38.041 125.365 38.041L121.702 42.9038L124.273 44.0518Z" fill="#EFAC7F"/>
<path d="M110.617 109.224C110.617 109.224 110.408 110.631 111.919 111.359C113.428 112.089 114.781 112.817 114.781 113.649C114.781 114.482 105.411 114.17 105.411 113.649C105.411 113.128 107.182 108.703 107.182 108.703L110.617 109.224Z" fill="#EFAC7F"/>
<path d="M99.8398 109.435V112.402C99.8398 112.402 96.4034 114.745 93.2282 114.745C93.2282 114.745 90.677 114.837 90.677 114.166C90.677 113.496 92.4515 112.271 94.597 111.221C96.7425 110.17 96.6466 107.752 96.6466 107.752L99.8385 108.29V109.435H99.8398Z" fill="#EFAC7F"/>
<path d="M112.094 15.9968L111.242 14.4667L108.934 14.0762L108.117 15.3645L112.094 15.9968Z" fill="#45258F"/>
<path d="M112.438 32.6368C112.438 32.6368 113.896 32.5854 114.728 34.6159C115.561 36.6463 116.914 44.5082 118.425 45.0294C119.935 45.5506 122.538 41.3326 122.538 41.3326L125.141 43.1032C125.141 43.1032 121.08 53.828 117.28 53.4125C113.479 52.9955 112.334 40.8643 111.605 38.2098C110.877 35.5526 112.438 32.6368 112.438 32.6368Z" fill="#3B77BE"/>
<path d="M98.5644 65.5958C99.5802 60.494 116.062 62.1548 115.822 66.2212C115.822 66.2212 115.301 76.2178 114.26 87.2553C113.219 98.2929 111.136 109.747 111.136 109.747H106.577C106.577 109.747 109.086 74.3194 107.861 73.0936C107.511 72.7434 107.128 72.6016 106.762 72.578C105.824 72.5182 105.016 73.2423 104.893 74.1735L100.1 110.164L95.9353 109.747C95.9367 109.747 97.55 70.6976 98.5644 65.5958Z" fill="#9ED16F"/>
<path d="M115.701 68.3553C113.869 68.9154 103.707 70.6929 98.1238 69.3532C98.2781 67.5979 98.4268 66.2846 98.5644 65.5939C99.5801 60.492 116.062 62.1528 115.822 66.2193C115.82 66.2387 115.785 66.91 115.701 68.3553Z" fill="#96A65F"/>
<path d="M108.828 94.1265C108.421 100.839 107.915 105.933 107.418 109.747H106.582C106.582 109.747 109.092 74.3195 107.866 73.0938C107.865 73.0924 110.069 73.6441 108.828 94.1265Z" fill="#96A65F"/>
<path d="M109.158 31.9084C109.158 31.9084 112.022 32.6366 112.439 32.6366C112.855 32.6366 118.685 59.6064 118.113 62.3137C117.54 65.021 116.291 67.2085 116.291 67.2085C116.291 67.2085 102.235 69.8643 97.1329 66.7401C97.1329 66.7401 97.7582 53.2552 97.7582 48.5689C97.7582 43.8826 94.0105 35.0312 95.2597 33.262C96.509 31.4915 101.403 30.502 101.403 30.502L109.158 31.9084Z" fill="#3797DB"/>
<path d="M103.382 27.9496C103.642 27.9496 108.953 27.6897 110.983 29.1476C113.013 30.6054 112.571 31.8812 111.764 32.6887C110.957 33.4962 105.607 33.92 105.607 33.92C105.607 33.92 108.433 31.4963 107.865 30.9279C107.296 30.3594 101.897 30.0315 101.557 30.9265C101.464 31.1711 104.791 33.92 104.791 33.92C104.791 33.92 100.211 33.5865 98.8089 32.6359C97.2359 31.5685 97.3012 30.0176 98.8547 28.8349C99.669 28.2136 103.382 27.9496 103.382 27.9496Z" fill="#3B77BE"/>
<path d="M104.791 33.92C104.791 33.92 98.0552 30.4609 101.136 29.1976C104.217 27.9343 109.824 30.0843 109.271 31.4588C108.716 32.8332 105.608 33.92 105.608 33.92C105.608 33.92 108.434 31.4963 107.866 30.9279C107.297 30.3595 101.897 30.0315 101.558 30.9265C101.464 31.1711 104.791 33.92 104.791 33.92Z" fill="#3B77BE"/>
<path d="M108.586 29.0439C108.586 29.0439 107.934 31.1522 107.934 31.6858C107.934 32.2195 106.399 33.9901 105.149 33.9901C103.9 33.9901 101.46 30.927 101.46 30.927L102.912 23.5293L108.586 29.0439Z" fill="#EFAC7F"/>
<path opacity="0.68" d="M102.549 25.3902L102.915 23.5293L108.59 29.0439C108.59 29.0439 107.938 31.1522 107.938 31.6858C107.938 31.8137 107.851 32.011 107.701 32.239C107.51 32.207 107.32 32.157 107.131 32.0889C105.452 31.4829 103.341 28.3629 102.549 25.3902Z" fill="#D19369"/>
<path d="M113.48 21.8069C113.48 21.8069 113.794 24.15 112.439 27.2214C111.085 30.2928 109.057 31.3907 107.128 30.7528C105.2 30.1149 102.704 26.4404 102.287 23.4204C101.87 20.4004 103.224 17.5889 105.724 16.4952C108.222 15.4028 113.48 16.6522 113.48 21.8069Z" fill="#EFAC7F"/>
<path opacity="0.68" d="M105.025 21.0341C105.025 21.0341 110.733 21.6859 113.433 20.9883C113.464 21.2496 113.48 21.5233 113.48 21.8082C113.48 21.8082 113.705 23.4926 112.95 25.8775C112.587 25.8177 112.209 25.7329 111.816 25.6204C107.39 24.3501 105.025 21.0341 105.025 21.0341Z" fill="#D19369"/>
<path d="M107.075 14.4652C107.075 14.4652 110.177 14.4138 111.906 15.5589C113.634 16.7041 114.728 18.5789 114.364 20.6093L112.906 21.5461H107.075L105.023 20.9207L102.212 21.0249C102.212 21.0249 101.714 18.4733 102.651 16.964C103.587 15.4547 105.045 14.4652 107.075 14.4652Z" fill="#9ED16F"/>
<path d="M102.654 16.9664C102.859 16.6356 103.089 16.3299 103.344 16.0547C103.47 16.5689 103.846 17.3124 104.819 18.2853C106.377 19.8432 111.822 19.8946 114.438 19.8237C114.438 20.0822 114.415 20.3449 114.368 20.6103L112.91 21.547H107.08L105.027 20.9216L102.216 21.0259C102.215 21.0273 101.716 18.4757 102.654 16.9664Z" fill="#96A65F"/>
<path d="M111.242 14.4657C111.242 14.4657 107.956 14.6228 106.579 16.7575C105.203 18.8921 104.786 21.548 104.786 21.548L103.38 21.3395C103.38 21.3395 104.482 14.727 107.861 13.8945L111.242 14.4657Z" fill="#45258F"/>
<path d="M105.543 111.978C105.543 111.978 105.422 112.702 105.119 113.935C104.817 115.168 105.119 116.293 105.119 116.293C105.119 116.293 117.724 116.132 118.208 115.704C118.693 115.276 118.344 113.842 118.208 113.721C118.072 113.6 116.45 113.265 115.602 112.809C114.755 112.354 111.845 110.612 110.906 110.746C109.966 110.879 109.573 111.603 107.785 111.791C105.998 111.978 105.967 111.603 105.543 111.978Z" fill="#7772D6"/>
<path d="M118.208 115.702C117.723 116.13 105.119 116.291 105.119 116.291C105.119 116.291 104.921 115.553 105.005 114.617C111.639 115.438 118.208 113.719 118.208 113.719C118.344 113.84 118.693 115.274 118.208 115.702Z" fill="#D1EAF2"/>
<path d="M105.005 114.619C109.539 115.244 114.494 114.756 118.207 113.721C111.429 115.165 105.863 114.696 106.248 114.713C106.232 114.71 104.921 114.612 105.005 114.619Z" fill="#93B8BD"/>
<path d="M100.186 111.879C100.186 111.879 100.35 112.593 100.725 113.807C101.1 115.019 100.864 116.161 100.864 116.161C100.864 116.161 88.2717 116.742 87.7631 116.342C87.2545 115.941 87.5171 114.49 87.6464 114.363C87.7756 114.235 89.3736 113.805 90.1935 113.299C91.0134 112.795 93.8148 110.885 94.7611 110.963C95.706 111.042 96.1423 111.74 97.9376 111.824C99.733 111.906 99.7413 111.529 100.186 111.879Z" fill="#7772D6"/>
<path d="M87.7626 116.342C88.2712 116.741 100.864 116.162 100.864 116.162C100.864 116.162 101.019 115.413 100.879 114.484C94.3047 115.693 87.6472 114.363 87.6472 114.363C87.5166 114.491 87.2526 115.942 87.7626 116.342Z" fill="#D1EAF2"/>
<path d="M100.879 114.482C96.3892 115.373 91.4131 115.177 87.6473 114.361C94.4994 115.405 100.027 114.61 99.645 114.648C99.6603 114.646 100.962 114.471 100.879 114.482Z" fill="#93B8BD"/>
<path d="M104.243 44.2642C104.296 44.2642 104.348 44.2406 104.382 44.1961C104.427 44.1391 105.484 42.7743 105.484 41.5152C105.484 40.2158 103.74 39.7141 103.74 38.7371C103.74 37.1541 105.853 37.0485 103.953 33.481C103.907 33.3948 103.8 33.3615 103.713 33.4073C103.627 33.4532 103.593 33.5602 103.639 33.6478C103.647 33.6617 104.389 35.0695 104.389 36.0479C104.389 37.0096 103.385 37.5822 103.385 38.7371C103.385 39.9337 105.129 40.4062 105.129 41.5152C105.129 42.6507 104.113 43.964 104.102 43.9779C104.042 44.0557 104.054 44.1669 104.132 44.2267C104.167 44.2531 104.206 44.2642 104.243 44.2642Z" fill="white"/>
<path d="M108.023 41.5898C109.323 38.7714 106.514 39.1897 107.693 35.5708C108.129 34.2324 107.519 33.3249 107.493 33.2874C107.437 33.2068 107.326 33.1873 107.247 33.2415C107.166 33.2971 107.145 33.4069 107.201 33.4875C108.231 35.0023 106.155 36.6673 107.52 38.9173C108.103 39.8776 108.204 40.3515 107.702 41.4411C107.602 41.6551 107.925 41.8025 108.023 41.5898Z" fill="white"/>
<path d="M96.3238 56.6641C96.3238 56.6641 97.9997 58.3026 100.18 59.0114C102.455 59.7521 102.21 62.0647 101.098 63.1765C99.9868 64.2883 99.1933 64.437 98.5847 64.066C96.9853 63.0903 93.7962 58.3471 93.7962 58.3471L96.3238 56.6641Z" fill="#EFAC7F"/>
<path d="M87.6078 47.5791C88.2331 42.2688 95.2601 33.2617 95.2601 33.2617L97.3945 43.2583C97.3945 43.2583 93.8025 47.4763 93.594 49.3816C93.3856 51.287 96.5608 55.6495 96.8734 56.4305C97.1861 57.2116 94.8947 59.5547 94.5306 59.5547C92.16 59.5547 86.9824 52.8894 87.6078 47.5791Z" fill="#3B77BE"/>
<path d="M132.058 33.7111C132.058 33.7111 129.073 32.716 128.385 33.4053C127.696 34.0946 122.638 39.3285 122.774 39.8344C122.816 39.99 125.049 41.0115 126.273 40.8072C127.497 40.6015 133.395 34.26 132.058 33.7111Z" fill="#45258F"/>
<path d="M130.639 33.7111C130.639 33.7111 129.658 33.3831 128.691 33.2344C129.697 32.9245 132.058 33.7111 132.058 33.7111C133.395 34.2601 127.497 40.6016 126.273 40.8059C125.927 40.8628 125.502 40.8239 125.067 40.7336C126.639 39.9942 131.909 34.2323 130.639 33.7111Z" fill="#45258F"/>
<path d="M129.935 37.6057C129.935 37.6057 130.739 38.8496 127.383 40.2782C126.82 40.5187 126.013 37.0804 126.357 36.7357C126.702 36.3911 127.757 39.1414 127.89 39.0761C128.355 38.8482 126.217 36.1909 126.839 35.9741C127.41 35.774 128.683 38.2005 128.822 38.0616C129.045 37.8392 126.938 35.6795 127.818 35.4933C128.137 35.4266 129.452 36.4661 129.935 37.6057Z" fill="#EFAC7F"/>
<path d="M114.365 20.6094L118.789 23.5293C118.789 23.5293 116.238 25.2429 111.813 24.3062C107.389 23.3694 105.024 20.9221 105.024 20.9221C105.024 20.9221 112.439 21.5461 114.365 20.6094Z" fill="#9ED16F"/>
<path d="M101.3 22.8484C101.3 24.2284 102.419 25.3472 103.798 25.3472C105.178 25.3472 106.297 24.2284 106.297 22.8484C106.297 21.4684 105.178 20.3496 103.798 20.3496C102.42 20.3496 101.3 21.4684 101.3 22.8484Z" fill="#45258F"/>
<path d="M101.63 22.598C101.63 23.8029 102.472 24.7799 103.511 24.7799C104.549 24.7799 105.391 23.8029 105.391 22.598C105.391 21.393 104.549 20.416 103.511 20.416C102.472 20.416 101.63 21.393 101.63 22.598Z" fill="#45258F"/>
<path d="M98.8107 64.1686C102.47 62.9289 103.163 59.2127 102.207 55.5799L113.49 54.6668C113.633 54.6557 113.765 54.7641 113.777 54.91C113.788 55.0559 113.679 55.1852 113.533 55.1963L102.875 56.058C103.157 57.4352 103.958 62.9845 98.9816 64.6703C98.9525 64.68 98.9247 64.6842 98.8969 64.6842C98.7857 64.6842 98.6829 64.6147 98.6454 64.5036C98.5981 64.3674 98.6718 64.2159 98.8107 64.1686Z" fill="#45258F"/>
<path d="M136.512 70.9914L132.808 72.514C132.632 72.6092 132.411 72.5616 132.235 72.4664C132.059 72.3713 131.926 72.2285 131.882 72.0382C131.75 71.61 131.926 71.1818 132.323 71.039L136.027 69.5164C136.071 69.5164 136.071 69.5164 136.116 69.5164C136.468 69.4213 136.821 69.6116 136.953 69.9922C137.086 70.4205 136.865 70.8487 136.512 70.9914Z" fill="#EDB680"/>
<path d="M130.957 75.0355C130.869 74.7024 131.001 74.3218 131.31 74.2266L135.411 72.7516C135.72 72.6564 136.072 72.7992 136.161 73.1322C136.249 73.4653 136.117 73.846 135.808 73.9411L131.707 75.4161C131.398 75.5589 131.045 75.3685 130.957 75.0355Z" fill="#F5C08C"/>
<path d="M127.517 74.9379L129.016 74.129C129.016 73.3202 128.884 71.7024 129.501 71.2742C129.634 71.179 129.766 71.0839 129.942 71.0363L131.353 70.4653L131.706 70.846L133.735 70.0371C135.322 72.1782 134.837 73.5105 134.881 75.6516C134.881 75.6516 132.103 76.9363 130.251 76.175L128.399 77.1266L127.517 74.9379Z" fill="#F5C08C"/>
<path d="M135.673 72.5124L134.35 72.7503C133.203 72.893 133.203 71.6083 133.909 71.3229L135.143 70.9898C135.187 70.9898 135.187 70.9898 135.232 70.9422C135.584 70.8471 135.981 71.0374 136.114 71.418C136.246 71.8938 136.025 72.3696 135.673 72.5124Z" fill="#FFCF9F"/>
<path d="M135.586 74.1313L134.219 74.3692C133.073 74.3216 133.337 72.9893 134.087 72.8942L135.322 72.6087C135.366 72.6087 135.366 72.6087 135.41 72.6087C135.807 72.5611 136.115 72.8466 136.204 73.2272C136.292 73.6079 135.983 74.0361 135.586 74.1313Z" fill="#FFCF9F"/>
<path d="M135.277 75.5561L134.043 75.7465C132.94 75.8892 132.852 74.6045 133.558 74.3666L134.792 74.1287C134.836 74.1287 134.836 74.1287 134.88 74.0811C135.233 73.986 135.586 74.1763 135.718 74.5094C135.851 74.9376 135.674 75.3658 135.277 75.5561Z" fill="#FFCF9F"/>
<path d="M136.556 70.9425L135.41 71.0377C134.484 70.9901 134.66 69.8006 135.233 69.7054L136.203 69.4199H136.247C136.556 69.4199 136.865 69.6578 136.953 70.0385C137.085 70.4667 136.865 70.8949 136.556 70.9425Z" fill="#FFC994"/>
<path d="M127.164 74.1783L128.751 73.1792C128.619 72.3227 129.104 71.1332 129.721 70.2767C130.118 69.7533 130.779 69.5154 131.397 69.6582C132.235 69.8485 133.205 69.6582 133.822 69.6106C134.263 69.563 134.395 69.8485 134.351 70.3719C134.263 71.2283 132.367 71.2759 131.706 71.1332C132.058 72.3227 132.146 73.7977 131.132 74.4162C131 74.5114 128.222 76.4146 128.222 76.4146L127.164 74.1783Z" fill="#FFCF9F"/>
<path d="M136.821 69.8027H136.865C136.909 69.8979 136.953 69.9455 136.953 70.0406C136.953 69.9455 136.909 69.8979 136.821 69.8027Z" fill="#FFCF9F"/>
<path d="M106.083 100.064C107.141 100.112 108.2 100.064 109.214 99.9212C111.595 99.5881 113.536 97.6849 114.021 95.1156C114.506 92.6414 114.682 90.072 114.638 87.4551C111.683 88.3591 108.861 88.9301 106.083 89.0252C103.305 88.9301 100.439 88.3591 97.5283 87.4551C97.4842 90.072 97.6606 92.6414 98.1457 95.1156C98.6307 97.6849 100.571 99.5881 102.952 99.9212C104.011 100.064 105.025 100.112 106.083 100.064Z" fill="#3C3C3B"/>
<path d="M106.082 89.0272C108.86 88.932 111.726 88.3611 114.637 87.457C114.637 88.028 114.637 88.6465 114.637 89.2175C111.726 90.1215 108.86 90.6925 106.082 90.7877C103.304 90.6925 100.482 90.1215 97.527 89.2175C97.527 88.6465 97.527 88.028 97.527 87.457C100.482 88.3611 103.348 88.932 106.082 89.0272Z" fill="#575756"/>
<path d="M104.934 88.9785H107.227V90.8342H104.934V88.9785Z" fill="#878787"/>
<path d="M112.609 89.8832H113.094V87.8848L112.609 88.0275V89.8832Z" fill="#3C3C3B"/>
<path d="M99.5586 89.8832H99.0735V87.8848L99.5586 88.0275V89.8832Z" fill="#3C3C3B"/>
<path d="M109.831 90.5492H110.316V88.5508L109.831 88.6459V90.5492Z" fill="#3C3C3B"/>
<path d="M102.332 90.5492H101.847V88.5508L102.332 88.6459V90.5492Z" fill="#3C3C3B"/>
<path d="M109.965 133.467C109.216 133.515 108.378 133.563 107.805 133.229V132.706L110.098 132.373L109.965 133.467Z" fill="#3C3C3B"/>
<path d="M107.804 132.659C111.861 133.849 114.904 133.991 116.624 133.278L116.668 132.612L107.893 131.803L107.804 132.659Z" fill="#3C3C3B"/>
<path d="M107.85 132.088C109.129 132.945 115.92 133.421 116.67 132.612C116.714 132.136 116.008 131.613 114.73 131.089C114.597 131.042 114.465 130.994 114.333 130.946C114.245 130.899 114.156 130.851 114.024 130.851C113.892 130.804 113.76 130.756 113.627 130.709C113.539 130.661 113.451 130.613 113.319 130.613C113.186 130.566 113.054 130.518 112.878 130.471C112.525 130.328 112.128 130.233 111.775 130.09C108.291 128.948 107.895 131.327 107.85 132.088Z" fill="#634E42"/>
<path d="M112.04 131.231C112.084 131.278 112.128 131.326 112.172 131.326C112.216 131.326 112.26 131.326 112.26 131.278L113.23 130.565C113.098 130.517 112.966 130.469 112.789 130.422L112.04 130.993C111.996 130.993 111.996 131.136 112.04 131.231Z" fill="#3C3C3B"/>
<path d="M112.789 131.518C112.833 131.565 112.877 131.613 112.921 131.613C112.965 131.613 113.009 131.613 113.053 131.565C113.23 131.423 113.406 131.28 113.627 131.137C113.759 131.042 113.891 130.947 114.023 130.852C113.891 130.804 113.759 130.757 113.627 130.709C113.582 130.757 113.494 130.804 113.45 130.852C113.274 130.994 113.053 131.137 112.877 131.328C112.745 131.328 112.745 131.423 112.789 131.518Z" fill="#3C3C3B"/>
<path d="M113.541 131.804C113.585 131.851 113.629 131.899 113.673 131.899C113.717 131.899 113.761 131.899 113.761 131.851L114.688 131.09C114.555 131.042 114.423 130.995 114.291 130.947L113.541 131.566C113.497 131.566 113.453 131.709 113.541 131.804Z" fill="#3C3C3B"/>
<path d="M99.7338 133.61C98.9841 133.61 98.1463 133.61 97.573 133.229L97.6171 132.706L99.9102 132.516L99.7338 133.61Z" fill="#3C3C3B"/>
<path d="M97.6181 132.707C101.631 134.135 104.63 134.468 106.349 133.897L106.438 133.231L97.7063 131.898L97.6181 132.707Z" fill="#3C3C3B"/>
<path d="M97.707 132.136C98.9417 133.087 105.689 133.991 106.482 133.23C106.526 132.754 105.865 132.183 104.63 131.565C104.498 131.517 104.366 131.422 104.233 131.374C104.145 131.327 104.057 131.279 103.925 131.232C103.792 131.184 103.66 131.089 103.528 131.041C103.44 130.994 103.351 130.946 103.219 130.898C103.087 130.851 102.955 130.803 102.778 130.708C102.425 130.565 102.073 130.423 101.676 130.28C98.3243 128.995 97.7952 131.374 97.707 132.136Z" fill="#634E42"/>
<path d="M101.941 131.518C101.985 131.565 102.029 131.613 102.073 131.613C102.117 131.613 102.162 131.613 102.162 131.565L103.176 130.899C103.043 130.852 102.911 130.804 102.735 130.709L101.941 131.232C101.897 131.28 101.897 131.423 101.941 131.518Z" fill="#3C3C3B"/>
<path d="M102.648 131.851C102.692 131.898 102.736 131.946 102.78 131.946C102.824 131.946 102.869 131.946 102.913 131.898C103.089 131.755 103.31 131.613 103.486 131.47C103.618 131.375 103.751 131.28 103.883 131.184C103.751 131.137 103.618 131.042 103.486 130.994C103.442 131.042 103.354 131.089 103.31 131.137C103.089 131.28 102.913 131.422 102.692 131.565C102.648 131.66 102.604 131.755 102.648 131.851Z" fill="#3C3C3B"/>
<path d="M103.395 132.182C103.439 132.23 103.484 132.277 103.528 132.277C103.572 132.277 103.616 132.277 103.616 132.23L104.586 131.563C104.454 131.516 104.321 131.421 104.189 131.373L103.439 131.944C103.351 131.944 103.307 132.087 103.395 132.182Z" fill="#3C3C3B"/>
<path d="M97.0463 130.992C97.0463 130.754 97.2227 129.184 97.2227 128.946C97.5313 117.432 97.9282 105.917 98.7661 94.4026C98.9425 92.1663 102.073 92.0236 102.338 94.2599C102.514 95.5446 102.338 96.9244 102.338 98.1615C102.294 103.3 102.338 108.391 102.558 113.53C102.779 119.002 102.955 124.474 103.176 129.945C103.176 129.993 103.176 130.041 103.176 130.041C102.029 130.707 100.089 131.516 97.0463 130.992Z" fill="#3C3C3B"/>
<path d="M106.926 130.422C106.926 130.184 107.015 128.614 107.015 128.376C106.75 116.861 106.529 105.347 106.75 93.7847C106.794 91.5484 109.925 91.2153 110.322 93.4516C110.542 94.6887 110.454 96.1161 110.542 97.3532C110.807 102.444 111.116 107.583 111.557 112.674C112.042 118.146 112.527 123.57 113.012 129.042C113.012 129.09 113.012 129.137 113.012 129.137C111.645 130.184 109.66 130.898 106.926 130.422Z" fill="#3C3C3B"/>
<path d="M108.728 69.0402C109.037 69.0402 109.346 69.0402 109.655 69.0402C111.992 69.0402 114.329 68.4692 116.622 67.8983C116.71 67.8507 116.842 67.8507 116.931 67.8031C117.063 67.7555 117.195 67.7555 117.283 67.7079C117.283 67.4225 117.327 67.137 117.372 66.8515C117.724 64.8055 118.739 62.9023 119.047 60.8563C119.753 56.241 117.239 53.0531 117.107 48.3426C117.063 46.6773 115.784 45.4402 115.784 42.2999C115.784 37.1136 114.241 36.0192 111.462 34.7345C109.699 33.9257 107.758 33.6878 105.862 33.9257H105.818C103.922 34.0684 102.026 34.6394 100.438 35.7813C97.8806 37.5418 96.5576 38.9216 97.3955 44.0604C97.9247 47.1531 96.8663 48.5805 97.0868 50.2458C97.7042 54.9087 94 58.7152 95.4552 63.1402C96.1167 65.091 97.3955 66.7563 98.057 68.7071C98.1451 68.9926 98.2333 69.2781 98.3215 69.5636C98.4538 69.5636 98.5861 69.5636 98.7184 69.5636C98.8066 69.5636 98.9389 69.5636 99.0271 69.5636C101.364 69.7063 105.553 69.6112 107.847 69.1354C108.111 69.1354 108.42 69.0878 108.728 69.0402Z" fill="#EDEDED"/>
<path d="M111.376 69.0389L116.491 78.555L117.902 81.172L118.034 81.4099C118.563 82.3615 119.533 82.8849 120.504 82.7897C120.856 82.7421 121.209 82.647 121.562 82.4091C122.797 81.6478 123.238 79.9349 122.488 78.6026L121.738 77.2228L115.873 66.2316C115.168 64.8994 113.58 64.4236 112.346 65.2324C111.067 65.9937 110.67 67.7066 111.376 69.0389Z" fill="white"/>
<path d="M118.495 80.8853C119.013 82.0754 120.219 82.5377 121.259 82.0534L129.56 78.0521L128.259 73.6464L119.577 77.815C118.506 78.3569 118.017 79.6856 118.495 80.8853Z" fill="white" stroke="#CBCFD8"/>
<path d="M115.918 70.5156C116.271 73.1801 116.448 75.8447 116.536 78.5568L117.947 81.1737C117.991 81.0785 117.991 80.9834 117.991 80.8882C118.079 80.3648 118.035 79.8414 117.947 79.318V79.2705C117.462 76.2729 117.021 73.2753 115.918 70.5156Z" fill="#EDEDED"/>
<path d="M98.983 49.5797C99.2917 47.7241 98.9389 45.6305 99.9091 44.0604C100.35 43.2991 101.1 42.7757 101.805 42.3475C103.613 41.3007 105.642 40.6346 107.67 40.7297C109.699 40.7773 111.771 41.5862 113.226 43.1563C114.682 44.6789 115.564 46.9628 115.299 49.1039C115.167 50.0555 115.475 49.5321 115.343 50.4838C115.255 51.7209 114.726 53.9096 114.99 54.766C115.696 57.0023 116.049 59.2386 114.77 61.1418C115.078 60.0475 115.387 58.8104 114.99 57.7636C114.814 57.2402 114.505 56.812 114.241 56.3362C114.108 56.6217 113.888 56.9071 113.667 57.1926C113.932 57.8588 114.152 58.5249 114.064 59.191C114.02 59.6668 113.8 60.0951 113.623 60.5709C113.447 61.0467 113.359 61.5225 113.535 61.9983C113.226 61.5701 113.094 60.9515 113.05 60.3805C113.006 59.8096 113.05 59.2386 112.962 58.6676C112.962 58.4773 112.918 58.3346 112.874 58.1918C112.697 58.4773 112.521 58.7628 112.389 59.0959C111.948 60.3805 112.565 61.9031 111.992 63.1402C111.551 64.0443 110.625 64.5201 109.743 64.758C108.067 65.2813 106.303 65.3765 104.583 65.0434C104.583 63.5209 104.583 61.808 103.834 60.5233C103.834 60.5709 103.79 60.6184 103.79 60.666C103.569 61.1418 103.172 61.5701 102.908 62.0459C102.643 62.5217 102.423 63.0926 102.555 63.616C102.07 62.9023 102.202 61.9507 102.511 61.1418C102.687 60.6184 102.952 60.0951 103.084 59.5717C102.819 59.3338 102.555 59.0959 102.246 58.8104C102.114 59.2862 101.982 59.7144 101.849 60.1902C101.541 61.237 101.32 62.4265 101.717 63.4257C100.967 62.0934 100.791 60.8563 100.923 59.2862C100.967 58.6676 101.144 58.1918 101.232 57.5733C100.482 56.5741 99.8209 54.5281 99.7327 53.291C99.6886 52.72 99.0271 52.0063 98.8066 51.483C98.4538 50.6265 98.8066 50.4838 98.983 49.5797Z" fill="#DADADA"/>
<path d="M105.204 58.5254H110.672V67.5181H105.204V58.5254Z" fill="#DEAB7D"/>
<path d="M110.716 63.4383C110.811 63.4853 110.941 63.55 111.097 63.6284C111.437 63.7996 111.897 64.0355 112.38 64.2945C112.864 64.5541 113.366 64.8344 113.79 65.0949C114.224 65.3611 114.534 65.5808 114.675 65.7225L115.187 66.275C116.03 67.3201 116.521 68.6777 116.565 70.1841C116.521 72.3688 116.477 74.5533 116.432 76.6904L116.432 76.6932C116.388 79.6469 116.388 82.4573 116.388 85.2634V85.2652V85.5031V85.5075H116.388C116.52 100.531 117.433 113.587 118.74 125.789C118.447 125.951 118.18 125.996 117.907 126C117.723 126.002 117.536 125.986 117.32 125.966L117.295 125.963C117.092 125.944 116.862 125.922 116.624 125.922C116.022 125.922 115.339 126.106 114.594 126.743C114.554 126.772 114.517 126.8 114.481 126.827C114.374 126.906 114.281 126.975 114.181 127.029L114.419 127.469L114.181 127.029C113.35 127.478 112.27 127.526 111.423 127.24C111.211 127.151 110.993 127.095 110.844 127.057C110.813 127.049 110.785 127.042 110.761 127.035C110.025 126.824 109.416 126.821 108.855 126.931L108.845 126.933L108.845 126.933C108.539 126.999 108.26 127.09 108.001 127.181C107.924 127.208 107.85 127.235 107.778 127.26C107.601 127.324 107.435 127.383 107.259 127.438C106.788 127.584 106.3 127.675 105.664 127.592L105.632 127.588H105.599C105.493 127.588 105.376 127.571 105.231 127.543C105.192 127.536 105.148 127.527 105.1 127.517C104.995 127.495 104.876 127.471 104.765 127.453L102.794 127.028L102.788 127.027C102.063 126.88 101.308 126.776 100.497 126.828L100.468 126.829L100.44 126.834C100.335 126.853 100.216 126.864 100.068 126.876L100.058 126.877C99.9336 126.887 99.7871 126.899 99.6442 126.922C99.4713 126.927 99.3202 126.959 99.1965 126.99C99.1469 127.002 99.1047 127.013 99.0664 127.023C98.9889 127.043 98.9273 127.059 98.8522 127.072L98.8348 127.075L98.8177 127.08C98.24 127.226 97.5572 127.091 96.9871 126.776C96.9772 126.768 96.9682 126.761 96.9605 126.755C96.9369 126.736 96.913 126.719 96.898 126.708L96.8956 126.707C96.8889 126.702 96.8836 126.698 96.8793 126.695C96.8753 126.692 96.8721 126.69 96.8695 126.688L96.852 126.669L96.8167 126.642C96.3318 126.276 95.9071 126.09 95.5016 126.025C95.2159 125.968 94.9696 125.97 94.7567 125.985C94.6709 125.991 94.5864 126 94.5124 126.007C94.4968 126.009 94.4817 126.01 94.4671 126.012C94.379 126.021 94.3048 126.027 94.2333 126.03C94.0975 126.034 93.9775 126.023 93.8444 125.978C93.7504 125.945 93.6382 125.892 93.5023 125.802C93.7434 121.645 94.0074 117.589 94.2667 113.606C94.7154 106.714 95.1501 100.037 95.4274 93.4232C95.4274 93.4229 95.4274 93.4227 95.4275 93.4225L95.4371 93.2119C95.566 90.3841 95.6933 87.5916 95.7365 84.798M110.716 63.4383L95.2366 84.7894M110.716 63.4383C110.604 63.4631 110.488 63.4775 110.38 63.4871C110.167 63.5061 109.915 63.5117 109.644 63.5078C109.102 63.5001 108.448 63.4541 107.803 63.3878C107.157 63.3214 106.509 63.2336 105.978 63.1405C105.713 63.094 105.472 63.0454 105.272 62.9962C105.162 62.9693 105.052 62.9393 104.952 62.9052M110.716 63.4383L100.046 64.24M95.7365 84.798C95.7365 84.7977 95.7365 84.7974 95.7365 84.7971L95.2366 84.7894M95.7365 84.798C95.7365 84.7985 95.7365 84.7989 95.7365 84.7993L95.2366 84.7894M95.7365 84.798C95.7806 82.5628 95.8248 80.2745 95.8248 78.0329V78.0296V78.0263V78.0229V78.0196V78.0162V78.0129V78.0095V78.0062V78.0028V77.9994V77.9961V77.9927V77.9894V77.986V77.9826V77.9793V77.9759V77.9726V77.9692V77.9658V77.9625V77.9591V77.9557V77.9524V77.949V77.9456V77.9422V77.9389V77.9355V77.9321V77.9287V77.9254V77.922V77.9186V77.9152V77.9118V77.9085V77.9051V77.9017V77.8983V77.8949V77.8915V77.8881V77.8848V77.8814V77.878V77.8746V77.8712V77.8678V77.8644V77.861V77.8576V77.8542V77.8508V77.8474V77.844V77.8406V77.8372V77.8338V77.8304V77.827V77.8236V77.8202V77.8168V77.8134V77.81V77.8066V77.8032V77.7997V77.7963V77.7929V77.7895V77.7861V77.7827V77.7793V77.7759V77.7724V77.769V77.7656V77.7622V77.7588V77.7553V77.7519V77.7485V77.7451V77.7417V77.7382V77.7348V77.7314V77.728V77.7245V77.7211V77.7177V77.7142V77.7108V77.7074V77.704V77.7005V77.6971V77.6937V77.6902V77.6868V77.6834V77.6799V77.6765V77.673V77.6696V77.6662V77.6627V77.6593V77.6559V77.6524V77.649V77.6455V77.6421V77.6386V77.6352V77.6318V77.6283V77.6249V77.6214V77.618V77.6145V77.6111V77.6076V77.6042V77.6007V77.5973V77.5938V77.5904V77.5869V77.5835V77.58V77.5766V77.5731V77.5697V77.5662V77.5628V77.5593V77.5558V77.5524V77.5489V77.5455V77.542V77.5386V77.5351V77.5316V77.5282V77.5247V77.5213V77.5178V77.5143V77.5109V77.5074V77.504V77.5005V77.497V77.4936V77.4901V77.4866V77.4832V77.4797V77.4762V77.4728V77.4693V77.4658V77.4624V77.4589V77.4554V77.452V77.4485V77.445V77.4415V77.4381V77.4346V77.4311V77.4277V77.4242V77.4207V77.4172V77.4138V77.4103V77.4068V77.4034V77.3999V77.3964V77.3929V77.3895V77.386V77.3825V77.379V77.3756V77.3721V77.3686V77.3651V77.3616V77.3582V77.3547V77.3512V77.3477V77.3443V77.3408V77.3373V77.3338V77.3303V77.3269V77.3234V77.3199V77.3164V77.3129V77.3095V77.306V77.3025V77.299V77.2955V77.2921V77.2886V77.2851V77.2816V77.2781V77.2746V77.2712V77.2677V77.2642V77.2607V77.2572V77.2538V77.2503V77.2468V77.2433V77.2398V77.2363V77.2329V77.2294V77.2259V77.2224V77.2189V77.2154V77.2119V77.2085V77.205V77.2015V77.198V77.1945V77.191V77.1876V77.1841V77.1806V77.1771V77.1736V77.1701V77.1666V77.1632V77.1597V77.1562V77.1527V77.1492V77.1457V77.1423V77.1388V77.1353V77.1318V77.1283V77.1248V77.1213V77.1179V77.1144V77.1109V77.1074V77.1039V77.1004V77.0969V77.0935V77.09V77.0865V77.083V77.0795V77.076V77.0726V77.0691V77.0656V77.0621V77.0586V77.0551V77.0517V77.0482V77.0447V77.0412V77.0377V77.0342V77.0308V77.0273V77.0238V77.0203V77.0168V77.0134V77.0099V77.0064V77.0029V76.9994V76.9959V76.9925V76.989V76.9855V76.982V76.9785V76.9751V76.9716V76.9681V76.9646V76.9612V76.9577V76.9542V76.9507V76.9472V76.9438V76.9403V76.9368V76.9333V76.9299V76.9264V76.9229V76.9194V76.916V76.9125V76.909V76.9055V76.9021V76.8986V76.8951V76.8916V76.8882V76.8847V76.8812V76.8777V76.8743V76.8708V76.8673V76.8639V76.8604V76.8569V76.8535V76.85V76.8465V76.843V76.8396V76.8361V76.8326V76.8292V76.8257V76.8222V76.8188V76.8153V76.8119V76.8084V76.8049V76.8015V76.798V76.7945V76.7911V76.7876V76.7841V76.7807V76.7772V76.7738V76.7703V76.7668V76.7634V76.7599V76.7565V76.753V76.7496V76.7461V76.7427V76.7392V76.7357V76.7323V76.7288V76.7254V76.7219V76.7185V76.715V76.7116V76.7081V76.7047V76.7012V76.6978V76.6943V76.6909V76.6874V76.684V76.6805V76.6771V76.6736V76.6702V76.6668V76.6633V76.6599V76.6564V76.653V76.6496V76.6461V76.6427V76.6392V76.6358V76.6324V76.6289V76.6255V76.6221V76.6186V76.6152V76.6117V76.6083V76.6049V76.6015V76.598V76.5946V76.5912V76.5877V76.5843V76.5809V76.5775V76.574V76.5706V76.5672V76.5638V76.5603V76.5569V76.5535V76.5501V76.5466V76.5432V76.5398V76.5364V76.533V76.5296V76.5261V76.5227V76.5193V76.5159V76.5125V76.5091V76.5057V76.5023V76.4988V76.4954V76.492V76.4886V76.4852V76.4818V76.4784V76.475V76.4716V76.4682V76.4648V76.4614V76.458V76.4546V76.4512V76.4478V76.4444V76.441V76.4376V76.4342V76.4308V76.4274V76.424V76.4207V76.4173V76.4139V76.4105V76.4071V76.4037V76.4003V76.397V76.3936V76.3902V76.3868V76.3834V76.3801V76.3767V76.3733V76.3699V76.3665V76.3632V76.3598V76.3564V76.3531V76.3497V76.3463V76.343V76.3396V76.3362V76.3329V76.3295V76.3261V76.3228V76.3194V76.316V76.3127V76.3093V76.306V76.3026V76.2993V76.2959V76.2926V76.2892V76.2859V76.2825V76.2792V76.2758V76.2725C95.8248 75.3631 95.933 74.372 96.0456 73.3404C96.0555 73.2496 96.0655 73.1585 96.0754 73.0671C96.1941 71.9723 96.3072 70.8387 96.2675 69.7879M95.2366 84.7894C95.2807 82.5531 95.3248 80.2692 95.3248 78.0329V76.2725C95.3248 75.3343 95.436 74.3162 95.548 73.2914C95.6802 72.0812 95.8135 70.8617 95.7657 69.7539M96.2675 69.7879C96.2644 69.8056 96.2612 69.8234 96.258 69.8413L95.7657 69.7539M96.2675 69.7879C96.4629 68.6876 96.5879 68.0054 96.7743 67.4509C96.9543 66.9157 97.1943 66.4938 97.6443 65.9404M96.2675 69.7879C96.2668 69.7694 96.2661 69.7509 96.2653 69.7324L95.7657 69.7539M95.7657 69.7539L97.6443 65.9404M97.6443 65.9404C97.6401 65.9452 97.6359 65.9498 97.6318 65.9543L97.265 65.6144L97.6525 65.9304C97.6498 65.9338 97.6471 65.9371 97.6443 65.9404ZM97.6443 65.9404C97.6819 65.8984 97.723 65.8449 97.7561 65.7798C97.7947 65.7037 97.8273 65.6017 97.8208 65.4816C97.8208 65.4815 97.8208 65.4814 97.8208 65.4813M97.6443 65.9404L97.3091 65.2813M97.8208 65.4813C97.7678 65.5307 97.7157 65.5812 97.6647 65.6328L97.3091 65.2813M97.8208 65.4813C97.8141 65.3596 97.7697 65.2657 97.7298 65.2039C97.6976 65.1542 97.6607 65.1152 97.6546 65.1088L97.6538 65.108C97.6507 65.1046 97.6494 65.1031 97.6495 65.1032C97.6498 65.1034 97.6674 65.1229 97.684 65.1486C97.7112 65.1906 97.7466 65.2631 97.7519 65.3597C97.7571 65.4545 97.7307 65.5275 97.7096 65.569C97.6903 65.6069 97.6725 65.6249 97.6759 65.6212L97.3091 65.2813M97.8208 65.4813C98.4365 64.9075 99.1869 64.4823 100.044 64.2406L100.042 64.2412L99.9109 63.7587M97.3091 65.2813C98.0147 64.5676 98.8966 64.0442 99.9109 63.7587M99.9109 63.7587L100.046 64.24M99.9109 63.7587L100.046 64.24M100.046 64.24L104.952 62.9052M104.952 62.9052C104.881 62.8808 104.814 62.8543 104.757 62.8255L104.982 62.3789L105.113 62.8614L104.952 62.9052Z" fill="white" stroke="#CBCFD8"/>
<path d="M105.202 61.332C107.01 61.903 108.818 62.2836 110.67 61.7127L110.758 62.9022C109.567 63.8062 106.436 63.5683 104.893 62.6167L105.202 61.332Z" fill="#F6F6F6"/>
<path d="M107.801 62.6191H109.168V71.5167H107.801V62.6191Z" fill="#F6F6F6"/>
<path d="M114.285 127.185C114.285 127.28 114.329 127.375 114.373 127.47C114.55 127.375 114.726 127.233 114.858 127.137C115.52 126.566 116.093 126.424 116.578 126.424C116.137 117.383 114.594 108.343 114.902 99.3027C114.461 104.679 114.02 110.056 114.417 115.385C114.594 117.526 114.858 119.715 114.814 121.856C114.77 123.093 114.638 124.33 114.373 125.567C114.329 126.138 114.197 126.662 114.285 127.185Z" fill="#EDEDED"/>
<path d="M108.864 126.518C108.864 126.851 108.864 127.184 108.908 127.517C109.393 127.422 109.922 127.422 110.584 127.612C111.686 121.141 111.554 114.432 111.73 107.818C111.642 112.862 110.937 117.905 109.614 122.759C109.261 123.948 108.864 125.185 108.864 126.518Z" fill="#EDEDED"/>
<path d="M102.645 127.564C103.306 127.707 103.968 127.849 104.629 127.992C104.056 125.423 103.879 122.711 104.232 120.046C104.497 117.905 105.07 115.764 105.202 113.575C105.335 111.767 105.114 109.959 104.894 108.151C104.497 104.773 104.1 101.347 103.747 97.9688C103.703 100.348 103.703 102.727 103.703 105.058C103.659 107.295 103.659 109.531 103.438 111.767C102.821 117.049 101.189 122.52 102.645 127.564Z" fill="#EDEDED"/>
<path d="M106.835 115.243C107.011 113.911 106.923 112.531 106.835 111.199C106.702 109.201 106.614 107.155 106.482 105.156C107.408 108.82 108.29 112.674 107.584 116.385C107.011 119.335 105.468 122.047 105.027 124.997C104.497 121.714 106.438 118.574 106.835 115.243Z" fill="#EDEDED"/>
<path d="M99.1608 122.235C99.3372 123.948 99.6899 125.709 99.6899 127.422C99.9545 127.374 100.263 127.374 100.528 127.326C100.748 126.232 100.616 125.09 100.528 123.425C100.395 120.665 99.7781 117.953 99.6458 115.193C99.0726 117.477 98.9403 119.856 99.1608 122.235Z" fill="#EDEDED"/>
<path d="M95.4138 126.566C95.7225 126.613 96.0752 126.756 96.5162 127.089C96.5603 127.137 96.6485 127.184 96.6926 127.232C96.7808 125.709 96.6044 124.139 96.6044 122.617C96.6485 116.859 99.3825 111.197 98.3683 105.535C98.1478 109.675 96.9131 113.624 96.0752 117.668C95.502 120.571 95.1051 123.616 95.4138 126.566Z" fill="#EDEDED"/>
<path d="M94.927 93.4027C95.7648 88.5495 96.2499 88.5495 97.1319 82.3165C97.7933 78.0342 98.9398 73.7995 100.527 69.8027C99.5572 69.8979 98.8516 70.7543 98.2343 71.6108C97.3523 72.9431 96.5145 74.3705 95.8971 75.8455C95.8971 76.3689 95.6767 77.1777 95.2798 78.0818C95.2798 80.3181 95.2357 82.6019 95.1916 84.8382C95.1916 87.6455 95.0593 90.5479 94.927 93.4027Z" fill="#EDEDED"/>
<path d="M97.2652 65.9425L97.2652 65.9425L97.2636 65.9455L90.6065 78.3135C90.6062 78.314 90.606 78.3144 90.6058 78.3149C90.0113 79.439 90.3662 80.8519 91.3531 81.4604C92.3364 82.0666 93.6033 81.7352 94.1766 80.6528L94.1782 80.6498L100.835 68.2818C100.836 68.2813 100.836 68.2808 100.836 68.2804C101.43 67.1562 101.076 65.7434 100.089 65.1349C99.1053 64.5287 97.8384 64.8601 97.2652 65.9425Z" fill="white" stroke="#CBCFD8"/>
<path d="M93.2967 92.0215C93.6495 92.0215 93.9141 92.307 93.9141 92.6876L93.87 98.0642C93.87 98.4449 93.6054 98.7304 93.2526 98.7304C92.8998 98.7304 92.6352 98.4449 92.6352 98.0642L92.6793 92.6876C92.6793 92.307 92.9439 92.0215 93.2967 92.0215Z" fill="#F2BC88"/>
<path d="M92.0182 92.5918C92.371 92.5918 92.6797 92.8773 92.6797 93.2579L92.6356 98.6346C92.6356 99.0152 92.3269 99.3007 91.9741 99.3007C91.6214 99.3007 91.3127 99.0152 91.3127 98.6346L91.3568 93.2579C91.4009 92.9249 91.6655 92.5918 92.0182 92.5918Z" fill="#F2BC88"/>
<path d="M90.7381 92.1172C91.0909 92.1172 91.3555 92.4027 91.3555 92.7833L91.3114 98.1599C91.3114 98.5406 91.0027 98.8261 90.694 98.8261C90.3412 98.8261 90.0767 98.5406 90.0767 98.1599L90.1207 92.7833C90.1207 92.4027 90.3853 92.1172 90.7381 92.1172Z" fill="#F2BC88"/>
<path d="M92.898 90.4497C92.9421 90.4497 92.9421 90.4497 92.898 90.4497C93.2508 90.307 93.6476 90.5449 93.7358 90.9731C94.1327 92.5432 94.6619 94.0182 95.3233 95.3505C95.4997 95.6836 95.3674 96.1118 95.0588 96.3497C94.7501 96.54 94.3532 96.4449 94.1768 96.0642C93.4713 94.6368 92.898 93.1142 92.457 91.4965C92.3688 91.0207 92.5452 90.5449 92.898 90.4497Z" fill="#F2BC88"/>
<path d="M89.6338 92.5918C89.9424 92.5918 90.207 92.8773 90.207 93.2103L90.1629 96.7789C90.1629 97.112 89.8984 97.3499 89.5897 97.3499C89.281 97.3499 89.0605 97.0644 89.0605 96.7313L89.1046 93.1628C89.0605 92.8773 89.3251 92.5918 89.6338 92.5918Z" fill="#F2BC88"/>
<path d="M89.9191 87.8138L93.0938 87.8496L93.0599 91.4178L89.8852 91.3819L89.9191 87.8138Z" fill="#FFC994"/>
<path d="M89.5898 94.8287C89.8984 94.8287 90.163 94.5908 90.163 94.2577V94.4956C90.163 94.8763 90.4276 95.1618 90.7804 95.1618C91.1332 95.1618 91.3977 94.8763 91.3977 94.4956V94.686C91.3977 95.0666 91.6623 95.3521 92.0151 95.3521C92.3679 95.3521 92.6325 95.0666 92.6325 94.686C92.6325 95.0666 92.8971 95.3521 93.2498 95.3521C93.6026 95.3521 93.8672 95.0666 93.8672 94.686V93.3061V93.0682V91.736C93.8672 90.6416 93.0734 89.7852 92.0592 89.7852H90.8686C89.8544 89.7852 89.0606 90.6416 89.0606 91.736V93.0682V93.3061V94.2577C89.0165 94.5432 89.2811 94.8287 89.5898 94.8287Z" fill="#FFC994"/>
<path d="M90.1316 79.3338L88.7929 89.5801L92.9903 89.6569L94.2553 79.9656L94.2553 79.9656L94.2563 79.9586C94.4414 78.6802 93.5849 77.5346 92.4794 77.3855L92.4712 77.3844L92.4631 77.383C91.3744 77.1995 90.2808 78.0463 90.1325 79.3265L90.1326 79.3265L90.1316 79.3338Z" fill="white" stroke="#CBCFD8"/>
<path d="M115.918 76.9395C116.138 82.7919 113.272 88.6919 108.686 91.8798C112.258 87.6927 114.771 82.5064 115.918 76.9395Z" fill="#EDEDED"/>
<path d="M112.565 93.3073C113.799 89.3581 115.078 85.4089 116.313 81.4121C116.533 85.7419 115.166 90.0718 112.565 93.3073Z" fill="#EDEDED"/>
<path d="M98.7652 47.4868H98.8093C99.2944 47.3441 99.8235 47.5344 100.22 47.9151L100.309 52.3877C100.264 52.4352 100.22 52.4352 100.176 52.4352C99.2503 52.7683 98.1478 51.9118 97.751 50.532C97.3982 49.1522 97.8392 47.7723 98.7652 47.4868Z" fill="#FFC994"/>
<path d="M113.934 46.7238C114.331 46.2956 114.86 46.1053 115.345 46.248H115.389C116.315 46.5335 116.844 47.8658 116.491 49.2456C116.183 50.6255 115.124 51.5295 114.198 51.2916C114.154 51.2916 114.11 51.244 114.022 51.244L113.934 46.7238Z" fill="#FFC994"/>
<path d="M116.802 48.5786C116.847 48.4359 116.847 48.2931 116.891 48.1504C116.891 48.4835 116.891 48.8641 116.802 49.2447C116.494 50.6246 115.435 51.5286 114.509 51.2907C114.465 51.2907 114.421 51.2431 114.333 51.2431V50.6722C115.347 50.8625 116.45 49.9585 116.802 48.5786Z" fill="#F2BB88"/>
<path d="M114.596 49.96C114.64 49.8648 114.64 49.7221 114.596 49.6269C114.596 49.4842 114.551 49.3414 114.551 49.1987C114.507 49.0559 114.463 48.8656 114.463 48.7229C114.419 48.5326 114.419 48.3422 114.419 48.1519C114.419 47.9616 114.463 47.7237 114.551 47.5809C114.64 47.3906 114.772 47.2479 114.948 47.1527C115.301 47.01 115.654 47.1051 115.83 47.2955C116.007 47.4858 116.051 47.7237 116.051 47.8664C116.051 48.0092 116.007 48.1043 115.963 48.1043C115.918 48.1043 115.918 48.0092 115.874 47.914C115.83 47.8188 115.742 47.6285 115.61 47.5334C115.478 47.4382 115.213 47.3906 115.037 47.4858C114.816 47.5809 114.728 47.8664 114.684 48.1995C114.684 48.485 114.728 48.7229 114.772 49.0084C114.772 49.0084 114.772 49.0084 114.816 49.0084C114.948 48.9608 115.169 48.9608 115.345 49.1511C115.522 49.3414 115.522 49.5793 115.478 49.7221C115.433 49.8648 115.345 49.9124 115.301 49.8648C115.257 49.8172 115.257 49.7696 115.213 49.6745C115.213 49.5793 115.169 49.4842 115.081 49.389C115.037 49.3414 114.904 49.2938 114.816 49.2463C114.816 49.2463 114.816 49.2463 114.772 49.2463C114.772 49.389 114.772 49.5317 114.816 49.6269C114.816 49.7696 114.772 49.9124 114.728 50.0551C114.64 50.293 114.507 50.4834 114.375 50.5785C114.331 50.6261 114.243 50.6261 114.243 50.6261C114.199 50.6261 114.199 50.6261 114.199 50.6261C114.287 50.5309 114.551 50.3882 114.596 49.96Z" fill="#DBA97B"/>
<path d="M97.6187 49.4375C97.6628 49.5802 97.6628 49.723 97.751 49.8657C98.1478 51.0552 99.2503 51.8165 100.309 51.769V52.3399C100.264 52.3875 100.22 52.3875 100.176 52.3875C99.2503 52.7206 98.1478 51.8641 97.751 50.4843C97.6628 50.1512 97.6187 49.7706 97.6187 49.4375Z" fill="#F2BB88"/>
<path d="M99.3378 45.2978C99.3378 45.4881 99.3819 45.6785 99.426 45.8688L100.043 50.2462L100.087 51.3406L100.573 54.7664L100.617 54.8615C100.881 56.2889 102.38 57.6212 103.571 58.4301L105.908 59.9527C106.217 60.143 106.614 60.2381 106.967 60.1906L110.142 59.9051C110.538 59.8575 110.891 59.7148 111.156 59.4293L112.435 57.6688C113.493 56.6696 114.287 54.9567 114.331 53.5293V53.3865L114.507 49.9131L114.551 49.1043L114.772 44.4414C114.816 43.4897 114.595 42.5857 114.154 41.9196C113.713 41.2535 113.14 40.7776 112.391 40.5873C110.45 40.1115 108.378 39.9212 106.482 40.0639C106.393 40.0639 106.349 40.0639 106.261 40.0639C106.173 40.0639 106.129 40.0639 106.041 40.1115C104.144 40.3494 102.91 40.8728 101.102 41.6817C99.867 42.2051 99.1614 43.6801 99.3378 45.2978Z" fill="#FFC994"/>
<path d="M98.322 48.5335C98.4984 48.3431 98.8512 48.2004 99.204 48.3431C99.3804 48.3907 99.5127 48.5335 99.645 48.7238C99.7332 48.9141 99.8214 49.1044 99.8214 49.2948C99.8654 49.4851 99.8214 49.6754 99.8214 49.8657C99.8214 50.056 99.7773 50.1988 99.7332 50.3415C99.6891 50.4843 99.6891 50.627 99.6891 50.7698C99.6891 50.9125 99.6891 51.0077 99.7332 51.1028C99.8214 51.531 100.086 51.6738 100.086 51.7214H100.042C99.9977 51.7214 99.9536 51.7214 99.9095 51.6738C99.7773 51.6262 99.645 51.4359 99.5568 51.198C99.5127 51.0552 99.4686 50.9125 99.4686 50.7698C99.4686 50.627 99.4686 50.5319 99.4686 50.3891C99.4686 50.3891 99.4686 50.3891 99.4245 50.3891C99.3363 50.4367 99.2481 50.4843 99.204 50.5319C99.1599 50.627 99.1158 50.7222 99.1158 50.8173C99.1158 50.9125 99.1158 51.0077 99.0717 51.0077C99.0276 51.0552 98.9394 51.0077 98.8953 50.8649C98.8512 50.7222 98.8071 50.4843 98.9835 50.294C99.1599 50.1036 99.3804 50.1036 99.5127 50.1512C99.5127 50.1512 99.5127 50.1512 99.5568 50.1512C99.6009 49.8657 99.645 49.5802 99.6009 49.3423C99.5568 49.0093 99.4245 48.7714 99.204 48.6762C98.9835 48.581 98.763 48.6286 98.6307 48.7238C98.4984 48.8665 98.4102 49.0093 98.3661 49.152C98.322 49.2472 98.322 49.3423 98.322 49.3423C98.322 49.3423 98.2339 49.2948 98.2339 49.1044C98.1016 48.9617 98.1457 48.7238 98.322 48.5335Z" fill="#DBA97B"/>
<path d="M98.5422 39.7301C98.8068 39.1116 99.1596 38.5882 99.5564 38.1124C100.703 36.7325 102.335 35.7809 104.143 35.2575C104.098 35.2575 104.054 35.2575 104.054 35.2575C103.922 35.2575 103.834 35.2099 103.702 35.2099C103.657 35.2099 103.613 35.2099 103.525 35.2099C103.481 35.2099 103.437 35.2099 103.393 35.2099C103.305 35.2099 103.217 35.2099 103.128 35.2099C103.04 35.2099 102.996 35.2099 102.952 35.2575C102.82 35.2575 102.776 35.3051 102.776 35.3051C102.776 35.3051 102.82 35.2575 102.908 35.1624C102.952 35.1148 102.996 35.0672 103.084 35.0196C103.172 34.972 103.217 34.9245 103.349 34.8769C103.393 34.8769 103.437 34.8293 103.525 34.8293C103.569 34.8293 103.657 34.7817 103.702 34.7817C103.834 34.7341 103.966 34.7341 104.098 34.6866C104.363 34.639 104.672 34.639 104.98 34.6866C105.069 34.6866 105.201 34.7341 105.289 34.7341C105.333 34.639 106.171 33.9253 106.127 34.0204C106.083 34.1156 106.039 34.2583 106.039 34.4487C106.039 34.4962 106.039 34.5438 105.995 34.5914C106.171 34.4962 106.347 34.3535 106.524 34.3059C106.744 34.2108 106.965 34.2108 107.185 34.2108C107.229 34.2108 107.273 34.2108 107.318 34.2108C107.362 34.2108 107.406 34.2108 107.45 34.2108C107.538 34.2108 107.582 34.2583 107.626 34.2583C107.626 34.3059 107.67 34.3535 107.67 34.3535C107.67 34.3535 107.626 34.3535 107.538 34.4011C107.494 34.4011 107.45 34.4487 107.362 34.4487C107.318 34.4487 107.318 34.4962 107.273 34.4962C107.229 34.4962 107.185 34.5438 107.185 34.5438C107.009 34.5914 106.877 34.7341 106.7 34.8293C107.935 34.7817 109.214 34.972 110.316 35.4003C111.683 35.8761 112.874 36.7325 113.712 37.8745C114.461 38.9212 114.946 40.2059 115.035 41.7761L115.211 46.5817C114.77 44.2027 112.83 41.4906 112.389 41.0624C111.992 40.6341 111.463 40.3487 110.889 40.2535C110.713 40.2059 110.537 40.2059 110.36 40.1583C108.244 40.539 106.656 42.2995 104.584 42.6801C104.98 42.3946 105.377 42.1091 105.774 41.7761C103.922 42.585 102.07 43.2987 100.13 42.7753C100.042 43.0132 99.9533 43.2987 99.9533 43.5366C99.9533 43.6793 99.9092 43.8221 99.9533 43.9648L100.042 47.7712C99.6005 47.3906 99.0714 47.2003 98.6304 47.343L98.0571 43.2987C97.8366 42.0616 98.0571 40.7769 98.5422 39.7301Z" fill="#3C3C3B"/>
<path d="M107.142 51.6263C107.495 51.6263 107.98 51.6739 108.509 51.6263C108.597 51.6263 108.686 51.5787 108.774 51.5787C110.449 51.0077 109.215 48.486 108.95 46.5352C109.612 47.7723 111.287 50.4368 110.008 52.1021C109.744 52.4352 109.171 52.6255 108.553 52.7206C107.936 52.7682 107.363 52.5779 107.01 52.3876C106.657 52.1973 106.437 52.0069 106.481 51.8642C106.525 51.6739 106.789 51.6263 107.142 51.6263Z" fill="#DBA97B"/>
<g opacity="0.2">
<path opacity="0.2" d="M104.496 40.6341C103.615 41.0147 102.38 41.1099 101.762 40.1582C103.835 41.1099 105.511 37.8744 107.627 38.8736C106.613 39.0639 105.863 39.8252 105.026 40.3486C106.349 39.6349 107.671 38.9687 109.215 39.1591C106.393 39.9679 103.482 43.6792 100.395 41.776C101.939 41.9663 103.218 41.3478 104.496 40.6341Z" fill="#DADADA"/>
<path opacity="0.2" d="M103.262 36.0664C100.043 37.6366 98.2346 40.8245 98.4992 44.6309C97.5732 40.7293 99.6458 37.0656 103.262 36.0664Z" fill="#DADADA"/>
<path opacity="0.2" d="M99.0266 45.6303C98.4533 43.6319 98.762 41.586 99.8203 39.873C99.3352 41.8239 99.1148 43.6319 99.0266 45.6303Z" fill="#DADADA"/>
<path opacity="0.2" d="M114.507 41.5853C113.933 39.4917 112.875 37.7788 111.244 36.4941C113.228 37.2079 114.551 39.3014 114.507 41.5853Z" fill="#DADADA"/>
</g>
<g opacity="0.3">
<path opacity="0.3" d="M107.361 51.2933C107.581 51.2933 107.758 51.1505 107.758 50.9602C107.758 50.9126 107.758 50.6271 107.714 50.2941C107.714 49.9134 107.714 49.4376 107.714 48.9618C107.714 48.7239 107.714 48.486 107.714 48.2481C107.714 48.0102 107.714 47.8199 107.714 47.6296C107.714 47.2965 107.714 47.0586 107.714 47.0586C107.714 47.0586 107.67 47.2965 107.626 47.6296C107.581 47.8199 107.537 48.0102 107.537 48.2005C107.493 48.4384 107.449 48.6288 107.405 48.8667C107.317 49.3425 107.229 49.8183 107.14 50.1989C107.096 50.5796 107.052 50.865 107.052 50.9126C106.964 51.1029 107.14 51.2933 107.361 51.2933Z" fill="white"/>
</g>
<path d="M95.6656 63.5562L95.6669 63.5602C96.0191 64.6622 96.5181 65.7057 97.0558 66.7633C97.2076 66.5874 97.3805 66.3888 97.5537 66.1906C97.8491 65.8526 98.1501 65.5109 98.3509 65.2848C97.3641 63.0437 96.8074 61.4632 96.8515 58.8508L96.8515 58.847C96.8737 57.9366 97.0342 57.0426 97.1868 56.1926C97.1934 56.1559 97.2 56.1193 97.2065 56.0827C97.3672 55.186 97.5129 54.3358 97.5129 53.4826C97.5129 52.7789 97.7468 52.1163 98.0384 51.5248C98.2738 51.0474 98.5643 50.5836 98.8248 50.1678C98.8836 50.074 98.9409 49.9825 98.9956 49.8939C99.154 49.6247 99.3215 49.434 99.5025 49.2903C99.6726 49.1554 99.8399 49.0753 99.9589 49.0184C99.964 49.0159 99.969 49.0135 99.974 49.0112C100.1 48.9509 100.17 48.9144 100.24 48.857C100.304 48.8039 100.385 48.7158 100.48 48.5406C100.557 48.3883 100.603 48.18 100.624 47.9034C100.644 47.6326 100.636 47.3376 100.628 47.0115L100.627 46.9825C100.619 46.657 100.611 46.299 100.642 45.9622C100.674 45.6261 100.748 45.2669 100.933 44.951C101.227 44.4474 101.551 44.0944 101.976 43.8654C102.387 43.6436 102.845 43.5654 103.343 43.5165C103.627 43.4875 103.972 43.507 104.317 43.5418C104.666 43.5771 105.049 43.6318 105.419 43.6847L105.426 43.6856C105.803 43.7395 106.167 43.7914 106.494 43.8243C106.827 43.8579 107.088 43.868 107.266 43.8497C107.616 43.8137 107.908 43.6628 108.293 43.455C108.301 43.4504 108.31 43.4458 108.318 43.4411C108.679 43.2466 109.129 43.0035 109.692 42.9457L109.694 42.9454C110.198 42.896 111.121 42.8465 112.019 42.9148C112.467 42.9488 112.926 43.0135 113.329 43.1299C113.72 43.2426 114.126 43.4225 114.397 43.7329L114.398 43.7337C114.638 44.0108 114.76 44.344 114.831 44.6569C114.901 44.968 114.93 45.3015 114.954 45.5966L114.956 45.6208C114.981 45.9199 115.002 46.1821 115.05 46.4186C115.098 46.6597 115.166 46.829 115.255 46.9462C115.538 47.3158 115.599 47.357 115.629 47.377C115.631 47.3783 115.633 47.3795 115.635 47.3808C115.639 47.384 115.644 47.3874 115.65 47.391C115.695 47.4221 115.764 47.4698 115.857 47.555C115.956 47.6442 116.078 47.7704 116.249 47.9677C116.393 48.1325 116.512 48.3095 116.61 48.4938C116.609 48.4644 116.608 48.435 116.607 48.4055L116.607 48.4047C116.591 47.8117 116.401 47.3008 116.144 46.6126C116.085 46.4554 116.023 46.289 115.958 46.1103C115.621 45.1734 115.284 44.0201 115.284 42.3508C115.262 39.7934 114.879 38.3426 114.234 37.3819C113.59 36.4247 112.638 35.8777 111.253 35.2375C109.583 34.4718 107.738 34.243 105.924 34.4706L105.893 34.4745H105.862H105.837C104.019 34.6141 102.223 35.162 100.73 36.236L100.73 36.2361L100.722 36.242C99.45 37.1174 98.5957 37.836 98.1165 38.907C97.6353 39.9826 97.4981 41.4957 97.889 44.029C98.1658 45.6497 98.0259 46.8408 97.849 47.8256C97.8149 48.0157 97.7807 48.1935 97.7484 48.3616C97.609 49.0872 97.5039 49.6341 97.5824 50.2284C97.8836 52.4798 97.1533 54.6692 96.4745 56.7043C96.4155 56.8812 96.3569 57.0569 96.2994 57.2314C95.5621 59.4686 94.9957 61.5191 95.6656 63.5562ZM117.27 65.4395C117.099 66.0091 116.943 66.5319 116.815 66.9907C116.841 67.0342 116.868 67.0803 116.894 67.1268C116.919 67.1727 116.946 67.2218 116.972 67.2729C117.102 66.7614 117.254 66.181 117.41 65.581C117.495 65.2584 117.58 64.9302 117.665 64.604C118.07 63.0394 118.447 61.5361 118.553 60.8312L118.553 60.8296C118.583 60.6302 118.608 60.4336 118.626 60.2394C118.513 60.8546 118.37 61.4819 118.215 62.0979C117.972 63.0603 117.693 64.0204 117.431 64.8989C117.376 65.0832 117.322 65.2636 117.27 65.4395Z" fill="white" stroke="#CBCFD8"/>
<path d="M114.245 40.2553C114.201 41.0166 113.936 41.7779 114.245 42.444C114.465 42.9198 114.95 43.2053 115.171 43.7287C115.524 44.49 115.083 45.4892 115.435 46.2029C115.568 46.4884 115.832 46.6787 116.009 46.869C116.185 47.1069 116.361 47.3924 116.317 47.6779C116.185 47.2972 115.876 47.0593 115.524 46.869C115.171 46.6787 115.171 46.3932 114.906 46.0601C114.289 45.394 114.73 44.2521 114.245 43.4908C113.848 42.9198 112.481 42.8722 112.128 42.2537C111.864 41.8255 111.864 41.2545 111.908 40.7311C111.996 40.2077 112.172 39.7319 112.26 39.2085C112.437 38.1617 112.216 37.0674 111.687 36.2109C112.393 36.6392 113.01 37.1626 113.495 37.8287C113.98 38.5424 114.289 39.3988 114.245 40.2553Z" fill="#EDEDED"/>
<path d="M108.685 42.3013C108.994 41.4448 108.509 40.4456 108.729 39.5892C108.817 39.2085 109.038 38.8279 109.126 38.4472C109.346 37.7335 109.258 36.8771 108.905 36.2109C108.949 36.9246 108.553 37.5908 108.112 38.1617C107.671 38.7327 107.186 39.3037 107.053 40.0174C106.921 40.6835 107.186 41.3972 107.009 42.0634C106.789 42.7771 106.171 43.2053 105.554 43.5859C106.171 43.6335 106.789 43.6811 107.362 43.4908C107.891 43.348 108.464 42.9198 108.685 42.3013Z" fill="#EDEDED"/>
<path d="M100.924 41.6336C100.924 42.2046 100.968 42.7755 100.836 43.2989C100.66 44.0126 100.219 44.5836 100.042 45.2973C99.7779 46.2965 100.042 47.3909 99.6897 48.3425C99.381 49.1513 98.6313 49.7223 97.9258 50.1981C98.6754 49.3892 99.0282 48.1997 98.8959 47.0578C98.8518 46.4392 98.6313 45.8207 98.5872 45.2021C98.5431 44.6312 98.6313 44.0602 98.6754 43.5368C98.7636 42.8707 98.8518 42.2046 99.1164 41.6336C99.7338 40.3965 101.057 39.7779 101.895 38.6836C101.321 39.4449 100.968 40.5392 100.924 41.6336Z" fill="#EDEDED"/>
<path d="M106.17 39.3492C105.905 39.8726 105.685 40.4911 105.729 41.1097C105.773 41.7282 106.17 42.2992 106.699 42.4895C107.052 42.1565 107.184 41.5855 107.184 41.0621C107.184 40.5387 107.096 40.0153 107.14 39.4919C107.184 39.0161 107.316 38.5879 107.361 38.1597C107.405 37.6839 107.361 37.2081 107.052 36.875C107.14 37.3032 107.008 37.779 106.831 38.2073C106.655 38.5879 106.39 38.9685 106.17 39.3492Z" fill="#EDEDED"/>
<path d="M115.918 42.7759C116.27 42.7283 116.535 42.4428 116.535 42.0622C116.579 41.6339 116.27 41.3009 115.873 41.2533C109.523 40.7775 103.218 41.396 97.0439 43.0614C96.6911 43.1565 96.4706 43.5848 96.5588 43.9654C96.647 44.346 97.0439 44.6315 97.3967 44.4888C103.438 42.9186 109.656 42.3477 115.829 42.7759C115.873 42.7759 115.873 42.7759 115.918 42.7759Z" fill="#3C3C3B"/>
<path d="M115.832 41.4439C116.184 41.3963 116.449 41.1108 116.449 40.7301C116.493 40.3019 116.184 39.9689 115.787 39.9213C109.437 39.4455 103.132 40.064 96.958 41.7293C96.6052 41.8245 96.3847 42.2527 96.4729 42.6334C96.5611 43.014 96.958 43.2519 97.3107 43.1568C103.308 41.539 109.526 40.9205 115.699 41.3963C115.743 41.4439 115.787 41.4439 115.832 41.4439Z" fill="#3C3C3B"/>
<path d="M110.535 56.1479C110.226 55.7197 110.403 54.9584 110.535 54.3874C108.418 54.6253 106.963 55.1963 106.037 54.3398C106.39 56.1955 107.537 56.7189 110.535 56.1479Z" fill="#3C3C3B"/>
<path d="M105.905 54.3867C107.007 54.7198 108.904 54.6246 110.535 54.3867C110.491 54.7198 110.447 55.0053 110.447 55.3383C108.198 55.8617 106.919 55.6238 106.214 55.148L105.905 54.3867Z" fill="white"/>
<path d="M105.819 54.2921C105.864 54.2921 105.908 54.3396 105.952 54.3396C105.996 54.3396 106.084 54.3872 106.172 54.3872C106.745 54.53 107.583 54.53 108.553 54.4348C109.48 54.3872 110.317 54.1969 110.847 53.959L110.891 54.2921C110.317 54.6251 109.48 54.8154 108.598 54.863C107.627 54.9582 106.745 54.9582 106.128 54.6727C106.04 54.6251 105.996 54.6251 105.908 54.5775L105.819 54.2921Z" fill="#C4986E"/>
<path d="M112.303 55.1456C112.436 55.7166 112.436 56.2876 112.392 57.7626C112.083 60.0464 110.275 61.0932 108.908 61.2359C107.497 61.3787 105.777 60.7126 104.41 58.9521C103.749 56.6682 104.145 55.669 104.63 54.765C105.38 53.29 107.585 53.0521 108.202 53.0045C109.084 52.9093 111.774 52.8142 112.303 55.1456ZM109.349 56.7634C109.746 56.7158 109.79 57.4771 110.187 57.5722C110.495 57.6674 110.98 57.5246 111.333 57.144C111.907 56.4779 111.642 55.2408 111.025 54.765C110.76 54.5746 110.54 54.4795 110.407 54.4795C109.834 54.3367 109.04 54.3367 108.291 54.4319C107.541 54.5271 106.791 54.6222 106.218 54.9077C106.086 54.9553 105.865 55.098 105.645 55.3359C105.16 55.9069 105.424 58.1908 107.541 57.8101C108.114 57.715 108.07 56.9061 108.467 56.9061L109.349 56.7634Z" fill="#3C3C3B"/>
<path d="M10.4922 192H8.97656L2.73438 182.414H2.67188C2.75521 183.539 2.79688 184.57 2.79688 185.508V192H1.57031V180.578H3.07031L9.29688 190.125H9.35938C9.34896 189.984 9.32552 189.534 9.28906 188.773C9.2526 188.008 9.23958 187.461 9.25 187.133V180.578H10.4922V192ZM20.8281 187.711C20.8281 189.107 20.4766 190.198 19.7734 190.984C19.0703 191.766 18.099 192.156 16.8594 192.156C16.0938 192.156 15.4141 191.977 14.8203 191.617C14.2266 191.258 13.7682 190.742 13.4453 190.07C13.1224 189.398 12.9609 188.612 12.9609 187.711C12.9609 186.315 13.3099 185.229 14.0078 184.453C14.7057 183.672 15.6745 183.281 16.9141 183.281C18.112 183.281 19.0625 183.68 19.7656 184.477C20.474 185.273 20.8281 186.352 20.8281 187.711ZM14.3047 187.711C14.3047 188.805 14.5234 189.638 14.9609 190.211C15.3984 190.784 16.0417 191.07 16.8906 191.07C17.7396 191.07 18.3828 190.786 18.8203 190.219C19.263 189.646 19.4844 188.81 19.4844 187.711C19.4844 186.622 19.263 185.797 18.8203 185.234C18.3828 184.667 17.7344 184.383 16.875 184.383C16.026 184.383 15.3854 184.661 14.9531 185.219C14.5208 185.776 14.3047 186.607 14.3047 187.711ZM37.375 186.273C37.375 187.737 37.0807 188.953 36.4922 189.922C35.9036 190.891 35.0729 191.547 34 191.891L36.7188 194.719H34.7891L32.5625 192.141L32.1328 192.156C30.4505 192.156 29.151 191.643 28.2344 190.617C27.3229 189.586 26.8672 188.133 26.8672 186.258C26.8672 184.398 27.3255 182.958 28.2422 181.938C29.1589 180.911 30.4609 180.398 32.1484 180.398C33.7891 180.398 35.0703 180.919 35.9922 181.961C36.9141 183.003 37.375 184.44 37.375 186.273ZM28.2734 186.273C28.2734 187.82 28.6016 188.995 29.2578 189.797C29.9193 190.594 30.8776 190.992 32.1328 190.992C33.3984 190.992 34.3542 190.594 35 189.797C35.6458 189 35.9688 187.826 35.9688 186.273C35.9688 184.737 35.6458 183.573 35 182.781C34.3594 181.984 33.4089 181.586 32.1484 181.586C30.8828 181.586 29.9193 181.987 29.2578 182.789C28.6016 183.586 28.2734 184.747 28.2734 186.273ZM40.9531 183.438V188.992C40.9531 189.69 41.112 190.211 41.4297 190.555C41.7474 190.898 42.2448 191.07 42.9219 191.07C43.8177 191.07 44.4714 190.826 44.8828 190.336C45.2995 189.846 45.5078 189.047 45.5078 187.938V183.438H46.8047V192H45.7344L45.5469 190.852H45.4766C45.2109 191.273 44.8411 191.596 44.3672 191.82C43.8984 192.044 43.362 192.156 42.7578 192.156C41.7161 192.156 40.9349 191.909 40.4141 191.414C39.8984 190.919 39.6406 190.128 39.6406 189.039V183.438H40.9531ZM53.1797 192.156C51.9141 192.156 50.9141 191.771 50.1797 191C49.4505 190.229 49.0859 189.159 49.0859 187.789C49.0859 186.409 49.4245 185.312 50.1016 184.5C50.7839 183.688 51.6979 183.281 52.8438 183.281C53.9167 183.281 54.7656 183.635 55.3906 184.344C56.0156 185.047 56.3281 185.977 56.3281 187.133V187.953H50.4297C50.4557 188.958 50.7083 189.721 51.1875 190.242C51.6719 190.763 52.3516 191.023 53.2266 191.023C54.1484 191.023 55.0599 190.831 55.9609 190.445V191.602C55.5026 191.799 55.0677 191.94 54.6562 192.023C54.25 192.112 53.7578 192.156 53.1797 192.156ZM52.8281 184.367C52.1406 184.367 51.5911 184.591 51.1797 185.039C50.7734 185.487 50.5339 186.107 50.4609 186.898H54.9375C54.9375 186.081 54.7552 185.456 54.3906 185.023C54.026 184.586 53.5052 184.367 52.8281 184.367ZM59.7656 183.438V188.992C59.7656 189.69 59.9245 190.211 60.2422 190.555C60.5599 190.898 61.0573 191.07 61.7344 191.07C62.6302 191.07 63.2839 190.826 63.6953 190.336C64.112 189.846 64.3203 189.047 64.3203 187.938V183.438H65.6172V192H64.5469L64.3594 190.852H64.2891C64.0234 191.273 63.6536 191.596 63.1797 191.82C62.7109 192.044 62.1745 192.156 61.5703 192.156C60.5286 192.156 59.7474 191.909 59.2266 191.414C58.7109 190.919 58.4531 190.128 58.4531 189.039V183.438H59.7656ZM71.9922 192.156C70.7266 192.156 69.7266 191.771 68.9922 191C68.263 190.229 67.8984 189.159 67.8984 187.789C67.8984 186.409 68.237 185.312 68.9141 184.5C69.5964 183.688 70.5104 183.281 71.6562 183.281C72.7292 183.281 73.5781 183.635 74.2031 184.344C74.8281 185.047 75.1406 185.977 75.1406 187.133V187.953H69.2422C69.2682 188.958 69.5208 189.721 70 190.242C70.4844 190.763 71.1641 191.023 72.0391 191.023C72.9609 191.023 73.8724 190.831 74.7734 190.445V191.602C74.3151 191.799 73.8802 191.94 73.4688 192.023C73.0625 192.112 72.5703 192.156 71.9922 192.156ZM71.6406 184.367C70.9531 184.367 70.4036 184.591 69.9922 185.039C69.5859 185.487 69.3464 186.107 69.2734 186.898H73.75C73.75 186.081 73.5677 185.456 73.2031 185.023C72.8385 184.586 72.3177 184.367 71.6406 184.367ZM78.7188 190.141L78.8359 190.32C78.7005 190.841 78.5052 191.445 78.25 192.133C77.9948 192.826 77.7292 193.469 77.4531 194.062H76.4766C76.6172 193.521 76.7708 192.852 76.9375 192.055C77.1094 191.258 77.2292 190.62 77.2969 190.141H78.7188ZM90.7031 192L90.4453 190.781H90.3828C89.9557 191.318 89.5286 191.682 89.1016 191.875C88.6797 192.062 88.151 192.156 87.5156 192.156C86.6667 192.156 86 191.938 85.5156 191.5C85.0365 191.062 84.7969 190.44 84.7969 189.633C84.7969 187.904 86.1797 186.997 88.9453 186.914L90.3984 186.867V186.336C90.3984 185.664 90.2526 185.169 89.9609 184.852C89.6745 184.529 89.2135 184.367 88.5781 184.367C87.8646 184.367 87.0573 184.586 86.1562 185.023L85.7578 184.031C86.1797 183.802 86.6406 183.622 87.1406 183.492C87.6458 183.362 88.151 183.297 88.6562 183.297C89.6771 183.297 90.4323 183.523 90.9219 183.977C91.4167 184.43 91.6641 185.156 91.6641 186.156V192H90.7031ZM87.7734 191.086C88.5807 191.086 89.2135 190.865 89.6719 190.422C90.1354 189.979 90.3672 189.359 90.3672 188.562V187.789L89.0703 187.844C88.0391 187.88 87.2943 188.042 86.8359 188.328C86.3828 188.609 86.1562 189.049 86.1562 189.648C86.1562 190.117 86.2969 190.474 86.5781 190.719C86.8646 190.964 87.263 191.086 87.7734 191.086ZM100.203 192V186.461C100.203 185.763 100.044 185.242 99.7266 184.898C99.4089 184.555 98.9115 184.383 98.2344 184.383C97.3385 184.383 96.6823 184.625 96.2656 185.109C95.849 185.594 95.6406 186.393 95.6406 187.508V192H94.3438V183.438H95.3984L95.6094 184.609H95.6719C95.9375 184.188 96.3099 183.862 96.7891 183.633C97.2682 183.398 97.8021 183.281 98.3906 183.281C99.4219 183.281 100.198 183.531 100.719 184.031C101.24 184.526 101.5 185.32 101.5 186.414V192H100.203ZM102.812 183.438H104.203L106.078 188.32C106.49 189.435 106.745 190.24 106.844 190.734H106.906C106.974 190.469 107.115 190.016 107.328 189.375C107.547 188.729 108.255 186.75 109.453 183.438H110.844L107.164 193.188C106.799 194.151 106.372 194.833 105.883 195.234C105.398 195.641 104.802 195.844 104.094 195.844C103.698 195.844 103.307 195.799 102.922 195.711V194.672C103.208 194.734 103.529 194.766 103.883 194.766C104.773 194.766 105.409 194.266 105.789 193.266L106.266 192.047L102.812 183.438ZM127.305 192V186.43C127.305 185.747 127.159 185.237 126.867 184.898C126.576 184.555 126.122 184.383 125.508 184.383C124.701 184.383 124.104 184.615 123.719 185.078C123.333 185.542 123.141 186.255 123.141 187.219V192H121.844V186.43C121.844 185.747 121.698 185.237 121.406 184.898C121.115 184.555 120.659 184.383 120.039 184.383C119.227 184.383 118.63 184.628 118.25 185.117C117.875 185.602 117.688 186.398 117.688 187.508V192H116.391V183.438H117.445L117.656 184.609H117.719C117.964 184.193 118.307 183.867 118.75 183.633C119.198 183.398 119.698 183.281 120.25 183.281C121.589 183.281 122.464 183.766 122.875 184.734H122.938C123.193 184.286 123.562 183.932 124.047 183.672C124.531 183.411 125.083 183.281 125.703 183.281C126.672 183.281 127.396 183.531 127.875 184.031C128.359 184.526 128.602 185.32 128.602 186.414V192H127.305ZM138.672 187.711C138.672 189.107 138.32 190.198 137.617 190.984C136.914 191.766 135.943 192.156 134.703 192.156C133.938 192.156 133.258 191.977 132.664 191.617C132.07 191.258 131.612 190.742 131.289 190.07C130.966 189.398 130.805 188.612 130.805 187.711C130.805 186.315 131.154 185.229 131.852 184.453C132.549 183.672 133.518 183.281 134.758 183.281C135.956 183.281 136.906 183.68 137.609 184.477C138.318 185.273 138.672 186.352 138.672 187.711ZM132.148 187.711C132.148 188.805 132.367 189.638 132.805 190.211C133.242 190.784 133.885 191.07 134.734 191.07C135.583 191.07 136.227 190.786 136.664 190.219C137.107 189.646 137.328 188.81 137.328 187.711C137.328 186.622 137.107 185.797 136.664 185.234C136.227 184.667 135.578 184.383 134.719 184.383C133.87 184.383 133.229 184.661 132.797 185.219C132.365 185.776 132.148 186.607 132.148 187.711ZM144.859 183.281C145.24 183.281 145.581 183.312 145.883 183.375L145.703 184.578C145.349 184.5 145.036 184.461 144.766 184.461C144.073 184.461 143.479 184.742 142.984 185.305C142.495 185.867 142.25 186.568 142.25 187.406V192H140.953V183.438H142.023L142.172 185.023H142.234C142.552 184.466 142.935 184.036 143.383 183.734C143.831 183.432 144.323 183.281 144.859 183.281ZM151.102 192.156C149.836 192.156 148.836 191.771 148.102 191C147.372 190.229 147.008 189.159 147.008 187.789C147.008 186.409 147.346 185.312 148.023 184.5C148.706 183.688 149.62 183.281 150.766 183.281C151.839 183.281 152.688 183.635 153.312 184.344C153.938 185.047 154.25 185.977 154.25 187.133V187.953H148.352C148.378 188.958 148.63 189.721 149.109 190.242C149.594 190.763 150.273 191.023 151.148 191.023C152.07 191.023 152.982 190.831 153.883 190.445V191.602C153.424 191.799 152.99 191.94 152.578 192.023C152.172 192.112 151.68 192.156 151.102 192.156ZM150.75 184.367C150.062 184.367 149.513 184.591 149.102 185.039C148.695 185.487 148.456 186.107 148.383 186.898H152.859C152.859 186.081 152.677 185.456 152.312 185.023C151.948 184.586 151.427 184.367 150.75 184.367Z" fill="#A8AEBC"/>
<path d="M81.7596 147.141C69.6664 147.141 59.8629 146.202 59.8629 145.043C59.8629 143.885 69.6664 142.945 81.7596 142.945C93.8528 142.945 103.656 143.885 103.656 145.043C103.656 146.202 93.8528 147.141 81.7596 147.141Z" fill="#E8E8E8"/>
<path d="M92.9035 55.2051L78.0775 55.3252C78.0775 55.3252 78.7993 59.6132 79.0029 59.7518C79.2158 59.8905 81.113 61.7849 82.8622 61.7849C84.6205 61.7849 86.7954 62.0622 88.3409 61.1565C89.8865 60.2416 92.339 60.2416 92.6907 58.9109C93.0516 57.5801 92.9035 55.2051 92.9035 55.2051Z" fill="#D98D71"/>
<path d="M84.2773 97.2706C84.2773 97.2706 77.1234 87.1975 74.5414 93.7774C72.0981 100.006 70.9413 136.315 70.8302 140.178L65.5921 142.544C65.0183 142.794 65.1293 143.635 65.7494 143.727L74.2637 145.021C74.5599 145.067 74.8468 144.864 74.8931 144.559L75.4483 140.927C75.4391 140.927 75.4391 140.918 75.4391 140.918L84.2773 97.2706Z" fill="#D98D71"/>
<path d="M66.8138 141.99L65.583 142.545C65.0092 142.794 65.1202 143.635 65.7403 143.728L74.2546 145.021C74.5508 145.068 74.8377 144.864 74.884 144.559L75.1523 142.776C69.2108 143.728 67.3321 142.887 66.8138 141.99Z" fill="#FF5B7E"/>
<path d="M86.2473 96.228C86.2473 96.228 94.8357 87.3471 96.3997 94.2411C97.8805 100.766 93.54 136.835 93.068 140.67L97.8897 143.803C98.4173 144.135 98.1766 144.949 97.5566 144.949H88.9404C88.635 144.949 88.3944 144.699 88.3944 144.403V140.734C88.4037 140.734 88.4037 140.734 88.4129 140.725L86.2473 96.228Z" fill="#D98D71"/>
<path d="M83.3335 51.2793H87.7109V55.6505H83.3335V51.2793Z" fill="#D98D71"/>
<path d="M83.3335 53.9039V51.2793H87.7109V53.5065C86.767 54.024 85.3787 54.3105 83.3335 53.9039Z" fill="#B36B51"/>
<path d="M78.457 43.5237C78.2997 39.5037 81.5851 36.1214 85.722 36.26C89.8588 36.1214 93.1443 39.4945 92.9869 43.5237C93.4312 43.2927 93.3479 47.5622 92.5335 47.1648C92.4224 47.1094 92.3206 47.0354 92.2281 46.9523C91.7561 50.2792 88.9797 52.7651 85.722 52.7189C82.4643 52.7651 79.6879 50.2699 79.2159 46.9523C79.1234 47.0354 79.0216 47.1094 78.9105 47.1648C78.0961 47.5622 78.0036 43.3019 78.457 43.5237Z" fill="#EFAC7F"/>
<path d="M98.1796 95.1941C98.8182 103.132 94.6443 138.213 94.6443 138.213C89.5542 140.468 87.0277 138.213 87.0277 138.213C85.6765 104.796 85.5932 98.2437 85.5932 98.2437C81.5952 117.734 76.866 138.213 76.866 138.213C72.8958 139.174 69.379 136.586 69.379 136.586C71.2299 104.611 72.6274 92.1721 73.4881 90.4347C83.6405 89.2796 98.1796 95.1941 98.1796 95.1941Z" fill="#07085B"/>
<path d="M64.3407 123.899C67.0338 108.549 79.9168 75.4902 79.9168 75.4902L85.303 76.7471L85.3493 76.7378V76.6269L85.5899 76.6824L85.8306 76.6269V76.7378L85.8768 76.7471L91.2631 75.4902C91.2631 75.4902 103.899 92.5516 99.669 137.831C99.669 137.831 83.7461 142.309 65.8334 136.836C64.3407 137.831 64.3407 123.899 64.3407 123.899Z" fill="#030303"/>
<path d="M75.6128 56.8865C76.3902 56.1379 77.2416 55.6389 78.0745 55.3155C85.1451 63.4571 91.7715 56.7479 92.9006 55.1953C93.8353 55.5095 96.0842 56.5538 97.0837 57.6535C99.6473 60.4814 101.961 64.8248 101.961 64.8248C101.961 64.8248 97.713 68.5583 94.4091 68.965C94.4091 68.965 92.7988 76.3765 92.4749 76.8571C92.4749 76.8571 90.809 77.6334 88.3935 78.0492C87.5143 78.2156 86.6444 78.2895 85.8115 78.2895C85.7559 78.2895 85.7097 78.2895 85.6541 78.2895C85.5986 78.2895 85.5523 78.2895 85.4968 78.2895C84.6639 78.2895 83.8032 78.2156 82.9147 78.0492C80.49 77.6426 78.8334 76.8571 78.8334 76.8571C78.5095 76.3765 76.8992 68.965 76.8992 68.965C73.5952 68.5583 70.1247 65.407 70.1247 65.407C70.1247 65.407 72.8641 59.548 75.6128 56.8865Z" fill="#030303"/>
<path d="M92.0126 62.5977C92.3921 63.0597 92.7437 63.5403 93.0584 64.0393C93.3731 64.5383 93.66 65.0559 93.8913 65.5919C94.1227 66.1279 94.2985 66.6916 94.4003 67.2645C94.5021 67.8375 94.5114 68.429 94.4466 69.0296C94.6317 68.4567 94.6872 67.8375 94.6225 67.2368C94.5669 66.6269 94.3911 66.0354 94.1505 65.481C93.9098 64.9265 93.6044 64.3997 93.2435 63.9192C92.8826 63.4294 92.4754 62.9766 92.0126 62.5977Z" fill="#DAEEF7"/>
<path d="M79.3438 62.5977C78.9643 63.0597 78.6126 63.5403 78.298 64.0393C77.9833 64.5383 77.6964 65.0559 77.465 65.5919C77.2337 66.1279 77.0578 66.6916 76.956 67.2645C76.8542 67.8375 76.845 68.429 76.9098 69.0296C76.7247 68.4567 76.6691 67.8375 76.7339 67.2368C76.7895 66.6269 76.9653 66.0354 77.2059 65.481C77.4465 64.9265 77.7519 64.3997 78.1129 63.9192C78.4738 63.4294 78.881 62.9766 79.3438 62.5977Z" fill="#DAEEF7"/>
<path d="M92.783 82.6512C93.4123 82.2261 93.727 82.3739 95.0226 82.873L95.0319 82.8822C95.9944 81.5884 98.2525 72.8553 98.16 71.9682C98.1044 71.4414 97.1512 69.9997 95.9388 68.5858C98.0304 67.8373 100.177 66.2662 101.26 65.416C106.063 71.4876 100.427 81.6254 97.7065 84.6473C97.6232 84.7305 97.4473 84.8137 97.2345 84.9061C96.5126 85.1926 95.7075 85.2018 94.9763 84.943C94.8005 84.9246 94.4118 85.2018 94.347 85.5253C94.2452 86.0058 93.9768 86.7544 93.8288 86.7728C93.6252 86.7913 93.7547 85.3866 94.1434 84.5457C94.1434 84.5457 94.1804 84.2962 93.9676 84.4255C93.764 84.5549 93.4493 85.2757 93.1809 86.1167C93.1809 86.1167 92.9033 86.7913 92.8015 86.3293C92.7089 85.8764 93.1809 84.4995 93.3197 84.0744C93.3197 84.0744 93.3845 83.7694 93.1161 83.9727C92.9958 84.0651 92.5609 84.8137 92.2832 85.479C92.2832 85.479 92.0518 85.9042 91.9686 85.5992C91.9038 85.3497 92.1722 84.6658 92.6071 83.871C92.7922 83.6123 92.7274 83.5199 92.6256 83.5846C92.5423 83.6308 91.7094 84.712 91.5243 84.6011C91.4133 84.5179 92.1722 83.067 92.783 82.6512Z" fill="#D98D71"/>
<path d="M98.6572 71.9255L98.6572 71.9255L98.6576 71.9297C98.668 72.0366 98.6594 72.1619 98.6475 72.2755C98.6347 72.3983 98.6136 72.544 98.5863 72.7065C98.5317 73.032 98.4488 73.4442 98.3452 73.9128C98.138 74.8511 97.8441 76.0336 97.5168 77.237C97.1896 78.44 96.8274 79.6698 96.483 80.7017C96.2182 81.4949 95.9531 82.2054 95.7127 82.6952C96.1886 83.1621 96.7918 83.653 97.5409 84.0863C98.8535 82.5359 100.758 79.4554 101.828 76.0357C102.907 72.5865 103.099 68.9286 101.162 66.1331C100.122 66.9233 98.4708 68.0743 96.7655 68.8067C97.2024 69.3465 97.5924 69.8758 97.9009 70.3446C98.1058 70.656 98.2791 70.9473 98.4068 71.2017C98.5269 71.441 98.6333 71.6983 98.6572 71.9255Z" fill="white" stroke="#E8EAEF"/>
<path d="M71.1809 86.3388C71.1809 86.3296 71.1809 86.3296 71.1809 86.3388L71.3012 84.9803C71.2642 82.2726 71.2457 73.4656 72.2082 67.0059C73.4853 67.8468 75.1882 68.7617 76.8633 68.9743C75.7157 73.2253 74.8735 80.3504 74.6699 86.3388C75.364 87.6788 76.2987 89.5271 76.2247 89.6472C76.1229 89.8228 75.9471 89.8043 74.5959 88.6307C74.5126 88.5568 74.3645 88.603 74.346 88.7139C74.2072 89.5918 73.7444 92.355 73.5131 92.3734C73.2262 92.3919 73.5779 89.9152 73.3465 89.7951C73.1151 89.675 72.8375 92.1054 72.5321 92.0777C72.2267 92.05 72.5506 89.8505 72.4303 89.7951C72.3007 89.7396 71.7547 91.819 71.5696 91.9114C71.3752 92.0038 71.6899 89.7119 71.5511 89.601C71.4215 89.4901 70.6626 91.0057 70.5238 90.9595C70.385 90.9133 70.2832 90.9041 70.968 87.0319C70.968 87.0134 71.0791 86.6992 71.1809 86.3388Z" fill="#D98D71"/>
<path d="M71.8036 84.9766L71.8039 85.0004L71.8019 85.0241L71.7579 85.5415C72.5182 85.655 73.3636 85.735 74.2003 85.7202C74.4375 80.0778 75.2024 73.567 76.254 69.3685C74.9424 69.0951 73.6632 68.4699 72.606 67.8327C71.7514 74.1622 71.7769 82.3713 71.8036 84.9766Z" fill="white" stroke="#E8EAEF"/>
<path d="M92.216 46.9549C90.9018 41.2253 85.423 39.7928 85.423 39.7928C85.423 39.7928 80.5828 40.8001 79.2131 46.9549C76.7421 42.0108 79.9535 36.7894 84.5993 36.2904C89.2545 35.8006 95.1775 39.377 92.216 46.9549Z" fill="#FBFBFB"/>
<path d="M92.3119 45.4102C91.8862 50.2988 88.6008 52.7201 85.7226 52.7201C82.8444 52.7201 79.3461 49.347 78.9666 45.4102C78.763 50.3358 79.1332 59.8914 85.9817 60.566C92.3397 59.0874 92.6266 49.846 92.3119 45.4102Z" fill="#FBFBFB"/>
<path d="M76.1238 49.3561C75.8647 37.8968 78.4098 32.8418 85.684 32.8418C91.6347 32.8418 94.6425 37.0651 94.5592 46.7685C94.4759 55.4554 97.6781 56.3056 98.8164 59.8174C94.6148 59.3738 90.9869 68.9201 83.3333 70.4542C75.6796 71.9975 70.969 72.6814 70.497 70.7592C71.4224 58.5143 76.2812 55.8251 76.1238 49.3561ZM79.2149 46.9534C79.1316 52.988 85.721 58.5143 85.721 58.5143C85.721 58.5143 92.0142 53.792 92.227 46.9534C92.3751 42.0924 91.0517 36.6955 85.5174 36.6955C80.2514 36.6955 79.2797 42.3327 79.2149 46.9534Z" fill="#010101"/>
<g clip-path="url(#clip0)">
<path d="M75.31 141.154C75.31 141.154 75.4133 141.932 75.6707 143.256C75.9282 144.582 75.6707 145.791 75.6707 145.791C75.6707 145.791 64.964 145.618 64.5524 145.157C64.1408 144.696 64.4367 143.156 64.5524 143.026C64.668 142.896 66.0447 142.536 66.7662 142.046C67.4861 141.556 69.9574 139.684 70.756 139.828C71.5546 139.972 71.8891 140.751 73.4076 140.952C74.9246 141.154 74.9508 140.751 75.31 141.154Z" fill="#D1EAF2"/>
<path d="M55.8615 155.744C65.6701 155.744 73.6215 154.968 73.6215 154.011C73.6215 153.055 65.6701 152.279 55.8615 152.279C46.053 152.279 38.1016 153.055 38.1016 154.011C38.1016 154.968 46.053 155.744 55.8615 155.744Z" fill="#E8E8E8"/>
<path d="M56.1236 107.755C56.1236 107.755 48.1218 99.3305 46.6656 105.87C45.2919 112.058 49.3303 146.251 49.7657 149.891L45.2769 152.859C44.789 153.179 45.0067 153.95 45.5922 153.95H53.6164C53.9017 153.95 54.1269 153.714 54.1269 153.431V149.952C54.1194 149.952 54.1194 149.952 54.1119 149.944L56.1236 107.755Z" fill="#D98D71"/>
<path d="M46.3353 152.165L45.2769 152.86C44.789 153.18 45.0067 153.951 45.5922 153.951H53.6164C53.9017 153.951 54.1269 153.714 54.1269 153.432V151.723C48.7824 153.447 46.9433 152.921 46.3353 152.165Z" fill="#07085B"/>
<path d="M55.3125 107.755C55.3125 107.755 63.3142 99.3305 64.7705 105.87C66.1441 112.058 62.1057 146.251 61.6704 149.891L66.1591 152.859C66.6471 153.179 66.4294 153.95 65.8439 153.95H57.8196C57.5344 153.95 57.3092 153.714 57.3092 153.431V149.952C57.3167 149.952 57.3167 149.952 57.3242 149.944L55.3125 107.755Z" fill="#D98D71"/>
<path d="M65.0966 152.165L66.155 152.86C66.6429 153.18 66.4252 153.951 65.8397 153.951H57.8229C57.5377 153.951 57.3125 153.714 57.3125 153.432V151.723C62.6495 153.447 64.4961 152.921 65.0966 152.165Z" fill="#07085B"/>
<path d="M57.4078 65.0547H53.1367V72.6776H57.4078V65.0547Z" fill="#D98D71"/>
<path d="M57.4003 66.3598V63.7578H53.1367V65.9707C54.0525 66.4743 55.4111 66.7642 57.4003 66.3598Z" fill="#B36B51"/>
<path d="M51.793 67.8301H58.7363L58.4436 68.9518L54.0449 71.9811C54.0449 71.9811 53.0465 70.0048 52.8589 69.7911C52.6712 69.5927 51.793 67.8301 51.793 67.8301Z" fill="#D98D71"/>
<path d="M34.7392 99.6504C34.4915 99.8488 34.2663 100.001 34.2663 100.001C31.8943 102.23 31.9544 102.283 32.0219 102.382C32.0895 102.481 33.3205 101.856 33.3506 101.993C33.3806 102.13 32.0445 103.496 32.2096 103.527C32.3747 103.565 33.7634 102.451 33.8084 102.55C33.861 102.649 32.5474 103.946 32.7275 104.114C32.9077 104.282 34.2964 102.809 34.3864 103.008C34.4765 103.199 33.0128 104.671 33.2079 104.801C33.3656 104.908 35.0395 103.305 35.5649 102.794C35.6325 102.726 35.7451 102.764 35.7601 102.863C36.0228 104.313 36.1279 104.412 36.278 104.343C36.3831 104.297 36.7659 102.367 36.9911 101.131L34.7392 99.6504C34.7467 99.6504 34.7392 99.6504 34.7392 99.6504Z" fill="#D98D71"/>
<path d="M71.9639 100.398C72.2567 100.597 72.5269 100.749 72.5269 100.749C75.3943 103.046 75.3343 103.115 75.2667 103.237C75.1991 103.359 73.7579 102.756 73.7354 102.916C73.7129 103.077 75.3418 104.496 75.1541 104.549C74.9739 104.603 73.3151 103.481 73.2625 103.595C73.21 103.71 74.8013 105.061 74.6136 105.267C74.426 105.473 72.7296 103.939 72.647 104.168C72.5644 104.397 74.3359 105.923 74.1332 106.083C73.9606 106.22 71.9414 104.557 71.3034 104.023C71.2208 103.954 71.0932 104.008 71.0857 104.114C70.913 105.778 70.8079 105.892 70.6278 105.831C70.5002 105.785 69.9072 103.641 69.5469 102.268L71.9639 100.398C71.9639 100.391 71.9639 100.391 71.9639 100.398Z" fill="#D98D71"/>
<path d="M73.4961 99.3687C72.4377 94.4776 70.2533 84.5883 69.4802 81.0935C69.3301 80.4144 69.195 79.7429 69.0749 79.0562C68.7296 77.1409 67.6637 72.2116 65.4343 70.0063C62.6344 67.2441 58.7687 67.8316 58.7687 67.8316C58.3333 68.2742 57.9054 68.6023 57.4776 68.8541C56.8771 69.167 56.1264 69.434 55.2857 69.4646C54.4525 69.434 53.6944 69.167 53.0939 68.8541C52.666 68.6023 52.2306 68.2742 51.8028 67.8316C51.8028 67.8316 46.736 67.8316 44.6943 70.6244C43.3432 72.471 41.1588 82.2152 40.0254 86.6791C39.665 88.0908 36.5199 94.6225 34.6358 97.5985C34.0728 98.4912 34.2154 99.6663 34.9736 100.391L35.3714 100.773C36.3022 101.658 37.7735 101.536 38.5541 100.513C40.6484 97.774 43.9587 91.8374 44.7093 89.9603C45.7752 87.3048 46.4583 82.5968 46.4583 82.5968C46.5859 83.2072 48.1097 90.2731 48.4249 90.7538C48.4249 90.7538 50.1214 91.5627 52.591 91.99C53.4917 92.1655 54.3699 92.2342 55.2182 92.2418H55.2257C55.2407 92.2418 55.2557 92.2418 55.2782 92.2418C55.3007 92.2418 55.3082 92.2418 55.3308 92.2418H55.3383C56.1865 92.2342 57.0722 92.1655 57.9655 91.99C60.4351 91.5627 62.1315 90.7538 62.1315 90.7538C62.4468 90.2731 63.963 83.2072 64.0982 82.5968L67.9114 100.597C68.2266 102.085 69.6829 103.024 71.1391 102.673L71.4844 102.589C72.9181 102.261 73.8113 100.819 73.4961 99.3687Z" fill="black"/>
<path d="M48.5051 77.0723C48.1824 77.4691 47.8896 77.8811 47.6194 78.3084C47.3492 78.7357 47.109 79.1783 46.9138 79.6438C46.7186 80.1016 46.5685 80.59 46.4859 81.0783C46.4034 81.5743 46.3884 82.0856 46.4484 82.5968C46.2908 82.1084 46.2457 81.5743 46.2983 81.0554C46.3508 80.5365 46.4934 80.0253 46.6961 79.5446C46.8988 79.0638 47.1615 78.6136 47.4618 78.2016C47.777 77.7895 48.1148 77.4004 48.5051 77.0723Z" fill="#DAEEF7"/>
<path d="M55.2664 69.6156C58.9821 71.2333 58.7719 68.1506 58.7419 67.853C58.314 68.2803 57.8936 68.6084 57.4733 68.8526C56.8728 69.1654 56.1221 69.4325 55.2814 69.463C54.4482 69.4325 53.6901 69.1654 53.0896 68.8526C52.6617 68.6008 52.2264 68.2727 51.7985 67.8301C51.791 67.8301 51.3631 71.3096 55.2664 69.6156Z" fill="#E03268"/>
<path d="M62.1758 77.0723C62.4986 77.4691 62.7913 77.8811 63.0615 78.3084C63.3318 78.7357 63.572 79.1783 63.7671 79.6438C63.9623 80.1016 64.1124 80.59 64.195 81.0783C64.2776 81.5743 64.2926 82.0856 64.2325 82.5968C64.3902 82.1084 64.4352 81.5743 64.3826 81.0554C64.3301 80.5365 64.1875 80.0253 63.9848 79.5446C63.7821 79.0638 63.5194 78.6136 63.2192 78.2016C62.9039 77.7895 62.5661 77.4004 62.1758 77.0723Z" fill="#DAEEF7"/>
<path d="M62.0705 56.6222C62.2206 52.6925 59.068 49.3961 55.0971 49.5334C51.1263 49.3961 47.9811 52.7001 48.1237 56.6222C47.6959 56.4009 47.7785 60.5672 48.5591 60.1781C48.6642 60.1247 48.7618 60.056 48.8519 59.972C49.3022 63.215 51.967 65.6492 55.0896 65.6034C58.2123 65.6492 60.877 63.215 61.3274 59.972C61.4175 60.056 61.515 60.1247 61.6201 60.1781C62.4158 60.5672 62.4984 56.4009 62.0705 56.6222Z" fill="#EFAC7F"/>
<path d="M60.2452 88.0898L55.2309 89.2878L55.1934 89.2802V89.1734L54.9682 89.2268L54.743 89.1734V89.2802L54.7055 89.2878L49.6913 88.0898C49.6913 88.0898 42.2149 101.329 41.6895 121.931C41.3893 133.759 41.1641 147.799 41.1641 147.799C52.5737 150.546 70.5889 147.799 70.5889 147.799C70.4388 137.788 70.7315 128.959 70.0635 121.931C67.4212 94.1561 60.2452 88.0898 60.2452 88.0898Z" fill="black"/>
<path d="M55.1425 92.5386C54.0091 92.5386 53.0032 92.4394 52.1625 92.3096C50.2109 92.0044 48.8147 91.4932 48.1917 91.2261C47.989 91.1422 47.8989 90.898 47.9965 90.6996C48.0866 90.5165 48.2968 90.4402 48.4769 90.5165C49.8356 91.0888 55.3452 93.0269 62.0859 90.4936C62.2811 90.4173 62.4913 90.5241 62.5663 90.7149C62.6414 90.9133 62.5438 91.1422 62.3411 91.2185C59.6689 92.2181 57.1993 92.5386 55.1425 92.5386Z" fill="#010101"/>
<path d="M48.5078 56.6152C52.4787 53.4103 58.8966 53.891 62.0718 56.6304C61.9441 52.0368 59.2419 49.9766 54.5879 49.9766C49.1834 49.9766 48.5078 56.6152 48.5078 56.6152Z" fill="#717192"/>
<path d="M54.4116 150.609C54.4116 150.609 54.5148 151.387 54.7723 152.712C55.0297 154.037 54.7723 155.246 54.7723 155.246C54.7723 155.246 44.0656 155.073 43.6539 154.612C43.2423 154.151 43.5383 152.611 43.6539 152.481C43.7696 152.351 45.1463 151.991 45.8678 151.501C46.5877 151.011 49.059 149.139 49.8575 149.283C50.6561 149.427 50.9906 150.206 52.5092 150.407C54.0261 150.609 54.0524 150.206 54.4116 150.609Z" fill="#D1EAF2"/>
<path d="M57.3541 150.609C57.3541 150.609 57.2508 151.387 56.9933 152.712C56.7359 154.037 56.9933 155.246 56.9933 155.246C56.9933 155.246 67.7001 155.073 68.1117 154.612C68.5233 154.151 68.2273 152.611 68.1117 152.481C67.9961 152.351 66.6194 151.991 65.8979 151.501C65.1779 151.011 62.7067 149.139 61.9081 149.283C61.1095 149.427 60.775 150.206 59.2565 150.407C57.7395 150.609 57.7133 150.206 57.3541 150.609Z" fill="#D1EAF2"/>
<path d="M49.2049 58.9111C50.2557 64.7256 54.4368 65.6107 55.285 65.6107C56.1407 65.6107 60.7346 64.0312 61.3126 58.7051C63.6696 67.3734 59.3234 75.6144 55.5927 75.6678C51.8621 75.7212 47.7937 68.724 47.8762 66.5493C47.9588 64.3746 49.2049 58.9111 49.2049 58.9111Z" fill="#717192"/>
<path d="M66.009 67.8316C64.3801 64.4513 65.0857 60.7123 64.3951 56.0806C63.2842 48.6865 60.672 45.7793 55.3725 45.7793C49.1047 45.7793 46.2523 49.5335 46.1022 58.6521C45.9896 65.6035 45.3591 68.1063 43.4449 71.9903C41.5308 75.8819 40.1797 83.3522 40.1797 83.3522C45.1939 88.5333 51.9571 85.443 57.5118 86.3357C63.0665 87.2285 70.4677 86.1908 71.361 85.2751C70.8731 71.9903 67.3001 70.5328 66.009 67.8316ZM55.2524 71.9521C54.3742 71.8835 51.5518 68.5107 50.8612 64.3521C50.2382 60.5597 49.6076 55.9279 52.355 52.1661C53.9013 50.0448 56.2207 50.2355 57.8046 51.7082C59.1782 52.9902 60.4543 55.6304 60.3642 60.4071C60.2216 67.7706 56.7161 72.0666 55.2524 71.9521Z" fill="black"/>
</g>
<path d="M88.2017 141.154C88.2017 141.154 88.0984 141.932 87.841 143.256C87.5835 144.582 87.841 145.791 87.841 145.791C87.841 145.791 98.5477 145.618 98.9593 145.157C99.371 144.696 99.075 143.156 98.9593 143.026C98.8437 142.896 97.467 142.536 96.7455 142.046C96.0256 141.556 93.5543 139.684 92.7557 139.828C91.9572 139.972 91.6226 140.751 90.1041 140.952C88.5871 141.154 88.5609 140.751 88.2017 141.154Z" fill="#D1EAF2"/>
<defs>
<clipPath id="clip0">
<rect width="43.289" height="109.964" fill="white" transform="translate(32 45.7793)"/>
</clipPath>
</defs>
</svg>
