<svg width="237" height="127" viewBox="0 0 237 127" fill="none" xmlns="http://www.w3.org/2000/svg">
<g clip-path="url(#clip0)">
<path opacity="0.3" d="M226.291 126.817L15.7625 126.755C15.7625 126.755 8.87865 117.08 4.20998 102.259C4.05215 101.762 3.89751 101.257 3.74685 100.747C2.03386 94.9929 0.684357 88.5193 0.19812 81.5716C0.163047 81.0713 0.131163 80.5669 0.105655 80.0601C-0.175725 74.6096 0.0857274 68.8841 1.12197 63.0003C1.13791 62.9092 1.15465 62.8173 1.17139 62.727C1.26226 62.2186 1.35792 61.7134 1.45676 61.2147C2.85728 54.1895 5.0573 48.1331 8.064 43.0222C8.34698 42.5411 8.63713 42.0695 8.93365 41.6051C18.4137 26.7993 35.1626 20.4967 59.3588 22.1138C77.6214 23.3343 94.0347 23.5086 114.249 11.2239C121.827 6.61823 139.19 0.132588 153.423 0.00309843C187.165 -0.303839 224.809 22.2121 219.647 59.3051C219.621 59.4929 219.594 59.6824 219.564 59.8718C219.458 60.5856 219.335 61.305 219.194 62.0308C218.884 63.6406 218.672 65.3295 218.014 66.945C204.387 100.391 243.636 97.422 226.291 126.817Z" fill="#D2F1FF"/>
<path opacity="0.5" d="M136.59 36.1519H99.8027V123.946H136.59V36.1519Z" fill="white"/>
<path d="M126.734 104.616L126.707 105.978L126.353 123.267L126.338 123.914H124.552L124.537 123.288L124.133 105.978L124.102 104.616H126.734Z" fill="#D0DCF9"/>
<path d="M131.247 105.975H119.588C118.913 105.975 118.367 105.427 118.367 104.751V104.617H132.467V104.751C132.467 105.426 131.921 105.975 131.247 105.975Z" fill="#D0DCF9"/>
<path d="M133.783 104.618H118.024C117.374 104.618 116.842 104.085 116.842 103.433V102.149C116.842 101.497 117.373 100.964 118.024 100.964H133.783C134.433 100.964 134.965 101.497 134.965 102.149V103.433C134.965 104.085 134.433 104.618 133.783 104.618Z" fill="#EBD6CB"/>
<path d="M133.883 103.729H123.541C122.891 103.729 122.359 103.196 122.359 102.544V77.5565C122.359 76.9042 122.891 76.3711 123.541 76.3711H133.883C134.534 76.3711 135.065 76.9042 135.065 77.5565V102.545C135.065 103.196 134.534 103.729 133.883 103.729Z" fill="#EBD6CB"/>
<path d="M117.256 87.4976C117.256 87.4976 110.586 94.2334 110.727 94.6594C110.868 95.0855 110.994 95.6122 111.81 95.8448C111.81 95.8448 114.429 95.7169 116.366 94.462C118.302 93.2071 117.256 87.4976 117.256 87.4976Z" fill="#AEBBD2"/>
<path d="M127.182 98.2988C127.182 98.2988 127.182 103.537 123.931 104.123C123.858 104.135 123.785 104.147 123.7 104.159C123.506 104.184 123.299 104.208 123.067 104.22C123.067 104.22 123.067 104.22 123.055 104.22C119.987 104.366 114.131 103.28 112.086 103.609C111.574 103.695 111.306 103.866 111.355 104.159C111.987 107.309 107.799 121.508 107.069 123.913L102.584 123.922C102.609 123.276 103.562 101.619 104.731 99.4825C105.072 98.8479 106.423 98.1149 108.152 97.3947C109.175 96.9671 110.331 96.5523 111.488 96.1494C111.901 96.0151 112.328 95.8688 112.742 95.7345C113.436 95.5147 114.117 95.3069 114.763 95.0999C115.104 95.0024 115.445 94.9041 115.762 94.8065C117.649 94.2574 119.012 93.9033 119.012 93.9033L122.057 95.5395L122.349 95.6986L123.311 96.2109L124.565 96.8944L124.979 97.1142L126.026 97.6761L127.182 98.2988Z" fill="#AEBBD2"/>
<path d="M128.562 103.688C127.218 103.932 125.384 104.018 123.699 104.151C123.697 104.151 123.695 104.151 123.694 104.152C123.481 104.168 123.271 104.186 123.066 104.206H123.058C120.948 104.398 119.22 104.712 119.238 105.595C119.348 110.583 117.2 120.687 116.481 123.916H111.051C111.133 120.803 111.462 109.586 112.08 103.6C112.271 101.747 112.49 100.394 112.737 99.9396C113.205 99.0803 115.425 98.2267 117.938 97.5089C118.038 97.4801 118.139 97.4513 118.24 97.4233C119.478 97.078 120.772 96.7663 121.951 96.5041C122.1 96.4706 122.247 96.4378 122.39 96.4066C122.556 96.3714 122.719 96.3355 122.878 96.3011C123.023 96.2707 123.165 96.2411 123.303 96.2124C125.046 95.8487 126.296 95.6321 126.296 95.6321L127.044 95.6856L128.957 95.8223L130.433 95.9278C130.433 95.9278 130.532 96.4402 130.614 97.2027C130.841 99.2897 130.943 103.254 128.562 103.688Z" fill="#B3C0DE"/>
<path d="M121.77 76.2272C122.765 76.5597 123.663 76.443 124.412 76.1505C125.097 75.8843 125.654 75.4702 126.042 75.1209C126.44 74.762 126.661 74.4711 126.661 74.4711C126.661 74.4711 126.623 74.4311 126.556 74.3512C126.209 73.9316 125.115 72.3985 125.041 69.6568C125.04 69.6209 124.783 69.7144 124.398 69.8751C123.254 70.3538 120.972 71.4289 120.871 71.4769C120.869 71.4769 120.867 71.4777 120.867 71.4777C120.867 71.4777 120.93 72.0468 120.997 73.0739C121.003 73.1642 121.01 73.2593 121.016 73.3569C121.023 73.4776 121.032 73.6054 121.039 73.7365C121.099 74.8052 121.77 76.2272 121.77 76.2272Z" fill="#F7E2D8"/>
<path d="M120.997 73.0731C122.842 73.189 125.063 70.1204 125.063 70.1204C124.846 70.0077 124.623 69.927 124.398 69.875C123.254 70.3538 120.972 71.4289 120.871 71.4768C120.869 71.4768 120.867 71.4776 120.867 71.4776C120.867 71.4776 120.93 72.046 120.997 73.0731Z" fill="#E8D6D1"/>
<path d="M120.112 71.4554C120.112 71.4554 120.886 71.5977 121.839 71.5697C123.231 71.5297 125.006 71.1253 125.298 69.3796C125.789 66.4405 126.728 64.5725 123.751 63.8963C122.158 63.5342 121.197 63.6597 120.586 63.9986C120.055 64.2919 119.788 64.7467 119.601 65.1848C119.199 66.1256 118.904 71.1541 120.112 71.4554Z" fill="#F7E2D8"/>
<path d="M120.676 61.9195C119.464 62.1193 118.189 63.3694 119.044 64.2527C119.63 64.8578 120.435 65.3406 122.04 65.3454C122.809 65.3478 123.1 66.6866 123.173 67.0551C123.247 67.4244 123.346 67.7289 124.253 67.3516C124.401 67.2901 124.514 67.2821 124.598 67.3157C125.027 67.4835 124.712 68.6937 124.601 68.9623C124.601 68.9623 124.517 69.8055 125.062 70.1197C125.128 70.1572 126.141 70.4154 127.846 66.5443C128.114 65.9368 128.253 64.6444 127.506 63.5453C126.759 62.447 124.501 61.2896 120.676 61.9195Z" fill="#F0CBB7"/>
<path d="M130.768 94.8849C130.784 95.697 130.804 96.4196 130.827 96.9887C130.862 97.8304 121.991 97.7784 119.533 97.573C118.734 97.5059 116.586 96.4116 114.773 95.0624C113.827 94.359 116.599 82.908 116.644 79.9761C116.676 77.8723 116.689 74.6055 120.974 73.8549C121.012 73.8493 121.032 73.8461 121.032 73.8461C121.464 74.0899 122.178 75.161 122.39 75.2489L125.81 73.4441C125.873 73.4553 125.932 73.4697 125.994 73.4825C126.195 73.4393 130.077 73.9237 131.173 75.0627C132.108 76.0355 130.604 81.8345 130.604 81.8345C130.638 82.6562 130.658 83.5618 130.671 84.5138C130.681 85.3099 130.687 86.1388 130.691 86.9781C130.701 89.2258 130.72 92.4518 130.768 94.8849Z" fill="#B3C2E0"/>
<path d="M125.55 72.4984C125.534 72.504 122.391 75.2481 122.391 75.2481C122.391 75.2481 126.32 74.3344 126.756 73.5463C126.755 73.5455 126.177 72.289 125.55 72.4984Z" fill="#B3C2E0"/>
<path d="M122.391 75.2473L120.98 72.823C120.98 72.823 120.354 73.2578 120.273 74.0348C120.273 74.0356 121.873 75.2473 122.391 75.2473Z" fill="#B3C2E0"/>
<path d="M121.223 96.1243C121.223 96.1243 119.992 96.2706 118.868 96.7582C118.342 96.986 117.978 97.464 117.71 97.7789C116.874 98.7669 118.761 98.4951 119.746 98.2977C120.732 98.1002 120.879 98.3968 122.028 97.87C122.389 97.7046 122.388 97.464 122.586 97.3025C123.021 96.9476 123.391 96.7182 123.391 96.7182L122.258 95.7966L121.223 96.1243Z" fill="#F7E2D8"/>
<path d="M121.693 96.1245C121.693 96.1245 121.011 96.059 120.47 96.0422C119.929 96.0254 119.156 95.9926 119.452 96.2069C119.748 96.4211 120.24 96.6345 120.323 96.6185C120.405 96.6025 121.693 96.1245 121.693 96.1245Z" fill="#F7E2D8"/>
<path d="M130.769 94.885C129.287 95.7363 126.061 97.3933 122.588 97.3021L122.26 95.7962C122.26 95.7962 128.694 88.8829 128.957 83.0879L130.672 84.5139C130.681 85.31 130.688 86.1389 130.692 86.9782C130.702 89.2258 130.721 92.4519 130.769 94.885Z" fill="#AEBBD2"/>
<path d="M131.417 75.6206C131.417 75.6206 134.03 87.9756 133.341 90.7413C132.651 93.5069 123.409 97.4084 123.409 97.4084C123.409 97.4084 121.472 97.2109 121.965 95.6307C121.965 95.6307 129.352 88.9148 129.254 88.026C129.155 87.1372 126.693 78.248 126.693 78.248L131.417 75.6206Z" fill="#B3C2E0"/>
<path d="M110.8 94.8728C110.8 94.8728 108.765 96.3547 108.47 96.7824C108.174 97.21 107.78 98.2307 108.109 98.3954C108.437 98.56 109.356 97.3587 109.898 97.1117C110.44 96.8647 109.849 97.7783 110.021 97.8774C110.193 97.9765 110.981 97.2356 111.104 96.939C111.227 96.6425 111.67 95.8032 111.67 95.8032C111.67 95.8032 111.039 95.4491 110.8 94.8728Z" fill="#F7E2D8"/>
<path d="M139.433 126.779H96.9785V34.4238H139.433V126.779ZM99.8346 123.914H136.577V37.2878H99.8346V123.914Z" fill="#FF9843"/>
<path opacity="0.1" d="M99.8027 87.4761L136.59 60.0627V123.946H99.8027V87.4761Z" fill="#94B0ED"/>
<path d="M117.236 35.7123C117.236 35.2399 117.618 34.8562 118.09 34.8562C118.561 34.8562 118.944 35.2391 118.944 35.7123C118.944 36.1847 118.562 36.5683 118.09 36.5683C117.618 36.5683 117.236 36.1847 117.236 35.7123Z" fill="#F9DDBF"/>
<path d="M97.6855 35.8602C97.6855 35.3878 98.0674 35.0042 98.5392 35.0042C99.0111 35.0042 99.393 35.387 99.393 35.8602C99.393 36.3326 99.0111 36.7163 98.5392 36.7163C98.0674 36.7163 97.6855 36.3326 97.6855 35.8602Z" fill="#F9DDBF"/>
<path d="M138.117 36.6667C138.589 36.6667 138.971 36.2835 138.971 35.8107C138.971 35.3379 138.589 34.9546 138.117 34.9546C137.646 34.9546 137.264 35.3379 137.264 35.8107C137.264 36.2835 137.646 36.6667 138.117 36.6667Z" fill="#F9DDBF"/>
<path d="M137.264 60.9635C137.264 60.4911 137.645 60.1074 138.117 60.1074C138.588 60.1074 138.971 60.4903 138.971 60.9635C138.971 61.4359 138.589 61.8196 138.117 61.8196C137.646 61.8196 137.264 61.4359 137.264 60.9635Z" fill="#F9DDBF"/>
<path d="M138.117 84.8567C138.589 84.8567 138.971 84.4734 138.971 84.0006C138.971 83.5278 138.589 83.1445 138.117 83.1445C137.646 83.1445 137.264 83.5278 137.264 84.0006C137.264 84.4734 137.646 84.8567 138.117 84.8567Z" fill="#F9DDBF"/>
<path d="M98.6726 62.149C99.1082 61.9681 99.3151 61.4673 99.1347 61.0305C98.9542 60.5936 98.4548 60.3862 98.0192 60.5672C97.5836 60.7481 97.3767 61.2489 97.5572 61.6857C97.7376 62.1225 98.237 62.3299 98.6726 62.149Z" fill="#F9DDBF"/>
<path d="M207.874 125.857L204.279 112.542H207.08L209.099 125.786C209.143 126.075 208.95 126.34 208.696 126.34H208.442C208.181 126.34 207.952 126.144 207.874 125.857Z" fill="#AEC3FF"/>
<path d="M167.679 125.857L171.274 112.542H168.473L166.454 125.786C166.41 126.075 166.603 126.34 166.857 126.34H167.111C167.371 126.34 167.601 126.144 167.679 125.857Z" fill="#AEC3FF"/>
<path d="M189.555 125.857L185.961 112.542H188.762L190.781 125.786C190.825 126.075 190.632 126.34 190.378 126.34H190.124C189.864 126.34 189.633 126.144 189.555 125.857Z" fill="#AEC3FF"/>
<path d="M210.163 80.8778C210.163 80.8778 202.726 79.2488 188.375 80.8778L186.729 97.653L206.431 96.6762L210.163 80.8778Z" fill="#DB6A1D"/>
<path d="M165.791 106.162C165.791 106.162 164.38 91.1474 170.823 91.1474C177.266 91.1474 178.551 91.0746 177.972 85.1173C177.372 78.9442 188.022 81.0664 188.022 81.0664L184.283 106.162H165.791Z" fill="#F99746"/>
<path d="M169.477 106.162C169.477 106.162 168.065 91.1473 174.508 91.1473C180.951 91.1473 182.879 90.129 183.775 84.2109C184.37 80.2838 191.045 80.5996 191.045 80.5996C191.045 80.5996 189.51 84.9223 188.517 92.0753C187.912 96.442 187.969 106.162 187.969 106.162H169.477Z" fill="#ED7D2B"/>
<path d="M187.774 113.455H207.628C208.442 113.455 209.108 112.788 209.108 111.972V106.162H186.254V111.93C186.254 112.77 186.938 113.455 187.774 113.455Z" fill="#ED7D2B"/>
<path d="M167.362 113.455H188.593C189.432 113.455 190.119 112.766 190.119 111.925V106.162H165.793V111.882C165.793 112.747 166.499 113.455 167.362 113.455Z" fill="#F99746"/>
<path d="M169.472 106.162C169.472 106.162 169.279 104.695 170.205 104.024C172.534 102.338 183.416 99.9517 188.457 99.6631C197.001 99.1748 195.434 106.162 195.434 106.162H169.472Z" fill="#DB6A1D"/>
<path d="M186.388 106.162C186.388 106.162 184.939 91.1473 191.557 91.1473C198.175 91.1473 202.068 91.7532 200.693 84.2508C199.876 79.7946 203.015 79.8458 209.282 80.3621C210.054 80.4261 211.334 81.4508 211.152 82.2061L205.384 106.162H186.388Z" fill="#F99746"/>
<path d="M190.119 106.162C190.119 106.162 188.687 90.6629 195.288 91.1473C203.607 91.7579 205.27 92.0825 203.662 84.8622C202.521 79.7426 205.95 79.9153 210.266 80.4764C210.861 80.5539 211.512 81.0048 211.377 81.8792L209.115 106.161H190.119V106.162Z" fill="#ED7D2B"/>
<path d="M188.974 113.922C188.974 113.922 187.08 113.879 186.726 115.371L186.221 113.455H188.923L188.974 113.922Z" fill="#8FADEF"/>
<path d="M207.294 113.932C207.294 113.932 205.396 113.869 205.042 115.361L204.523 113.451H207.226L207.294 113.932Z" fill="#8FADEF"/>
<path d="M168.291 113.719C168.291 113.719 170.51 113.652 170.601 115.026L171.025 113.455H168.331L168.291 113.719Z" fill="#8FADEF"/>
<path d="M160.443 28.3821H147.913C147.337 28.3821 146.867 27.9105 146.867 27.3334V15.2062C146.867 14.6291 147.337 14.1575 147.913 14.1575H160.443C161.018 14.1575 161.489 14.6291 161.489 15.2062V27.3334C161.489 27.9097 161.018 28.3821 160.443 28.3821Z" fill="#C0D8FB"/>
<path d="M159.901 27.7657H148.457C147.932 27.7657 147.502 27.3349 147.502 26.8082V15.7313C147.502 15.2045 147.932 14.7737 148.457 14.7737H159.901C160.426 14.7737 160.856 15.2045 160.856 15.7313V26.8074C160.857 27.3341 160.426 27.7657 159.901 27.7657Z" fill="#DFEBFD"/>
<path d="M153.875 16.0718C153.875 15.904 154.01 15.7681 154.178 15.7681C154.345 15.7681 154.481 15.904 154.481 16.0718C154.481 16.2397 154.345 16.3755 154.178 16.3755C154.01 16.3755 153.875 16.2397 153.875 16.0718Z" fill="#B7D3F3"/>
<path d="M156.319 16.5012C156.401 16.3549 156.585 16.3014 156.732 16.3829C156.877 16.4644 156.931 16.6491 156.85 16.7961C156.768 16.9424 156.584 16.996 156.437 16.9144C156.291 16.8329 156.238 16.6475 156.319 16.5012Z" fill="#B7D3F3"/>
<path d="M158.412 18.1692C158.552 18.0781 158.74 18.1189 158.83 18.2596C158.921 18.4002 158.881 18.5889 158.74 18.6792C158.6 18.7703 158.412 18.7296 158.322 18.5889C158.231 18.4482 158.272 18.2596 158.412 18.1692Z" fill="#B7D3F3"/>
<path d="M159.449 21.3585C159.617 21.3585 159.752 21.2225 159.752 21.0547C159.752 20.887 159.617 20.751 159.449 20.751C159.282 20.751 159.146 20.887 159.146 21.0547C159.146 21.2225 159.282 21.3585 159.449 21.3585Z" fill="#B7D3F3"/>
<path d="M158.921 23.7469C159.039 23.8652 159.039 24.0579 158.921 24.1762C158.803 24.2945 158.611 24.2945 158.493 24.1762C158.375 24.0579 158.375 23.8652 158.493 23.7469C158.611 23.6286 158.803 23.6286 158.921 23.7469Z" fill="#B7D3F3"/>
<path d="M157.018 25.6596C157.136 25.7779 157.136 25.9706 157.018 26.0889C156.901 26.2072 156.708 26.2072 156.59 26.0889C156.472 25.9706 156.472 25.7779 156.59 25.6596C156.708 25.5405 156.901 25.5405 157.018 25.6596Z" fill="#B7D3F3"/>
<path d="M153.875 26.6451C153.875 26.4772 154.01 26.3413 154.178 26.3413C154.345 26.3413 154.481 26.4772 154.481 26.6451C154.481 26.8129 154.345 26.9488 154.178 26.9488C154.01 26.9488 153.875 26.8121 153.875 26.6451Z" fill="#B7D3F3"/>
<path d="M152.025 16.5012C151.944 16.3549 151.76 16.3014 151.613 16.3829C151.467 16.4644 151.414 16.6491 151.495 16.7961C151.576 16.9424 151.761 16.996 151.907 16.9144C152.054 16.8329 152.106 16.6475 152.025 16.5012Z" fill="#B7D3F3"/>
<path d="M149.932 18.1695C149.792 18.0784 149.603 18.1191 149.513 18.2598C149.422 18.4005 149.463 18.5891 149.603 18.6794C149.744 18.7706 149.932 18.7298 150.022 18.5891C150.114 18.4484 150.073 18.2598 149.932 18.1695Z" fill="#B7D3F3"/>
<path d="M148.895 20.751C148.727 20.751 148.592 20.8869 148.592 21.0547C148.592 21.2226 148.727 21.3585 148.895 21.3585C149.062 21.3585 149.198 21.2226 149.198 21.0547C149.198 20.8869 149.062 20.751 148.895 20.751Z" fill="#B7D3F3"/>
<path d="M149.424 23.7469C149.306 23.8652 149.306 24.0579 149.424 24.1762C149.542 24.2945 149.735 24.2945 149.852 24.1762C149.97 24.0579 149.97 23.8652 149.852 23.7469C149.735 23.6286 149.542 23.6286 149.424 23.7469Z" fill="#B7D3F3"/>
<path d="M151.541 26.1778C151.709 26.1778 151.844 26.0418 151.844 25.8741C151.844 25.7063 151.709 25.5703 151.541 25.5703C151.374 25.5703 151.238 25.7063 151.238 25.8741C151.238 26.0418 151.374 26.1778 151.541 26.1778Z" fill="#B7D3F3"/>
<path d="M154.096 21.0547C154.096 20.8869 154.231 20.751 154.399 20.751C154.566 20.751 154.701 20.8869 154.701 21.0547C154.701 21.2226 154.566 21.3585 154.399 21.3585C154.231 21.3585 154.096 21.2226 154.096 21.0547Z" fill="#B7D3F3"/>
<path d="M154.44 17.2603H154.357V21.0546H154.44V17.2603Z" fill="#B7D3F3"/>
<path d="M156.291 19.3671L154.285 20.946L154.438 21.1416L156.444 19.5626L156.291 19.3671Z" fill="#B7D3F3"/>
<path d="M111.557 12.7983V13.5097V13.648V14.2419C111.557 14.2579 111.557 14.2795 111.557 14.2955C111.557 14.596 111.557 14.8814 111.557 15.1747C111.556 16.6159 111.549 17.9795 111.54 19.212C111.54 19.236 111.54 19.2576 111.539 19.2824C111.539 19.4031 111.538 19.5238 111.537 19.6421C111.526 20.8882 111.512 21.9881 111.496 22.8793C111.496 22.8881 111.495 22.8969 111.496 22.9049C111.494 22.96 111.493 23.0144 111.492 23.0679C111.463 24.4971 111.428 25.3476 111.39 25.3476H111.366C111.328 25.3476 111.294 24.5355 111.265 23.1647C111.265 23.0791 111.262 22.9896 111.261 22.8993C111.261 22.8921 111.261 22.8857 111.261 22.8785C111.245 22.068 111.232 21.0848 111.222 19.9778C111.221 19.7444 111.218 19.5086 111.217 19.2648C111.217 19.2472 111.217 19.2304 111.217 19.2128C111.21 18.34 111.204 17.4016 111.201 16.4168C111.201 15.9908 111.2 15.5568 111.2 15.1092C111.2 15.0908 111.2 15.0636 111.2 15.0388C111.2 15.0276 111.2 15.0236 111.2 15.0132C111.199 14.7631 111.199 14.5049 111.199 14.2427V13.6136V13.5105V13.0006L111.557 12.7983Z" fill="#9FC1F4"/>
<path d="M111.379 22.8762C108.003 22.8762 105.266 25.7785 105.266 29.3587H117.493C117.493 25.7785 114.756 22.8762 111.379 22.8762Z" fill="#FF9843"/>
<path d="M111.866 22.9553C111.691 22.917 111.511 22.897 111.329 22.897C109.129 22.897 107.346 25.7905 107.346 29.3594H108.419C108.419 26.0854 109.92 23.3806 111.866 22.9553Z" fill="#FFC48A"/>
<g opacity="0.7">
<g opacity="0.7">
<g opacity="0.7">
<path opacity="0.7" d="M170.824 51.5986C170.824 51.5986 168.632 49.0344 170.689 47.4062C170.689 47.4062 172.191 46.4942 173.416 46.5685C173.416 46.5685 171.68 49.4868 172.242 49.7769C172.803 50.0671 173.942 46.3855 173.942 46.3855C173.942 46.3855 177.36 46.0529 178.46 46.5829C178.46 46.5829 175.538 48.9808 176.153 49.1239C176.768 49.267 179.925 46.913 179.925 46.913C179.925 46.913 183.106 47.4557 182.937 49.4021C182.767 51.3484 181.671 51.9495 181.189 51.8975C180.708 51.8456 177.889 50.7665 177.828 51.163C177.766 51.5586 179.463 52.8527 180.651 52.9135C180.651 52.9135 178.408 55.3937 176.917 54.6783C175.427 53.9622 175.299 52.8279 174.37 52.4019C173.44 51.9767 172.647 51.9775 173.031 52.4115C173.414 52.8455 175.096 53.2676 175.628 54.21C176.159 55.1523 176.636 55.7886 175.094 55.5552C173.551 55.3226 171.044 54.1908 170.934 52.8951C170.824 51.5986 170.824 51.5986 170.824 51.5986Z" fill="#77A4E5"/>
<g opacity="0.7">
<path opacity="0.7" d="M181.376 49.454C181.376 49.454 172.734 49.1199 170.826 51.5986C170.826 51.5986 170.404 52.8663 169.105 54.0205L168.902 54.5737C168.902 54.5737 170.4 52.9902 170.936 52.8943C170.936 52.8943 170.098 49.8241 181.376 49.454Z" fill="#77A4E5"/>
<path opacity="0.7" d="M169.104 54.0205C169.104 54.0205 167.249 55.3961 167.121 57.854L167.457 57.8844C167.457 57.8844 168.05 55.3434 169.121 54.349C170.191 53.3547 169.104 54.0205 169.104 54.0205Z" fill="#77A4E5"/>
</g>
</g>
<g opacity="0.7">
<path opacity="0.7" d="M163.163 48.3743C163.163 48.3743 166.65 46.4168 165.023 43.7599C165.023 43.7599 163.721 42.1285 162.327 41.7089C162.327 41.7089 163.071 45.6711 162.327 45.7646C161.583 45.8581 161.815 41.29 161.815 41.29C161.815 41.29 158.143 39.5187 156.702 39.6586C156.702 39.6586 158.98 43.5273 158.236 43.4346C157.492 43.3411 154.935 39.426 154.935 39.426C154.935 39.426 151.17 38.7266 150.566 40.9639C149.961 43.2012 150.938 44.3202 151.495 44.4601C152.053 44.6 155.632 44.5536 155.54 45.0196C155.446 45.4856 153.029 46.2314 151.682 45.8117C151.682 45.8117 153.169 49.4942 155.121 49.3079C157.073 49.1217 157.678 47.9091 158.887 47.8164C160.095 47.7229 160.978 48.0498 160.374 48.3759C159.77 48.7021 157.724 48.483 156.748 49.3151C155.772 50.1472 154.982 50.6604 156.794 51.0329C158.607 51.4053 161.861 51.1727 162.512 49.7739C163.163 48.3743 163.163 48.3743 163.163 48.3743Z" fill="#77A4E5"/>
<g opacity="0.7">
<path opacity="0.7" d="M152.285 41.6616C152.285 41.6616 162.047 44.8317 163.163 48.3743C163.163 48.3743 163.116 49.9593 164.092 51.777V52.4764C164.092 52.4764 163.069 50.0992 162.511 49.7731C162.511 49.7731 164.696 46.6965 152.285 41.6616Z" fill="#77A4E5"/>
<path opacity="0.7" d="M164.091 51.7768C164.091 51.7768 165.597 54.0693 164.738 56.8597L164.351 56.755C164.351 56.755 164.727 53.6816 163.94 52.1357C163.152 50.5906 164.091 51.7768 164.091 51.7768Z" fill="#77A4E5"/>
</g>
</g>
<g opacity="0.7">
<path opacity="0.7" d="M168.709 45.6741C168.709 45.6741 164.113 43.0931 166.258 39.5913C166.258 39.5913 167.973 37.4404 169.811 36.8881C169.811 36.8881 168.831 42.1108 169.811 42.2339C170.792 42.357 170.485 36.3349 170.485 36.3349C170.485 36.3349 175.326 34.0001 177.226 34.184C177.226 34.184 174.223 39.2836 175.204 39.1613C176.184 39.0382 179.554 33.877 179.554 33.877C179.554 33.877 184.518 32.9554 185.314 35.9049C186.11 38.8544 184.824 40.3291 184.089 40.513C183.354 40.6976 178.635 40.6361 178.758 41.2499C178.881 41.8646 182.067 42.8478 183.843 42.2946C183.843 42.2946 181.883 47.1489 179.309 46.9027C176.735 46.6573 175.938 45.0595 174.345 44.9364C172.752 44.8133 171.588 45.2433 172.384 45.6733C173.18 46.1034 175.877 45.814 177.164 46.9115C178.45 48.0081 179.492 48.6844 177.102 49.1759C174.713 49.6675 170.423 49.3606 169.566 47.5166C168.709 45.6741 168.709 45.6741 168.709 45.6741Z" fill="#9FC1F4"/>
<g opacity="0.7">
<path opacity="0.7" d="M183.047 36.8264C183.047 36.8264 170.179 41.0044 168.708 45.6748C168.708 45.6748 168.77 47.7642 167.482 50.1606V51.0822C167.482 51.0822 168.83 47.9481 169.566 47.518C169.566 47.5172 166.686 43.4623 183.047 36.8264Z" fill="#9FC1F4"/>
<path opacity="0.7" d="M167.483 50.1599C167.483 50.1599 165.498 53.1813 166.63 56.8597L167.141 56.7223C167.141 56.7223 166.645 52.6705 167.684 50.6331C168.722 48.5956 167.483 50.1599 167.483 50.1599Z" fill="#9FC1F4"/>
</g>
</g>
<path opacity="0.7" d="M168.554 64.837C173.526 64.837 177.557 60.7957 177.557 55.8096H159.553C159.552 60.7949 163.582 64.837 168.554 64.837Z" fill="#9FC1F4"/>
<path opacity="0.7" d="M170.77 64.7675C170.405 64.813 170.031 64.837 169.652 64.837C164.681 64.837 160.65 60.7949 160.65 55.8096H162.887C162.886 60.4152 166.327 64.2152 170.77 64.7675Z" fill="#AFCDFB"/>
<path opacity="0.7" d="M177.761 55.8096H159.256V56.0861H177.761V55.8096Z" fill="#9FC1F4"/>
</g>
<path opacity="0.7" d="M171.172 64.3958H165.453V65.299H171.172V64.3958Z" fill="#9FC1F4"/>
</g>
<path d="M8.93215 41.605C8.63562 42.0694 8.34547 42.541 8.0625 43.0222H37.6345V125.883H38.9968V41.605H8.93215Z" fill="#94B0ED"/>
<path d="M38.6094 61.2153V62.7276H1.16992C1.26079 62.2193 1.35645 61.7141 1.45529 61.2153H38.6094Z" fill="#94B0ED"/>
<path d="M38.6107 80.0608V81.5723H0.197934C0.162861 81.0719 0.130976 80.5675 0.105469 80.0608H38.6107Z" fill="#94B0ED"/>
<path d="M38.6101 100.748V102.26H4.20922C4.05139 101.762 3.89675 101.258 3.74609 100.748H38.6101Z" fill="#94B0ED"/>
<path d="M33.3176 61.2337H30V51.5676C30 50.7451 30.6648 50.0776 31.4858 50.0776H31.8325C32.6528 50.0776 33.3184 50.7443 33.3184 51.5676V61.2337H33.3176Z" fill="#2B478B"/>
<path d="M32.687 55.5316H30.707V49.7621C30.707 49.2713 31.104 48.8733 31.5934 48.8733H31.7999C32.2893 48.8733 32.6862 49.2713 32.6862 49.7621V55.5316H32.687Z" fill="#2B478B"/>
<path d="M28.4818 61.2341H26.2148V54.6293C26.2148 54.0674 26.6692 53.6118 27.2296 53.6118H27.4663C28.0267 53.6118 28.481 54.0674 28.481 54.6293V61.2341H28.4818Z" fill="#F99746"/>
<path d="M28.0519 57.3382H26.6992V53.3968C26.6992 53.0611 26.9702 52.7893 27.305 52.7893H27.4461C27.7809 52.7893 28.0519 53.0611 28.0519 53.3968V57.3382Z" fill="#F99746"/>
<path d="M25.0549 60.0254V60.9246C25.0549 61.0957 24.917 61.234 24.7464 61.234H21.3085C21.1379 61.234 21 61.0957 21 60.9246V60.0254C21 59.8543 21.1379 59.7161 21.3085 59.7161H24.7464C24.9178 59.7161 25.0549 59.8543 25.0549 60.0254Z" fill="#ED7D2B"/>
<path d="M25.0549 60.0254V60.4754H21V60.0254C21 59.8543 21.1379 59.7161 21.3085 59.7161H24.7464C24.9178 59.7161 25.0549 59.8543 25.0549 60.0254Z" fill="#F99746"/>
<path d="M17.1535 61.2337H13.8359V51.5676C13.8359 50.7451 14.5007 50.0776 15.3217 50.0776H15.6685C16.4887 50.0776 17.1543 50.7443 17.1543 51.5676V61.2337H17.1535Z" fill="#2B478B"/>
<path d="M16.523 55.5316H14.543V49.7621C14.543 49.2713 14.9399 48.8733 15.4294 48.8733H15.6358C16.1252 48.8733 16.5222 49.2713 16.5222 49.7621V55.5316H16.523Z" fill="#2B478B"/>
<path d="M12.3178 61.2341H10.0508V54.6293C10.0508 54.0674 10.5051 53.6118 11.0655 53.6118H11.3022C11.8626 53.6118 12.317 54.0674 12.317 54.6293V61.2341H12.3178Z" fill="#F99746"/>
<path d="M11.8879 57.3382H10.5352V53.3968C10.5352 53.0611 10.8062 52.7893 11.141 52.7893H11.282C11.6168 52.7893 11.8879 53.0611 11.8879 53.3968V57.3382Z" fill="#F99746"/>
<path d="M8.89164 60.0254V60.9246C8.89164 61.0957 8.75374 61.234 8.58315 61.234H5.14442C4.97384 61.234 4.83594 61.0957 4.83594 60.9246V60.0254C4.83594 59.8543 4.97384 59.7161 5.14442 59.7161H8.58236C8.75374 59.7161 8.89164 59.8543 8.89164 60.0254Z" fill="#ED7D2B"/>
<path d="M8.89164 60.0254V60.4754H4.83594V60.0254C4.83594 59.8543 4.97384 59.7161 5.14442 59.7161H8.58236C8.75374 59.7161 8.89164 59.8543 8.89164 60.0254Z" fill="#F99746"/>
<path d="M33.6943 78.3342H32.0977V80.0719H33.6943V78.3342Z" fill="#CC6A27"/>
<path d="M32.0966 78.3342L31.5195 71.8958H34.2369L33.6932 78.3342H32.0966Z" fill="#F99746"/>
<path d="M31.4863 71.4753L31.523 71.8981L34.238 71.8949L34.2435 71.4409C34.2435 71.4409 31.5031 71.4753 31.4863 71.4753Z" fill="#CC6A27"/>
<path d="M30.6454 70.2939H24.7324V80.048H30.6454V70.2939Z" fill="#AEC3FF"/>
<path d="M28.9601 71.5608H24.7402V73.2817H28.9601V71.5608Z" fill="#F99746"/>
<path d="M19.6318 78.3342H18.0352V80.0719H19.6318V78.3342Z" fill="#CC6A27"/>
<path d="M18.0341 78.3342L17.457 71.8958H20.1744L19.6308 78.3342H18.0341Z" fill="#2B478B"/>
<path d="M17.4238 71.4753L17.4605 71.8981L20.1755 71.8949L20.181 71.4409C20.181 71.4409 17.4406 71.4753 17.4238 71.4753Z" fill="#CC6A27"/>
<path d="M16.5829 70.2939H10.6699V80.048H16.5829V70.2939Z" fill="#AEC3FF"/>
<path d="M14.8976 71.5608H10.6777V73.2817H14.8976V71.5608Z" fill="#2B478B"/>
<path d="M21.5517 98.9902H19.9551V100.728H21.5517V98.9902Z" fill="#CC6A27"/>
<path d="M19.9541 98.9903L19.377 92.551H22.0943L21.5507 98.9903H19.9541Z" fill="#F99746"/>
<path d="M19.3438 92.1313L19.3804 92.5541L22.0954 92.5509L22.101 92.0969C22.101 92.0969 19.3605 92.1313 19.3438 92.1313Z" fill="#CC6A27"/>
<path d="M18.5009 90.9492H12.5879V100.703H18.5009V90.9492Z" fill="#AEC3FF"/>
<path d="M16.8156 92.217H12.5957V93.938H16.8156V92.217Z" fill="#F99746"/>
<path d="M33.6943 98.9902H32.0977V100.728H33.6943V98.9902Z" fill="#CC6A27"/>
<path d="M32.0966 98.9903L31.5195 92.551H34.2369L33.6932 98.9903H32.0966Z" fill="#F99746"/>
<path d="M31.4863 92.1313L31.523 92.5541L34.238 92.5509L34.2435 92.0969C34.2435 92.0969 31.5031 92.1313 31.4863 92.1313Z" fill="#CC6A27"/>
<path d="M30.6454 90.9492H24.7324V100.703H30.6454V90.9492Z" fill="#AEC3FF"/>
<path d="M28.9601 92.217H24.7402V93.938H28.9601V92.217Z" fill="#F99746"/>
<path d="M183.437 65.012H155.104V66.7601H183.437V65.012Z" fill="#C0D4FF"/>
<path d="M98.0508 122.282C98.0508 122.282 98.2939 126.076 99.0256 126.129C99.1229 126.137 102.739 126.129 102.739 126.129L107.354 126.092C107.354 126.092 107.321 124.977 105.972 124.744C104.622 124.512 102.362 123.565 101.541 121.78C100.677 119.899 98.0508 122.282 98.0508 122.282Z" fill="#0E2C4F"/>
<path d="M84.8398 91.0752C84.6637 91.2239 79.9623 96.3315 80.3465 100.255C80.4589 101.406 81.4489 102.273 82.604 102.273L92.6818 96.855C92.6818 96.855 94.1732 103.32 94.3127 104.586C94.4522 105.852 95.6479 112.677 98.0169 122.376C98.0169 122.376 99.7625 122.979 100.822 122.549C102.222 121.98 102.426 121.376 102.426 121.376C102.426 121.376 101.013 99.6574 99.8988 98.1292C98.7837 96.6009 87.2973 92.0568 83.578 91.6043C79.8579 91.1511 84.8398 91.0752 84.8398 91.0752Z" fill="#163560"/>
<path d="M106.141 122.282C106.141 122.282 106.384 126.076 107.115 126.129C107.213 126.137 110.828 126.129 110.828 126.129L115.444 126.092C115.444 126.092 115.411 124.977 114.061 124.744C112.712 124.512 110.451 123.565 109.63 121.78C108.767 119.899 106.141 122.282 106.141 122.282Z" fill="#163560"/>
<path d="M80.4974 91.0752C80.3635 91.1879 79.3463 93.9335 78.6672 97.0509C78.0821 99.7342 80.118 102.273 82.8568 102.273H96.1773C96.1773 102.273 102.02 103.32 102.16 104.586C102.299 105.852 103.495 112.677 105.864 122.376C105.864 122.376 107.616 122.838 108.984 122.251C109.711 121.939 110.285 121.191 110.285 121.191C110.285 121.191 108.86 99.6566 107.746 98.1284C106.631 96.6001 95.1443 92.056 91.425 91.6035C87.7056 91.1511 80.4974 91.0752 80.4974 91.0752Z" fill="#2B478B"/>
<path d="M85.8398 71.9094L88.1395 73.6071L91.6197 73.1507C91.587 72.8694 91.4228 71.7008 91.2722 70.6417C91.2626 70.5793 91.2538 70.517 91.245 70.4562C91.2116 70.2212 91.1789 69.9942 91.1494 69.788C91.0665 69.2045 91.0051 68.7817 91.0051 68.7817L90.0302 68.2853L87.8645 67.1814L86.6935 66.5859C86.6951 66.6043 86.7326 67.5795 86.7374 67.7218C86.8243 70.25 85.8398 71.9094 85.8398 71.9094Z" fill="#FFB27D"/>
<path d="M76.0451 84.3451C76.183 79.8145 78.7784 76.0961 79.9119 74.6813C80.6109 73.2538 85.5817 71.4993 85.5817 71.4993C85.5817 71.4993 89.9427 71.9029 92.4089 72.1315C92.4089 72.1315 97.1231 73.0411 98.1434 77.0313C100.616 86.6974 103.253 90.8995 102.601 93.1919C99.8372 102.911 90.2312 102.663 88.4226 100.689C87.4964 99.6799 78.3535 94.2862 78.7202 87.7781C77.1411 87.2658 75.9869 86.2442 76.0451 84.3451Z" fill="#2A4E96"/>
<path d="M87.498 68.4132L87.6901 68.5003C87.6901 68.5003 89.482 69.4683 91.1496 69.7888C91.0667 69.2053 91.0053 68.7825 91.0053 68.7825L90.0305 68.2861L87.498 68.4132Z" fill="#EAA16E"/>
<path d="M92.2291 68.653C92.2291 68.653 86.957 69.9919 86.1766 66.6867C85.3963 63.3815 84.1894 61.3289 87.523 60.3346C90.8557 59.3402 91.8106 60.4457 92.3383 61.4848C92.866 62.5239 93.5802 68.2198 92.2291 68.653Z" fill="#FFB27D"/>
<path d="M92.1513 61.1601C92.1513 61.1601 91.6148 64.9273 90.8432 64.7203C90.0716 64.5133 89.3702 64.3526 89.4228 65.5004C89.4754 66.6474 90.2215 68.2021 87.8046 68.2724C85.3878 68.3428 82.5326 61.7548 83.2571 60.6126C85.3488 57.3178 95.1325 57.1643 92.1513 61.1601Z" fill="#EA680F"/>
<path d="M91.1124 70.9885C91.0342 70.9693 86.5688 69.7639 86.0945 69.9766C85.6203 70.1892 85.1914 71.6551 85.1914 71.6551L92.8477 72.2562C92.8485 72.2554 92.1135 71.2355 91.1124 70.9885Z" fill="#163560"/>
<path d="M99.3544 103H72.6401C71.6254 103 70.8027 102.175 70.8027 101.157V99.959H99.3544V103Z" fill="#77A4E5"/>
<path d="M102.555 102.999H82.3446C81.5945 102.999 80.9863 102.39 80.9863 101.637V101.322C80.9863 100.57 81.5945 99.9597 82.3446 99.9597H102.555C103.305 99.9597 103.914 100.57 103.914 101.322V101.637C103.914 102.39 103.305 102.999 102.555 102.999Z" fill="#F99746"/>
<path d="M85.7306 124.987H84.0073L83.5234 103H86.1563L85.7306 124.987Z" fill="#94B0ED"/>
<path d="M93.2193 124.987H76.4609V123.469L85.002 122.697L93.2193 123.469V124.987Z" fill="#94B0ED"/>
<path d="M76.8307 125.982C77.5119 125.641 77.7887 124.811 77.449 124.128C77.1093 123.445 76.2817 123.167 75.6005 123.508C74.9194 123.849 74.6426 124.678 74.9823 125.362C75.322 126.045 76.1496 126.322 76.8307 125.982Z" fill="#94B0ED"/>
<path d="M94.3078 125.077C94.4827 124.334 94.024 123.59 93.2833 123.414C92.5425 123.239 91.8002 123.699 91.6253 124.442C91.4504 125.185 91.9091 125.929 92.6499 126.104C93.3906 126.28 94.1329 125.82 94.3078 125.077Z" fill="#94B0ED"/>
<path d="M90.6293 104.442H79.045C78.3499 104.442 77.7871 103.877 77.7871 103.181V103H91.8872V103.181C91.8872 103.877 91.3236 104.442 90.6293 104.442Z" fill="#94B0ED"/>
<path d="M73.441 103C72.7164 103 72.1289 102.411 72.1289 101.684V81.4365C72.1289 77.6422 74.6023 74.5664 77.6545 74.5664H90.1492C93.2005 74.5664 95.6747 77.6422 95.6747 81.4365V86.6417V102.999H73.441V103Z" fill="#F99746"/>
<path d="M73.1949 103C71.8733 103 70.8027 101.926 70.8027 100.601V81.4375C70.8027 77.6431 73.2762 74.5674 76.3283 74.5674H88.823C91.8743 74.5674 94.3485 77.6431 94.3485 81.4375V103H73.1949Z" fill="#CC6A27"/>
<path d="M96.3535 90.845C96.3535 90.845 96.9553 94.8415 101.419 96.1244L102.424 94.7992L96.3535 90.845Z" fill="#163560"/>
<path d="M100.049 83.5361L104.416 96.1237C104.416 96.1237 97.8487 94.1135 96.9153 92.375C95.9819 90.6365 95.6758 86.6415 95.6758 86.6415L100.049 83.5361Z" fill="#2A4E96"/>
<path d="M78.8968 61.8331C78.8968 61.8331 80.546 61.1233 81.3679 61.3751C82.1905 61.6269 81.8318 62.3167 81.8605 62.4462C81.8892 62.5756 83.4651 63.0736 83.5599 63.1503C83.6548 63.2271 83.2427 64.4724 82.6337 64.5867C82.0247 64.701 81.0841 64.199 80.4368 63.9513C79.7904 63.7035 78.8004 63.3214 78.8004 63.3214L78.7812 61.8523L78.8968 61.8331Z" fill="#FFB27D"/>
<path d="M79.3809 62.6837C79.3809 62.6749 79.3809 62.6661 79.3809 62.6565C79.3889 62.0938 78.9975 61.6046 78.4475 61.4887C76.2817 61.0299 70.6709 59.8381 70.0372 59.6742C69.3684 59.5016 62.1099 55.2844 59.937 54.0167C59.5608 53.7969 59.0945 53.8041 58.7246 54.0351L54.2488 56.8271C53.4206 57.3434 53.5426 58.588 54.4545 58.9325C58.6353 60.5127 67.3748 63.7883 68.8901 64.1472C71.5605 64.7795 76.5185 64.2343 78.3399 63.9993C78.8548 63.933 79.2677 63.5365 79.3498 63.0226C79.3682 62.9163 79.3793 62.8028 79.3809 62.6837Z" fill="#E58638"/>
<path d="M58.1113 122.636C58.1113 122.636 58.2867 125.466 58.8104 126.132H66.8756C66.8245 125.85 66.5966 125.153 65.5882 124.976C64.3136 124.754 62.1806 123.856 61.409 122.166C60.5967 120.39 58.1113 122.636 58.1113 122.636Z" fill="#163560"/>
<path d="M43.7986 122.241C43.7986 122.241 43.1035 125.986 43.7938 126.05C43.8855 126.059 47.1752 126.091 48.0536 126.223C49.4876 126.438 52.0958 126.05 52.0958 126.05C52.3955 126.063 52.4808 125.677 52.3277 125.418C52.1603 125.134 51.8407 124.83 51.2317 124.713C49.9619 124.468 47.8448 123.532 47.1027 121.83C46.3231 120.039 43.7986 122.241 43.7986 122.241Z" fill="#163560"/>
<path d="M61.9044 84.9677C61.9044 84.9677 59.8765 92.084 54.064 104.441C48.2515 116.799 47.8027 122.43 47.8027 122.43L43.7988 122.241C43.7988 122.241 44.1751 107.533 46.9211 101.297C49.6664 95.0607 50.2259 77.9961 50.2259 77.9961L61.9044 84.9677Z" fill="#94B0ED"/>
<path d="M65.1599 78.845C65.1599 78.845 65.3217 89.8635 63.4198 103.393C61.5187 116.922 62.1627 122.665 62.1627 122.665L57.6089 122.817C57.6089 122.817 54.8875 109.283 55.6679 102.511C56.4483 95.7393 51.9414 79.2742 51.9414 79.2742L65.1599 78.845Z" fill="#AEC3FF"/>
<path d="M56.1738 53.0592L58.3212 54.6546L61.4252 53.9992C61.3821 53.7155 61.1773 52.5389 60.9908 51.4734C60.9796 51.4102 60.9684 51.3479 60.9573 51.2863C60.7971 50.3799 60.6592 49.6006 60.6592 49.6006L57.7601 48.1514L56.6792 47.6111C56.6824 47.6303 56.7629 48.6174 56.774 48.7613C56.9781 51.3215 56.1738 53.0592 56.1738 53.0592Z" fill="#FFB27D"/>
<path d="M50.0235 80.2047C49.9717 77.3031 50.9346 73.301 51.6265 67.4668C51.9262 64.9425 51.6942 61.336 52.2275 59.0516C53.1729 55.0087 54.021 52.701 55.8177 52.1703C56.4817 51.9761 58.9272 52.6123 60.696 53.1271C60.8187 53.1622 60.9407 53.2046 61.0603 53.2542C61.4971 53.4284 61.8933 53.6834 62.2304 54.0023C62.7063 54.4499 63.0642 55.0206 63.2563 55.6673C63.5297 56.5873 63.843 57.7663 64.0973 59.066C64.3755 60.4752 64.5835 62.0242 64.5971 63.5405C64.613 65.1144 64.825 67.4396 65.065 69.8847C65.0921 70.1565 65.1192 70.429 65.1463 70.7032C65.1654 70.8926 65.4667 77.1305 65.5544 78.8027C65.5552 78.8258 65.556 78.8482 65.5576 78.869C65.5576 78.8714 65.5576 78.8738 65.5584 78.8762C65.5592 78.9002 65.56 78.9242 65.5624 78.9465C65.5703 79.096 65.5751 79.1871 65.5775 79.2079C65.7736 81.1742 50.0841 83.501 50.0235 80.2047Z" fill="#F99746"/>
<path d="M56.9951 48.8077C57.632 50.0291 60.0042 51.0858 60.9935 51.4742C60.9823 51.4111 60.9711 51.3487 60.96 51.2872C60.7998 50.3808 60.6619 49.6014 60.6619 49.6014L57.7628 48.1523C57.1227 48.1427 56.7321 48.3049 56.9951 48.8077Z" fill="#FCA56B"/>
<path d="M62.0713 49.4311C62.0713 49.4311 56.8415 51.0673 55.8754 47.7853C54.9093 44.5033 53.5837 42.5042 56.8821 41.3212C60.1806 40.1382 61.2009 41.1973 61.7891 42.2141C62.3774 43.2308 63.4065 48.9211 62.0713 49.4311Z" fill="#FFB27D"/>
<path d="M61.5826 41.8975C61.5826 41.8975 61.2494 45.7167 60.4619 45.5504C59.6743 45.3849 58.9601 45.2618 59.0749 46.4129C59.1905 47.5639 59.6663 49.0882 57.2391 49.292C54.8119 49.4958 51.9392 43.0238 52.6055 41.8352C54.5298 38.4069 64.3637 37.7147 61.5826 41.8975Z" fill="#163560"/>
<path d="M65.5632 78.9473C53.9166 78.3398 56.2984 65.3821 56.2984 65.3821L65.0666 69.8862C65.0937 70.158 65.1208 70.4306 65.1479 70.7047C65.167 70.8942 65.4683 77.132 65.556 78.8042C65.5544 78.8282 65.5552 78.8497 65.5592 78.8705C65.5592 78.8729 65.5592 78.8753 65.56 78.8777C65.56 78.9009 65.5608 78.9249 65.5632 78.9473Z" fill="#E58638"/>
<path d="M83.1748 64.1639C82.9763 64.5531 82.4989 64.7074 82.1115 64.5076C81.7241 64.3085 81.5694 63.8298 81.7687 63.4413C81.9672 63.0528 82.4447 62.8977 82.832 63.0976C83.2194 63.2966 83.3733 63.7746 83.1748 64.1639ZM82.9014 64.0232C83.0226 63.7858 82.9285 63.4932 82.6918 63.3717C82.455 63.2502 82.1633 63.3446 82.0421 63.582C81.921 63.8194 82.015 64.1119 82.2518 64.2334C82.4885 64.3549 82.7802 64.2606 82.9014 64.0232Z" fill="#2A4E96"/>
<path d="M83.0884 63.7812C83.086 63.7548 87.0978 62.8036 87.0978 62.8036C87.0978 62.8036 86.7343 62.5015 86.1237 62.4959C85.5132 62.4903 82.9863 63.2321 82.9863 63.2321L83.0884 63.7812Z" fill="#2A4E96"/>
<path d="M82.8909 62.611C82.47 62.7229 82.0364 62.4695 81.9248 62.0475C81.8132 61.6254 82.0659 61.1906 82.4868 61.0787C82.9077 60.9668 83.3413 61.2202 83.4529 61.6422C83.5645 62.0651 83.3118 62.4991 82.8909 62.611ZM82.5657 61.3769C82.3082 61.4448 82.1544 61.7102 82.2221 61.9683C82.2899 62.2265 82.5545 62.3808 82.812 62.3128C83.0695 62.2449 83.2233 61.9795 83.1556 61.7214C83.0878 61.4632 82.8232 61.3081 82.5657 61.3769Z" fill="#2A4E96"/>
<path d="M83.2863 61.9978C83.2784 62.0226 86.9961 63.8107 86.9961 63.8107C86.9961 63.8107 86.5768 64.0281 85.979 63.9034C85.3811 63.7787 83.0703 62.5134 83.0703 62.5134L83.2863 61.9978Z" fill="#2A4E96"/>
<path d="M84.6873 62.9355C84.6387 62.9363 84.5996 62.9763 84.5996 63.0251C84.6004 63.0738 84.6403 63.113 84.6889 63.113C84.7375 63.1122 84.7766 63.0722 84.7766 63.0235C84.7758 62.9747 84.7359 62.9355 84.6873 62.9355Z" fill="#2A4E96"/>
<path d="M81.3691 61.3752C81.3818 61.3776 82.0036 61.4136 82.6094 61.4536C83.0549 61.4832 83.5173 61.3641 83.699 61.3864C84.1262 61.44 83.7102 62.0627 82.7345 62.2361C81.9087 62.3832 81.098 62.6518 80.344 62.647C79.4313 62.6414 81.3691 61.3752 81.3691 61.3752Z" fill="#FFB27D"/>
<path d="M75.6314 67.5396C75.6179 67.5396 75.6043 67.5388 75.5908 67.5372L74.8494 67.4477C74.8096 67.4429 74.7809 67.4069 74.7857 67.367C74.7905 67.327 74.8271 67.299 74.8662 67.303L75.6075 67.3925C75.7159 67.4053 75.8131 67.3278 75.8259 67.2199L76.3345 62.9643C76.3472 62.8564 76.2699 62.7589 76.1623 62.7461L75.421 62.6574C75.3811 62.6526 75.3524 62.6166 75.3572 62.5767C75.362 62.5367 75.3979 62.5079 75.4377 62.5127L76.179 62.6015C76.3663 62.6238 76.5003 62.7949 76.4779 62.9819L75.9694 67.2375C75.9495 67.4117 75.8012 67.5396 75.6314 67.5396Z" fill="#163560"/>
<path d="M76.4096 62.9748C76.4088 62.9748 76.4072 62.9748 76.4064 62.9748L75.3973 62.8533C75.3821 62.8517 75.371 62.8381 75.3734 62.8229C75.375 62.8077 75.3893 62.7965 75.4037 62.7989L76.4128 62.9204C76.4279 62.922 76.4391 62.9356 76.4367 62.9508C76.4351 62.9644 76.4232 62.9748 76.4096 62.9748Z" fill="#163560"/>
<path d="M76.3745 63.2714C76.3737 63.2714 76.3721 63.2714 76.3713 63.2714L75.3621 63.1499C75.347 63.1483 75.3358 63.1347 75.3382 63.1195C75.3398 63.1043 75.3542 63.0931 75.3685 63.0955L76.3777 63.217C76.3928 63.2186 76.404 63.2322 76.4016 63.2474C76.4 63.261 76.388 63.2714 76.3745 63.2714Z" fill="#163560"/>
<path d="M76.3374 63.5808C76.3366 63.5808 76.335 63.5808 76.3342 63.5808L75.325 63.4593C75.3099 63.4577 75.2987 63.4433 75.3011 63.4289C75.3027 63.4137 75.317 63.4033 75.3314 63.4049L76.3405 63.5264C76.3557 63.528 76.3668 63.5424 76.3645 63.5568C76.3629 63.5704 76.3509 63.5808 76.3374 63.5808Z" fill="#163560"/>
<path d="M76.3041 63.8643C76.3033 63.8643 76.3017 63.8643 76.301 63.8643L75.2918 63.7429C75.2767 63.7413 75.2655 63.7269 75.2679 63.7125C75.2695 63.6973 75.2838 63.6877 75.2982 63.6885L76.3073 63.81C76.3225 63.8116 76.3336 63.826 76.3312 63.8404C76.3296 63.8548 76.3177 63.8643 76.3041 63.8643Z" fill="#163560"/>
<path d="M76.269 64.1618C76.2682 64.1618 76.2666 64.1618 76.2658 64.1618L75.2567 64.0404C75.2415 64.0388 75.2304 64.0244 75.2327 64.01C75.2343 63.9948 75.2487 63.9844 75.263 63.986L76.2722 64.1075C76.2873 64.1091 76.2985 64.1235 76.2961 64.1379C76.2945 64.1514 76.2825 64.1618 76.269 64.1618Z" fill="#163560"/>
<path d="M76.2319 64.4702C76.2311 64.4702 76.2295 64.4702 76.2287 64.4702L75.2195 64.3487C75.2044 64.3471 75.1932 64.3327 75.1956 64.3183C75.1972 64.3031 75.2116 64.2928 75.2259 64.2944L76.2351 64.4158C76.2502 64.4174 76.2614 64.4318 76.259 64.4462C76.2582 64.4598 76.2462 64.4702 76.2319 64.4702Z" fill="#163560"/>
<path d="M76.1889 64.8043C76.1881 64.8043 76.1865 64.8043 76.1857 64.8043L75.1766 64.6828C75.1614 64.6812 75.1503 64.6668 75.1527 64.6524C75.1543 64.6373 75.1686 64.6277 75.183 64.6285L76.1921 64.75C76.2072 64.7515 76.2184 64.7659 76.216 64.7803C76.2152 64.7939 76.2033 64.8043 76.1889 64.8043Z" fill="#163560"/>
<path d="M76.1557 65.1008C76.1549 65.1008 76.1533 65.1008 76.1525 65.1008L75.1434 64.9793C75.1282 64.9777 75.1171 64.9633 75.1195 64.9489C75.1211 64.9338 75.1354 64.9234 75.1498 64.925L76.1588 65.0465C76.174 65.0481 76.1852 65.0624 76.1828 65.0768C76.1812 65.0904 76.1692 65.1008 76.1557 65.1008Z" fill="#163560"/>
<path d="M76.1185 65.4103C76.1178 65.4103 76.1162 65.4103 76.1154 65.4103L75.1063 65.2888C75.0911 65.2872 75.08 65.2728 75.0824 65.2584C75.0839 65.2432 75.0983 65.2336 75.1126 65.2344L76.1217 65.3559C76.1369 65.3575 76.148 65.3719 76.1456 65.3863C76.1441 65.3999 76.1321 65.4103 76.1185 65.4103Z" fill="#163560"/>
<path d="M76.0815 65.7299C76.0807 65.7299 76.0791 65.7299 76.0783 65.7299L75.0692 65.6084C75.054 65.6068 75.0429 65.5924 75.0452 65.578C75.0468 65.5628 75.0612 65.5532 75.0755 65.554L76.0847 65.6755C76.0998 65.6771 76.111 65.6915 76.1086 65.7059C76.107 65.7195 76.095 65.7299 76.0815 65.7299Z" fill="#163560"/>
<path d="M76.0464 66.0271C76.0456 66.0271 76.044 66.0271 76.0432 66.0271L75.034 65.9056C75.0189 65.904 75.0077 65.8896 75.0101 65.8752C75.0117 65.86 75.026 65.8496 75.0404 65.8512L76.0496 65.9727C76.0647 65.9743 76.0759 65.9887 76.0735 66.0031C76.0719 66.0167 76.0599 66.0271 76.0464 66.0271Z" fill="#163560"/>
<path d="M76.0093 66.3358C76.0085 66.3358 76.0069 66.3358 76.0061 66.3358L74.9969 66.2143C74.9817 66.2127 74.9706 66.1983 74.973 66.1839C74.9746 66.1687 74.9889 66.1592 75.0033 66.16L76.0124 66.2814C76.0276 66.283 76.0388 66.2974 76.0364 66.3118C76.0348 66.3254 76.0228 66.3358 76.0093 66.3358Z" fill="#163560"/>
<path d="M75.976 66.5963C75.9752 66.5963 75.9736 66.5963 75.9728 66.5963L74.9637 66.4748C74.9485 66.4732 74.9374 66.4588 74.9398 66.4444C74.9414 66.4293 74.9557 66.4197 74.9701 66.4205L75.9792 66.5419C75.9944 66.5435 76.0055 66.5579 76.0031 66.5723C76.0015 66.5859 75.9896 66.5963 75.976 66.5963Z" fill="#163560"/>
<path d="M75.9409 66.8938C75.9401 66.8938 75.9385 66.8938 75.9377 66.8938L74.9285 66.7723C74.9134 66.7707 74.9022 66.7563 74.9046 66.7419C74.9062 66.7267 74.9206 66.7163 74.9349 66.7179L75.9441 66.8394C75.9592 66.841 75.9704 66.8554 75.968 66.8698C75.9664 66.8834 75.9544 66.8938 75.9409 66.8938Z" fill="#163560"/>
<path d="M75.9038 67.202C75.903 67.202 75.9014 67.202 75.9006 67.202L74.8914 67.0805C74.8763 67.0789 74.8651 67.0645 74.8675 67.0501C74.8691 67.035 74.8835 67.0254 74.8978 67.0262L75.9069 67.1477C75.9221 67.1492 75.9333 67.1636 75.9309 67.178C75.9293 67.1916 75.9173 67.202 75.9038 67.202Z" fill="#163560"/>
<path d="M72.5148 66.7051C72.5148 66.7051 74.3194 65.4813 74.6614 65.3742C75.0033 65.2679 76.1257 65.152 76.1775 65.2408C76.2293 65.3295 76.3831 65.6004 76.1871 65.6924C75.991 65.7843 75.747 65.7523 75.8204 65.8163C75.8937 65.8802 76.631 65.5285 76.8016 65.9058C76.9714 66.2831 77.1213 67.5756 76.2556 67.9672C75.3899 68.3589 73.2537 68.0048 73.0998 68.0496C71.7942 68.4308 72.5148 66.7051 72.5148 66.7051Z" fill="#FFB27D"/>
<path d="M51.4564 68.8217C51.4564 68.8217 54.9581 69.199 58.9516 68.3469L58.801 69.2414C58.801 69.2414 56.3881 70.4187 51.332 69.7489L51.4564 68.8217Z" fill="#2A4E96"/>
<path d="M60.8299 57.5969L58.9512 68.3477L59.891 95.518C59.891 95.518 62.9813 96.3317 65.5799 95.518C65.5799 95.518 66.318 62.1458 63.6469 57.0781L60.8299 57.5969Z" fill="#2A4E96"/>
<path d="M72.5314 66.3742C72.5314 66.3742 63.7249 67.8754 62.9445 67.4949C61.6987 66.8866 62.5436 57.3292 62.5436 57.3292C62.5436 57.3292 63.5017 55.896 61.1367 55.4172C59.0809 55.0008 57.0977 56.5451 57.0977 56.5451C57.0977 56.5451 55.2939 58.1637 55.5242 59.9581C56.0352 63.9371 56.8299 72.0294 59.4835 73.2699C62.9063 74.8702 72.812 68.8329 72.812 68.8329C72.812 68.8329 73.142 68.4277 73.0949 67.6755C73.0535 67.0129 72.5314 66.3742 72.5314 66.3742Z" fill="#F99746"/>
<path d="M62.5451 57.329C62.5451 57.329 62.2781 53.4595 58.0781 52.135L58.7509 51.7466C58.7509 51.7466 62.8122 53.0503 63.1788 57.329H62.5451Z" fill="#2A4E96"/>
<path d="M61.21 52.255C61.1423 52.2263 56.9877 50.9969 56.5366 51.1464C56.0854 51.2959 55.8184 52.1711 55.8184 52.1711L62.2319 54.0031C62.2319 54.0031 62.0781 52.6211 61.21 52.255Z" fill="#E58638"/>
<path d="M83.4478 61.6462C83.3505 61.2921 83.058 61.0603 82.7168 61.0483V61.3657C82.924 61.3777 83.0946 61.5119 83.1552 61.7198C83.2158 61.9763 83.0699 62.2449 82.8141 62.3176C82.7774 62.3296 82.7535 62.3296 82.7168 62.3296V62.635C82.7654 62.635 82.8388 62.623 82.8874 62.6102C83.3138 62.5015 83.5578 62.0619 83.4478 61.6462Z" fill="#2A4E96"/>
<path d="M81.9121 64.5143C81.9121 64.5143 82.121 63.8405 82.2915 63.7054C82.9794 63.1594 83.4577 62.8061 83.6857 63.0348C83.9902 63.3401 83.6745 64.197 83.3589 64.4855C83.1429 64.6837 82.6351 64.9155 81.9121 64.5143Z" fill="#F4A773"/>
<path d="M132.395 98.3475V99.0509C132.395 99.2971 132.474 99.4985 132.571 99.4985H158.18C158.277 99.4985 158.357 99.2971 158.357 99.0509V98.3475C158.357 98.1013 158.277 97.8999 158.18 97.8999H132.571C132.474 97.8999 132.395 98.1013 132.395 98.3475Z" fill="#7298DB"/>
<path d="M132.395 98.3475V99.0509C132.395 99.2971 132.468 99.4985 132.556 99.4985H152.887C152.977 99.4985 153.049 99.2971 153.049 99.0509V98.3475C153.049 98.1013 152.976 97.8999 152.887 97.8999H132.556C132.468 97.8999 132.395 98.1013 132.395 98.3475Z" fill="#C2D5FF"/>
<path d="M138.875 126.072H157.057V99.4988H138.875V126.072Z" fill="#94B0ED"/>
<path d="M133.782 126.072H151.963V99.4988H133.782V126.072Z" fill="#C0D4FF"/>
<path d="M134.758 100.249H150.985V124.604H134.758V100.249ZM150.81 100.425H134.933V124.429H150.81V100.425Z" fill="#94B0ED"/>
<path d="M150.898 108.306H134.846V108.482H150.898V108.306Z" fill="#94B0ED"/>
<path d="M150.898 116.52H134.846V116.696H150.898V116.52Z" fill="#94B0ED"/>
<path d="M141.226 101.82H144.205C144.349 101.82 144.468 101.701 144.468 101.556C144.468 101.411 144.35 101.292 144.205 101.292H141.226C141.082 101.292 140.963 101.411 140.963 101.556C140.964 101.701 141.082 101.82 141.226 101.82Z" fill="#94B0ED"/>
<path d="M141.226 109.852H144.205C144.349 109.852 144.468 109.734 144.468 109.588C144.468 109.444 144.35 109.324 144.205 109.324H141.226C141.082 109.324 140.963 109.443 140.963 109.588C140.964 109.734 141.082 109.852 141.226 109.852Z" fill="#94B0ED"/>
<path d="M141.226 118.226H144.205C144.349 118.226 144.468 118.107 144.468 117.962C144.468 117.817 144.35 117.698 144.205 117.698H141.226C141.082 117.698 140.963 117.816 140.963 117.962C140.964 118.107 141.082 118.226 141.226 118.226Z" fill="#94B0ED"/>
<path d="M154.275 97.8998H151.574V90.0321C151.574 89.3623 152.115 88.8196 152.783 88.8196H153.066C153.734 88.8196 154.275 89.3623 154.275 90.0321V97.8998Z" fill="#2B478B"/>
<path d="M153.76 93.2582H152.148V88.5622C152.148 88.1626 152.471 87.8389 152.87 87.8389H153.038C153.437 87.8389 153.759 88.1626 153.759 88.5622V93.2582H153.76Z" fill="#2B478B"/>
<path d="M150.336 97.9H148.49V92.5246C148.49 92.0674 148.86 91.6965 149.316 91.6965H149.509C149.965 91.6965 150.335 92.0674 150.335 92.5246V97.9H150.336Z" fill="#F99746"/>
<path d="M149.986 94.7291H148.885V91.5206C148.885 91.2473 149.106 91.0259 149.378 91.0259H149.493C149.766 91.0259 149.986 91.2473 149.986 91.5206V94.7291H149.986Z" fill="#F99746"/>
<path d="M147.549 96.9166V97.6488C147.549 97.7878 147.436 97.9005 147.298 97.9005H144.499C144.36 97.9005 144.248 97.7878 144.248 97.6488V96.9166C144.248 96.7775 144.36 96.6648 144.499 96.6648H147.298C147.436 96.6648 147.549 96.7767 147.549 96.9166Z" fill="#ED7D2B"/>
<path d="M147.55 96.9166V97.2827H144.25V96.9166C144.25 96.7775 144.362 96.6648 144.501 96.6648H147.3C147.438 96.6648 147.55 96.7767 147.55 96.9166Z" fill="#F99746"/>
<path opacity="0.1" d="M99.8396 37.2903L99.8301 58.8678L124.333 37.2903H99.8396Z" fill="#94B0ED"/>
<path opacity="0.3" d="M99.7045 66.6923L134.21 37.2847H136.582V40.6266L99.8273 74.6559C99.8281 74.6551 99.3108 66.2966 99.7045 66.6923Z" fill="#94B0ED"/>
<path d="M236.669 127H0.547239C0.3647 127 0.214844 126.85 0.214844 126.667V126.366C0.214844 126.183 0.3647 126.033 0.547239 126.033H236.669C236.851 126.033 237.001 126.183 237.001 126.366V126.667C237.001 126.85 236.851 127 236.669 127Z" fill="#2E3552"/>
</g>
<defs>
<clipPath id="clip0">
<rect width="237" height="127" fill="white"/>
</clipPath>
</defs>
</svg>
