<svg width="47" height="45" viewBox="0 0 47 45" fill="none" xmlns="http://www.w3.org/2000/svg">
<rect x="0.5" y="0.5" width="46" height="44" rx="22" stroke="#19B5FE" stroke-dasharray="4 4"/>
<path fill-rule="evenodd" clip-rule="evenodd" d="M25 17H35V31H15V13H25V17ZM17 29H19V27H17V29ZM19 25H17V23H19V25ZM17 21H19V19H17V21ZM19 17H17V15H19V17ZM21 29H23V27H21V29ZM23 25H21V23H23V25ZM21 21H23V19H21V21ZM23 17H21V15H23V17ZM33 29V19H25V21H27V23H25V25H27V27H25V29H33ZM31 21H29V23H31V21ZM29 25H31V27H29V25Z" fill="#52C8FF"/>
</svg>

